ISO-10303-21;
HEADER;
/* Generated by software containing ST-Developer
 * from STEP Tools, Inc. (www.steptools.com) 
 */

FILE_DESCRIPTION(
/* description */ (''),
/* implementation_level */ '2;1');

FILE_NAME(
/* name */ 'Pressure Vessel End Cap Floor.step',
/* time_stamp */ '2025-11-04T09:07:27-06:00',
/* author */ (''),
/* organization */ (''),
/* preprocessor_version */ 'ST-DEVELOPER v20.1',
/* originating_system */ 'Autodesk Translation Framework v14.17.0.0',
/* authorisation */ '');

FILE_SCHEMA (('AUTOMOTIVE_DESIGN { 1 0 10303 214 3 1 1 }'));
ENDSEC;

DATA;
#10=MECHANICAL_DESIGN_GEOMETRIC_PRESENTATION_REPRESENTATION('',(#13),#372);
#11=SHAPE_REPRESENTATION_RELATIONSHIP('SRR','None',#378,#12);
#12=ADVANCED_BREP_SHAPE_REPRESENTATION('',(#14),#371);
#13=STYLED_ITEM('',(#387),#14);
#14=MANIFOLD_SOLID_BREP('Body2',#99);
#15=CONICAL_SURFACE('',#119,1.78952858555998,0.558033138122239);
#16=CONICAL_SURFACE('',#120,1.78952858555998,0.558033138122239);
#17=CIRCLE('',#114,1.79733124728783);
#18=CIRCLE('',#115,1.79733124728783);
#19=CIRCLE('',#117,1.78172592383213);
#20=CIRCLE('',#118,1.78172592383213);
#21=LINE('',#355,#25);
#22=LINE('',#361,#26);
#23=LINE('',#365,#27);
#24=LINE('',#367,#28);
#25=VECTOR('',#126,0.01);
#26=VECTOR('',#133,0.01);
#27=VECTOR('',#140,0.01);
#28=VECTOR('',#143,0.01);
#29=PLANE('',#113);
#30=PLANE('',#116);
#31=PLANE('',#121);
#32=FACE_OUTER_BOUND('',#38,.T.);
#33=FACE_OUTER_BOUND('',#39,.T.);
#34=FACE_OUTER_BOUND('',#40,.T.);
#35=FACE_OUTER_BOUND('',#41,.T.);
#36=FACE_OUTER_BOUND('',#42,.T.);
#37=FACE_OUTER_BOUND('',#43,.T.);
#38=EDGE_LOOP('',(#68,#69,#70,#71));
#39=EDGE_LOOP('',(#72,#73,#74,#75));
#40=EDGE_LOOP('',(#76,#77,#78,#79));
#41=EDGE_LOOP('',(#80,#81,#82,#83));
#42=EDGE_LOOP('',(#84,#85,#86,#87));
#43=EDGE_LOOP('',(#88,#89,#90,#91));
#44=B_SPLINE_CURVE_WITH_KNOTS('',3,(#164,#165,#166,#167,#168,#169,#170,
#171,#172,#173,#174,#175,#176,#177,#178,#179,#180,#181,#182,#183,#184,#185,
#186,#187,#188,#189,#190,#191,#192,#193,#194,#195,#196,#197,#198,#199,#200,
#201,#202,#203,#204,#205,#206,#207,#208,#209,#210,#211,#212,#213,#214,#215,
#216,#217,#218,#219,#220,#221,#222,#223,#224,#225,#226,#227,#228,#229,#230,
#231,#232,#233,#234,#235,#236,#237,#238,#239,#240,#241,#242,#243,#244,#245,
#246,#247,#248,#249,#250),.UNSPECIFIED.,.F.,.F.,(4,2,2,2,2,2,2,2,2,2,2,
2,2,2,2,2,2,2,2,2,2,3,2,2,2,2,2,2,2,2,2,2,2,2,2,2,2,2,2,2,2,2,4),(-193.344855848043,
-186.634462395803,-178.643964280005,-170.653466164207,-162.66296804841,
-154.672469932612,-146.681971816815,-138.691473701017,-130.70097558522,
-122.710477469422,-112.933403794378,-103.156330119334,-93.3792564442908,
-83.6021827692471,-73.1519099230911,-62.7016370769354,-52.2513642307795,
-41.8010913846235,-31.3508185384676,-20.9005456923117,-10.4502728461559,
0.,10.4502728461559,20.9005456923118,31.3508185384677,41.8010913846236,
52.2513642307795,62.7016370769353,73.1519099230912,83.6021827692471,93.3792564442908,
103.156330119335,112.933403794378,122.710477469422,130.70097558522,138.691473701017,
146.681971816815,154.672469932612,162.66296804841,170.653466164208,178.643964280005,
186.634462395803,193.338075190879),.UNSPECIFIED.);
#45=B_SPLINE_CURVE_WITH_KNOTS('',3,(#252,#253,#254,#255),.UNSPECIFIED.,
 .F.,.F.,(4,4),(-2.9472718845211,0.),.UNSPECIFIED.);
#46=B_SPLINE_CURVE_WITH_KNOTS('',3,(#257,#258,#259,#260,#261,#262,#263,
#264,#265,#266,#267,#268,#269,#270,#271,#272,#273,#274,#275,#276,#277,#278,
#279,#280,#281,#282,#283,#284,#285,#286,#287,#288,#289,#290,#291,#292,#293,
#294,#295,#296,#297,#298,#299,#300,#301,#302,#303,#304,#305,#306,#307,#308,
#309,#310,#311,#312,#313,#314,#315,#316,#317,#318,#319,#320,#321,#322,#323,
#324,#325,#326,#327,#328,#329,#330,#331,#332,#333,#334,#335,#336,#337,#338,
#339,#340,#341,#342,#343,#344,#345,#346,#347),.UNSPECIFIED.,.F.,.F.,(4,
2,2,2,2,2,2,2,2,2,2,2,2,2,2,2,2,2,2,2,2,2,3,2,2,2,2,2,2,2,2,2,2,2,2,2,2,
2,2,2,2,2,2,2,4),(-195.242452259975,-194.555860469323,-187.271493207997,
-179.2230394774,-171.174585746803,-163.126132016205,-155.077678285608,-147.029224555011,
-138.980770824414,-130.932317093816,-122.883863363219,-113.068154657878,
-103.252445952537,-93.4367372471966,-83.6210285418558,-73.1683999741238,
-62.7157714063919,-52.2631428386601,-41.810514270928,-31.357885703196,-20.9052571354639,
-10.4526285677318,0.,10.452628567732,20.9052571354639,31.3578857031959,
41.8105142709279,52.2631428386599,62.7157714063918,73.1683999741238,83.6210285418558,
93.4367372471966,103.252445952537,113.068154657878,122.883863363219,130.932317093816,
138.980770824414,147.029224555011,155.077678285608,163.126132016205,171.174585746803,
179.2230394774,187.271493207997,194.555860469323,195.249235119326),
 .UNSPECIFIED.);
#47=B_SPLINE_CURVE_WITH_KNOTS('',3,(#348,#349,#350,#351),.UNSPECIFIED.,
 .F.,.F.,(4,4),(-2.94726917032538,0.),.UNSPECIFIED.);
#48=VERTEX_POINT('',#162);
#49=VERTEX_POINT('',#163);
#50=VERTEX_POINT('',#251);
#51=VERTEX_POINT('',#256);
#52=VERTEX_POINT('',#353);
#53=VERTEX_POINT('',#354);
#54=VERTEX_POINT('',#359);
#55=VERTEX_POINT('',#360);
#56=EDGE_CURVE('',#48,#49,#44,.T.);
#57=EDGE_CURVE('',#50,#48,#45,.T.);
#58=EDGE_CURVE('',#51,#50,#46,.T.);
#59=EDGE_CURVE('',#49,#51,#47,.T.);
#60=EDGE_CURVE('',#52,#53,#21,.T.);
#61=EDGE_CURVE('',#52,#51,#17,.T.);
#62=EDGE_CURVE('',#50,#53,#18,.T.);
#63=EDGE_CURVE('',#54,#55,#22,.T.);
#64=EDGE_CURVE('',#48,#54,#19,.T.);
#65=EDGE_CURVE('',#55,#49,#20,.T.);
#66=EDGE_CURVE('',#55,#52,#23,.T.);
#67=EDGE_CURVE('',#53,#54,#24,.T.);
#68=ORIENTED_EDGE('',*,*,#56,.F.);
#69=ORIENTED_EDGE('',*,*,#57,.F.);
#70=ORIENTED_EDGE('',*,*,#58,.F.);
#71=ORIENTED_EDGE('',*,*,#59,.F.);
#72=ORIENTED_EDGE('',*,*,#60,.F.);
#73=ORIENTED_EDGE('',*,*,#61,.T.);
#74=ORIENTED_EDGE('',*,*,#58,.T.);
#75=ORIENTED_EDGE('',*,*,#62,.T.);
#76=ORIENTED_EDGE('',*,*,#63,.F.);
#77=ORIENTED_EDGE('',*,*,#64,.F.);
#78=ORIENTED_EDGE('',*,*,#56,.T.);
#79=ORIENTED_EDGE('',*,*,#65,.F.);
#80=ORIENTED_EDGE('',*,*,#66,.F.);
#81=ORIENTED_EDGE('',*,*,#65,.T.);
#82=ORIENTED_EDGE('',*,*,#59,.T.);
#83=ORIENTED_EDGE('',*,*,#61,.F.);
#84=ORIENTED_EDGE('',*,*,#67,.F.);
#85=ORIENTED_EDGE('',*,*,#62,.F.);
#86=ORIENTED_EDGE('',*,*,#57,.T.);
#87=ORIENTED_EDGE('',*,*,#64,.T.);
#88=ORIENTED_EDGE('',*,*,#63,.T.);
#89=ORIENTED_EDGE('',*,*,#66,.T.);
#90=ORIENTED_EDGE('',*,*,#60,.T.);
#91=ORIENTED_EDGE('',*,*,#67,.T.);
#92=(
BOUNDED_SURFACE()
B_SPLINE_SURFACE(2,2,((#147,#148,#149,#150,#151),(#152,#153,#154,#155,#156),
(#157,#158,#159,#160,#161)),.UNSPECIFIED.,.F.,.F.,.F.)
B_SPLINE_SURFACE_WITH_KNOTS((3,3),(3,2,3),(-1.18422839688745,-0.539264760647859),
(-2.58595170745,-1.57080141445159,-0.555651121453186),.UNSPECIFIED.)
GEOMETRIC_REPRESENTATION_ITEM()
RATIONAL_B_SPLINE_SURFACE(((1.,0.873925698961513,1.,0.873925698961513,1.),
(0.948451798524994,0.828876400957259,0.948451798524994,0.828876400957259,
0.948451798524994),(1.,0.873925698961513,1.,0.873925698961513,1.)))
REPRESENTATION_ITEM('')
SURFACE()
);
#93=ADVANCED_FACE('',(#32),#92,.F.);
#94=ADVANCED_FACE('',(#33),#29,.T.);
#95=ADVANCED_FACE('',(#34),#30,.T.);
#96=ADVANCED_FACE('',(#35),#15,.T.);
#97=ADVANCED_FACE('',(#36),#16,.T.);
#98=ADVANCED_FACE('',(#37),#31,.T.);
#99=CLOSED_SHELL('',(#93,#94,#95,#96,#97,#98));
#100=DERIVED_UNIT_ELEMENT(#102,1.);
#101=DERIVED_UNIT_ELEMENT(#373,-3.);
#102=(
MASS_UNIT()
NAMED_UNIT(*)
SI_UNIT(.KILO.,.GRAM.)
);
#103=DERIVED_UNIT((#100,#101));
#104=MEASURE_REPRESENTATION_ITEM('density measure',
POSITIVE_RATIO_MEASURE(7850.),#103);
#105=PROPERTY_DEFINITION_REPRESENTATION(#110,#107);
#106=PROPERTY_DEFINITION_REPRESENTATION(#111,#108);
#107=REPRESENTATION('material name',(#109),#371);
#108=REPRESENTATION('density',(#104),#371);
#109=DESCRIPTIVE_REPRESENTATION_ITEM('Steel','Steel');
#110=PROPERTY_DEFINITION('material property','material name',#380);
#111=PROPERTY_DEFINITION('material property','density of part',#380);
#112=AXIS2_PLACEMENT_3D('',#146,#122,#123);
#113=AXIS2_PLACEMENT_3D('',#352,#124,#125);
#114=AXIS2_PLACEMENT_3D('',#356,#127,#128);
#115=AXIS2_PLACEMENT_3D('',#357,#129,#130);
#116=AXIS2_PLACEMENT_3D('',#358,#131,#132);
#117=AXIS2_PLACEMENT_3D('',#362,#134,#135);
#118=AXIS2_PLACEMENT_3D('',#363,#136,#137);
#119=AXIS2_PLACEMENT_3D('',#364,#138,#139);
#120=AXIS2_PLACEMENT_3D('',#366,#141,#142);
#121=AXIS2_PLACEMENT_3D('',#368,#144,#145);
#122=DIRECTION('axis',(0.,0.,1.));
#123=DIRECTION('refdir',(1.,0.,0.));
#124=DIRECTION('center_axis',(0.,1.,0.));
#125=DIRECTION('ref_axis',(0.,0.,1.));
#126=DIRECTION('',(0.,0.,1.));
#127=DIRECTION('center_axis',(0.,1.,0.));
#128=DIRECTION('ref_axis',(1.,0.,0.));
#129=DIRECTION('center_axis',(0.,1.,0.));
#130=DIRECTION('ref_axis',(1.,0.,0.));
#131=DIRECTION('center_axis',(0.,-1.,0.));
#132=DIRECTION('ref_axis',(0.,0.,-1.));
#133=DIRECTION('',(0.,0.,-1.));
#134=DIRECTION('center_axis',(0.,1.,0.));
#135=DIRECTION('ref_axis',(1.,0.,0.));
#136=DIRECTION('center_axis',(0.,1.,0.));
#137=DIRECTION('ref_axis',(1.,0.,0.));
#138=DIRECTION('center_axis',(0.,1.,0.));
#139=DIRECTION('ref_axis',(0.,0.,1.));
#140=DIRECTION('',(0.,0.848298241400469,-0.529518737758043));
#141=DIRECTION('center_axis',(0.,1.,0.));
#142=DIRECTION('ref_axis',(0.,0.,1.));
#143=DIRECTION('',(0.,-0.848298241400469,-0.529518737758043));
#144=DIRECTION('center_axis',(1.,0.,0.));
#145=DIRECTION('ref_axis',(0.,0.,-1.));
#146=CARTESIAN_POINT('',(0.,0.,0.));
#147=CARTESIAN_POINT('Ctrl Pts',(-0.873409104918981,-0.588634289323796,
0.94804374009073));
#148=CARTESIAN_POINT('Ctrl Pts',(-0.873409104918981,-1.1159167586664,0.620657430272709));
#149=CARTESIAN_POINT('Ctrl Pts',(-0.873409104918981,-1.11591991632945,5.67741743689876E-6));
#150=CARTESIAN_POINT('Ctrl Pts',(-0.873409104918981,-1.11592307399249,-0.620646075437836));
#151=CARTESIAN_POINT('Ctrl Pts',(-0.873409104918981,-0.588643935935492,
-0.948037750503282));
#152=CARTESIAN_POINT('Ctrl Pts',(-0.611608097952118,-0.927898149741795,
1.49445597760714));
#153=CARTESIAN_POINT('Ctrl Pts',(-0.611608097952118,-1.75908389030804,0.978378072122041));
#154=CARTESIAN_POINT('Ctrl Pts',(-0.611608097952118,-1.75908886791426,8.94964026146343E-6));
#155=CARTESIAN_POINT('Ctrl Pts',(-0.611608097952118,-1.75909384552048,-0.978360172841519));
#156=CARTESIAN_POINT('Ctrl Pts',(-0.611608097952118,-0.927913356251687,
-1.4944465358753));
#157=CARTESIAN_POINT('Ctrl Pts',(-0.0157437712228941,-1.11599162747821,
1.79739593090948));
#158=CARTESIAN_POINT('Ctrl Pts',(-0.0157437712228941,-2.11566635213343,
1.17670429378516));
#159=CARTESIAN_POINT('Ctrl Pts',(-0.0157437712228941,-2.11567233874615,
1.07638145452865E-5));
#160=CARTESIAN_POINT('Ctrl Pts',(-0.0157437712228941,-2.11567832535887,
-1.17668276615607));
#161=CARTESIAN_POINT('Ctrl Pts',(-0.0157437712228941,-1.11600991648734,
-1.79738457525188));
#162=CARTESIAN_POINT('',(-0.0157437712228955,-1.14091991634389,1.78167651091361));
#163=CARTESIAN_POINT('',(-0.015801185542381,-1.14091991634389,-1.78163570990396));
#164=CARTESIAN_POINT('Ctrl Pts',(-0.0157437712228951,-1.14091991634389,
1.78167651091361));
#165=CARTESIAN_POINT('Ctrl Pts',(-0.0346841228324515,-1.14091991634389,
1.76821724378898));
#166=CARTESIAN_POINT('Ctrl Pts',(-0.0530679515995182,-1.14091991634389,
1.75462079259068));
#167=CARTESIAN_POINT('Ctrl Pts',(-0.0919491250668364,-1.14091991634389,
1.72479554147362));
#168=CARTESIAN_POINT('Ctrl Pts',(-0.113231319335566,-1.14091991634389,1.70775293229027));
#169=CARTESIAN_POINT('Ctrl Pts',(-0.15571518300619,-1.14091991634389,1.67213379432752));
#170=CARTESIAN_POINT('Ctrl Pts',(-0.176916788950643,-1.14091991634389,1.65355718986085));
#171=CARTESIAN_POINT('Ctrl Pts',(-0.218897452358884,-1.14091991634389,1.61504205099863));
#172=CARTESIAN_POINT('Ctrl Pts',(-0.23967695504649,-1.14091991634389,1.59510303598815));
#173=CARTESIAN_POINT('Ctrl Pts',(-0.280511840655418,-1.14091991634389,1.55407736677952));
#174=CARTESIAN_POINT('Ctrl Pts',(-0.300567214281564,-1.14091991634389,1.5329907033294));
#175=CARTESIAN_POINT('Ctrl Pts',(-0.339693594498205,-1.14091991634389,1.48992700737443));
#176=CARTESIAN_POINT('Ctrl Pts',(-0.35876852839171,-1.14091991634389,1.46794568999448));
#177=CARTESIAN_POINT('Ctrl Pts',(-0.395724686623771,-1.14091991634389,1.42338003553367));
#178=CARTESIAN_POINT('Ctrl Pts',(-0.413605958055055,-1.14091991634389,1.40079573750458));
#179=CARTESIAN_POINT('Ctrl Pts',(-0.448002439955964,-1.14091991634389,1.35535722926159));
#180=CARTESIAN_POINT('Ctrl Pts',(-0.464518096999213,-1.14091991634389,1.33250260223766));
#181=CARTESIAN_POINT('Ctrl Pts',(-0.496056152805958,-1.14091991634389,1.28688900671144));
#182=CARTESIAN_POINT('Ctrl Pts',(-0.511078677085352,-1.14091991634389,1.26413012499319));
#183=CARTESIAN_POINT('Ctrl Pts',(-0.542727645964845,-1.14091991634389,1.21407044321894));
#184=CARTESIAN_POINT('Ctrl Pts',(-0.560309469267962,-1.14091991634389,1.18474129278341));
#185=CARTESIAN_POINT('Ctrl Pts',(-0.594649004026719,-1.14091991634389,1.12379954212635));
#186=CARTESIAN_POINT('Ctrl Pts',(-0.611406048343042,-1.14091991634389,1.09218656598671));
#187=CARTESIAN_POINT('Ctrl Pts',(-0.643228923404548,-1.14091991634389,1.02812171848462));
#188=CARTESIAN_POINT('Ctrl Pts',(-0.658297066097744,-1.14091991634389,0.995666372728937));
#189=CARTESIAN_POINT('Ctrl Pts',(-0.68618198713285,-1.14091991634389,0.931503694783986));
#190=CARTESIAN_POINT('Ctrl Pts',(-0.699000313722612,-1.14091991634389,0.899797035470026));
#191=CARTESIAN_POINT('Ctrl Pts',(-0.722897731922902,-1.14091991634389,0.836749632352201));
#192=CARTESIAN_POINT('Ctrl Pts',(-0.734736048389894,-1.14091991634389,0.803130573858848));
#193=CARTESIAN_POINT('Ctrl Pts',(-0.757089120948057,-1.14091991634389,0.734210201698682));
#194=CARTESIAN_POINT('Ctrl Pts',(-0.767603885870204,-1.14091991634389,0.698908890896037));
#195=CARTESIAN_POINT('Ctrl Pts',(-0.787088996932105,-1.14091991634389,0.627062230070295));
#196=CARTESIAN_POINT('Ctrl Pts',(-0.796059770609232,-1.14091991634389,0.590515908152907));
#197=CARTESIAN_POINT('Ctrl Pts',(-0.812322038662284,-1.14091991634389,0.516638349579642));
#198=CARTESIAN_POINT('Ctrl Pts',(-0.819613815937416,-1.14091991634389,0.479307175197124));
#199=CARTESIAN_POINT('Ctrl Pts',(-0.832462747491724,-1.14091991634389,0.40433867181685));
#200=CARTESIAN_POINT('Ctrl Pts',(-0.838021517874307,-1.14091991634389,0.366694248228568));
#201=CARTESIAN_POINT('Ctrl Pts',(-0.847420824436497,-1.14091991634389,0.291571460274795));
#202=CARTESIAN_POINT('Ctrl Pts',(-0.851261713366571,-1.14091991634389,0.254093140045597));
#203=CARTESIAN_POINT('Ctrl Pts',(-0.857298699909845,-1.14091991634389,0.17979650481386));
#204=CARTESIAN_POINT('Ctrl Pts',(-0.859495084775153,-1.14091991634389,0.142977649681662));
#205=CARTESIAN_POINT('Ctrl Pts',(-0.862367007597574,-1.14091991634389,0.0704965171764662));
#206=CARTESIAN_POINT('Ctrl Pts',(-0.863042621698054,-1.14091991634389,0.0348342428205198));
#207=CARTESIAN_POINT('Ctrl Pts',(-0.863042621698054,-1.14091991634389,0.));
#208=CARTESIAN_POINT('Ctrl Pts',(-0.863042621698054,-1.14091991634389,-0.0348342428205196));
#209=CARTESIAN_POINT('Ctrl Pts',(-0.862367007597574,-1.14091991634389,-0.0704965171764658));
#210=CARTESIAN_POINT('Ctrl Pts',(-0.859495084775153,-1.14091991634389,-0.142977649681662));
#211=CARTESIAN_POINT('Ctrl Pts',(-0.857298699909846,-1.14091991634389,-0.179796504813861));
#212=CARTESIAN_POINT('Ctrl Pts',(-0.851261713366571,-1.14091991634389,-0.254093140045598));
#213=CARTESIAN_POINT('Ctrl Pts',(-0.847420824436497,-1.14091991634389,-0.291571460274796));
#214=CARTESIAN_POINT('Ctrl Pts',(-0.838021517874307,-1.14091991634389,-0.366694248228569));
#215=CARTESIAN_POINT('Ctrl Pts',(-0.832462747491724,-1.14091991634389,-0.40433867181685));
#216=CARTESIAN_POINT('Ctrl Pts',(-0.819613815937416,-1.14091991634389,-0.479307175197124));
#217=CARTESIAN_POINT('Ctrl Pts',(-0.812322038662285,-1.14091991634389,-0.516638349579642));
#218=CARTESIAN_POINT('Ctrl Pts',(-0.796059770609232,-1.14091991634389,-0.590515908152906));
#219=CARTESIAN_POINT('Ctrl Pts',(-0.787088996932105,-1.14091991634389,-0.627062230070294));
#220=CARTESIAN_POINT('Ctrl Pts',(-0.767603885870204,-1.14091991634389,-0.698908890896037));
#221=CARTESIAN_POINT('Ctrl Pts',(-0.757089120948056,-1.14091991634389,-0.734210201698682));
#222=CARTESIAN_POINT('Ctrl Pts',(-0.734736048389893,-1.14091991634389,-0.803130573858848));
#223=CARTESIAN_POINT('Ctrl Pts',(-0.722897731922902,-1.14091991634389,-0.836749632352202));
#224=CARTESIAN_POINT('Ctrl Pts',(-0.699000313722612,-1.14091991634389,-0.899797035470026));
#225=CARTESIAN_POINT('Ctrl Pts',(-0.68618198713285,-1.14091991634389,-0.931503694783986));
#226=CARTESIAN_POINT('Ctrl Pts',(-0.658297066097744,-1.14091991634389,-0.995666372728937));
#227=CARTESIAN_POINT('Ctrl Pts',(-0.643228923404548,-1.14091991634389,-1.02812171848462));
#228=CARTESIAN_POINT('Ctrl Pts',(-0.611406048343041,-1.14091991634389,-1.09218656598672));
#229=CARTESIAN_POINT('Ctrl Pts',(-0.594649004026719,-1.14091991634389,-1.12379954212635));
#230=CARTESIAN_POINT('Ctrl Pts',(-0.560309469267962,-1.14091991634389,-1.18474129278342));
#231=CARTESIAN_POINT('Ctrl Pts',(-0.542727645964845,-1.14091991634389,-1.21407044321894));
#232=CARTESIAN_POINT('Ctrl Pts',(-0.511078677085352,-1.14091991634389,-1.26413012499319));
#233=CARTESIAN_POINT('Ctrl Pts',(-0.496056152805959,-1.14091991634389,-1.28688900671144));
#234=CARTESIAN_POINT('Ctrl Pts',(-0.464518096999213,-1.14091991634389,-1.33250260223766));
#235=CARTESIAN_POINT('Ctrl Pts',(-0.448002439955965,-1.14091991634389,-1.35535722926159));
#236=CARTESIAN_POINT('Ctrl Pts',(-0.413605958055056,-1.14091991634389,-1.40079573750458));
#237=CARTESIAN_POINT('Ctrl Pts',(-0.395724686623771,-1.14091991634389,-1.42338003553367));
#238=CARTESIAN_POINT('Ctrl Pts',(-0.35876852839171,-1.14091991634389,-1.46794568999448));
#239=CARTESIAN_POINT('Ctrl Pts',(-0.339693594498206,-1.14091991634389,-1.48992700737443));
#240=CARTESIAN_POINT('Ctrl Pts',(-0.300567214281565,-1.14091991634389,-1.5329907033294));
#241=CARTESIAN_POINT('Ctrl Pts',(-0.280511840655419,-1.14091991634389,-1.55407736677952));
#242=CARTESIAN_POINT('Ctrl Pts',(-0.239676955046491,-1.14091991634389,-1.59510303598815));
#243=CARTESIAN_POINT('Ctrl Pts',(-0.218897452358884,-1.14091991634389,-1.61504205099863));
#244=CARTESIAN_POINT('Ctrl Pts',(-0.176916788950643,-1.14091991634389,-1.65355718986086));
#245=CARTESIAN_POINT('Ctrl Pts',(-0.15571518300619,-1.14091991634389,-1.67213379432751));
#246=CARTESIAN_POINT('Ctrl Pts',(-0.113231319335566,-1.14091991634389,-1.70775293229027));
#247=CARTESIAN_POINT('Ctrl Pts',(-0.0919491250668365,-1.14091991634389,
-1.72479554147362));
#248=CARTESIAN_POINT('Ctrl Pts',(-0.0530858851994096,-1.14091991634389,
-1.75460703595547));
#249=CARTESIAN_POINT('Ctrl Pts',(-0.0347212764143123,-1.14091991634389,
-1.76818976835037));
#250=CARTESIAN_POINT('Ctrl Pts',(-0.0158011855423811,-1.14091991634389,
-1.78163570990396));
#251=CARTESIAN_POINT('',(-0.0159709132355161,-1.11591991634389,1.79728043425354));
#252=CARTESIAN_POINT('Ctrl Pts',(-0.0159709132355163,-1.11591991634389,
1.79728043425354));
#253=CARTESIAN_POINT('Ctrl Pts',(-0.0160109687848321,-1.1242534724514,1.79207795938409));
#254=CARTESIAN_POINT('Ctrl Pts',(-0.0159352507054697,-1.13258694549319,
1.78687657018477));
#255=CARTESIAN_POINT('Ctrl Pts',(-0.0157437712228942,-1.14091991634389,
1.78167651091361));
#256=CARTESIAN_POINT('',(-0.0160288277283001,-1.11591991634389,-1.79723962593986));
#257=CARTESIAN_POINT('Ctrl Pts',(-0.0160288277283003,-1.11591991634389,
-1.79723962593986));
#258=CARTESIAN_POINT('Ctrl Pts',(-0.0179828947267016,-1.11591991634389,
-1.79586267579069));
#259=CARTESIAN_POINT('Ctrl Pts',(-0.0199313424083107,-1.11591991634389,
-1.79448410879737));
#260=CARTESIAN_POINT('Ctrl Pts',(-0.0424854889347306,-1.11591991634389,
-1.77846228186501));
#261=CARTESIAN_POINT('Ctrl Pts',(-0.0624532594300608,-1.11591991634389,
-1.76365023008278));
#262=CARTESIAN_POINT('Ctrl Pts',(-0.102918432272346,-1.11591991634389,-1.73242938939613));
#263=CARTESIAN_POINT('Ctrl Pts',(-0.124306081972258,-1.11591991634389,-1.71520246596479));
#264=CARTESIAN_POINT('Ctrl Pts',(-0.166994168217902,-1.11591991634389,-1.67920229974196));
#265=CARTESIAN_POINT('Ctrl Pts',(-0.188294540390951,-1.11591991634389,-1.66042898061903));
#266=CARTESIAN_POINT('Ctrl Pts',(-0.230463759946398,-1.11591991634389,-1.62151016361671));
#267=CARTESIAN_POINT('Ctrl Pts',(-0.25133305573308,-1.11591991634389,-1.60136417837174));
#268=CARTESIAN_POINT('Ctrl Pts',(-0.292336748055994,-1.11591991634389,-1.55991672214612));
#269=CARTESIAN_POINT('Ctrl Pts',(-0.312471134770009,-1.11591991634389,-1.53861524144842));
#270=CARTESIAN_POINT('Ctrl Pts',(-0.351743464570483,-1.11591991634389,-1.49511673150795));
#271=CARTESIAN_POINT('Ctrl Pts',(-0.370885366475673,-1.11591991634389,-1.47291535435199));
#272=CARTESIAN_POINT('Ctrl Pts',(-0.407962669306365,-1.11591991634389,-1.42790717165659));
#273=CARTESIAN_POINT('Ctrl Pts',(-0.42589811726731,-1.11591991634389,-1.4051004048645));
#274=CARTESIAN_POINT('Ctrl Pts',(-0.460389944981715,-1.11591991634389,-1.35921766536696));
#275=CARTESIAN_POINT('Ctrl Pts',(-0.476946774671614,-1.11591991634389,-1.33614126844415));
#276=CARTESIAN_POINT('Ctrl Pts',(-0.508554527585423,-1.11591991634389,-1.29008813351837));
#277=CARTESIAN_POINT('Ctrl Pts',(-0.523605577420808,-1.11591991634389,-1.26711148241307));
#278=CARTESIAN_POINT('Ctrl Pts',(-0.555247754754398,-1.11591991634389,-1.21666703169298));
#279=CARTESIAN_POINT('Ctrl Pts',(-0.572795029117193,-1.11591991634389,-1.18715982814969));
#280=CARTESIAN_POINT('Ctrl Pts',(-0.607055478984496,-1.11591991634389,-1.12585650033287));
#281=CARTESIAN_POINT('Ctrl Pts',(-0.623767980125238,-1.11591991634389,-1.09405999918163));
#282=CARTESIAN_POINT('Ctrl Pts',(-0.655493613132968,-1.11591991634389,-1.02963136107025));
#283=CARTESIAN_POINT('Ctrl Pts',(-0.670509052043177,-1.11591991634389,-0.996995732770521));
#284=CARTESIAN_POINT('Ctrl Pts',(-0.69828391456724,-1.11591991634389,-0.932483966845482));
#285=CARTESIAN_POINT('Ctrl Pts',(-0.711044901721628,-1.11591991634389,-0.900608502397336));
#286=CARTESIAN_POINT('Ctrl Pts',(-0.734778366940954,-1.11591991634389,-0.837353240657786));
#287=CARTESIAN_POINT('Ctrl Pts',(-0.746510597245806,-1.11591991634389,-0.803687912104195));
#288=CARTESIAN_POINT('Ctrl Pts',(-0.768655869229401,-1.11591991634389,-0.734680300624073));
#289=CARTESIAN_POINT('Ctrl Pts',(-0.779068915631524,-1.11591991634389,-0.699338019213325));
#290=CARTESIAN_POINT('Ctrl Pts',(-0.798358214543996,-1.11591991634389,-0.627415031096692));
#291=CARTESIAN_POINT('Ctrl Pts',(-0.807234891442124,-1.11591991634389,-0.590833357122237));
#292=CARTESIAN_POINT('Ctrl Pts',(-0.823320089236131,-1.11591991634389,-0.516890839650446));
#293=CARTESIAN_POINT('Ctrl Pts',(-0.830528903009317,-1.11591991634389,-0.479530059864923));
#294=CARTESIAN_POINT('Ctrl Pts',(-0.84322661739946,-1.11591991634389,-0.404508022725635));
#295=CARTESIAN_POINT('Ctrl Pts',(-0.848717116946897,-1.11591991634389,-0.366839801644136));
#296=CARTESIAN_POINT('Ctrl Pts',(-0.857997790783414,-1.11591991634389,-0.291674925766941));
#297=CARTESIAN_POINT('Ctrl Pts',(-0.861788340499128,-1.11591991634389,-0.254178317325979));
#298=CARTESIAN_POINT('Ctrl Pts',(-0.867744764714504,-1.11591991634389,-0.179849954932996));
#299=CARTESIAN_POINT('Ctrl Pts',(-0.869910940005667,-1.11591991634389,-0.143017684807027));
#300=CARTESIAN_POINT('Ctrl Pts',(-0.872743071693669,-1.11591991634389,-0.0705137534528774));
#301=CARTESIAN_POINT('Ctrl Pts',(-0.873409104918981,-1.11591991634389,-0.0348420952257728));
#302=CARTESIAN_POINT('Ctrl Pts',(-0.873409104918981,-1.11591991634389,0.));
#303=CARTESIAN_POINT('Ctrl Pts',(-0.873409104918981,-1.11591991634389,0.0348420952257733));
#304=CARTESIAN_POINT('Ctrl Pts',(-0.872743071693669,-1.11591991634389,0.0705137534528785));
#305=CARTESIAN_POINT('Ctrl Pts',(-0.869910940005667,-1.11591991634389,0.143017684807029));
#306=CARTESIAN_POINT('Ctrl Pts',(-0.867744764714504,-1.11591991634389,0.179849954932997));
#307=CARTESIAN_POINT('Ctrl Pts',(-0.861788340499128,-1.11591991634389,0.25417831732598));
#308=CARTESIAN_POINT('Ctrl Pts',(-0.857997790783414,-1.11591991634389,0.291674925766941));
#309=CARTESIAN_POINT('Ctrl Pts',(-0.848717116946898,-1.11591991634389,0.366839801644136));
#310=CARTESIAN_POINT('Ctrl Pts',(-0.84322661739946,-1.11591991634389,0.404508022725634));
#311=CARTESIAN_POINT('Ctrl Pts',(-0.830528903009317,-1.11591991634389,0.479530059864921));
#312=CARTESIAN_POINT('Ctrl Pts',(-0.823320089236131,-1.11591991634389,0.516890839650444));
#313=CARTESIAN_POINT('Ctrl Pts',(-0.807234891442124,-1.11591991634389,0.590833357122236));
#314=CARTESIAN_POINT('Ctrl Pts',(-0.798358214543997,-1.11591991634389,0.627415031096691));
#315=CARTESIAN_POINT('Ctrl Pts',(-0.779068915631524,-1.11591991634389,0.699338019213325));
#316=CARTESIAN_POINT('Ctrl Pts',(-0.768655869229401,-1.11591991634389,0.734680300624074));
#317=CARTESIAN_POINT('Ctrl Pts',(-0.746510597245806,-1.11591991634389,0.803687912104196));
#318=CARTESIAN_POINT('Ctrl Pts',(-0.734778366940954,-1.11591991634389,0.837353240657786));
#319=CARTESIAN_POINT('Ctrl Pts',(-0.711044901721627,-1.11591991634389,0.900608502397336));
#320=CARTESIAN_POINT('Ctrl Pts',(-0.69828391456724,-1.11591991634389,0.932483966845482));
#321=CARTESIAN_POINT('Ctrl Pts',(-0.670509052043176,-1.11591991634389,0.996995732770522));
#322=CARTESIAN_POINT('Ctrl Pts',(-0.655493613132968,-1.11591991634389,1.02963136107025));
#323=CARTESIAN_POINT('Ctrl Pts',(-0.623767980125238,-1.11591991634389,1.09405999918163));
#324=CARTESIAN_POINT('Ctrl Pts',(-0.607055478984496,-1.11591991634389,1.12585650033287));
#325=CARTESIAN_POINT('Ctrl Pts',(-0.572795029117194,-1.11591991634389,1.18715982814969));
#326=CARTESIAN_POINT('Ctrl Pts',(-0.555247754754398,-1.11591991634389,1.21666703169298));
#327=CARTESIAN_POINT('Ctrl Pts',(-0.523605577420808,-1.11591991634389,1.26711148241307));
#328=CARTESIAN_POINT('Ctrl Pts',(-0.508554527585423,-1.11591991634389,1.29008813351837));
#329=CARTESIAN_POINT('Ctrl Pts',(-0.476946774671614,-1.11591991634389,1.33614126844415));
#330=CARTESIAN_POINT('Ctrl Pts',(-0.460389944981716,-1.11591991634389,1.35921766536695));
#331=CARTESIAN_POINT('Ctrl Pts',(-0.425898117267311,-1.11591991634389,1.4051004048645));
#332=CARTESIAN_POINT('Ctrl Pts',(-0.407962669306365,-1.11591991634389,1.42790717165659));
#333=CARTESIAN_POINT('Ctrl Pts',(-0.370885366475672,-1.11591991634389,1.47291535435199));
#334=CARTESIAN_POINT('Ctrl Pts',(-0.351743464570483,-1.11591991634389,1.49511673150795));
#335=CARTESIAN_POINT('Ctrl Pts',(-0.312471134770008,-1.11591991634389,1.53861524144842));
#336=CARTESIAN_POINT('Ctrl Pts',(-0.292336748055994,-1.11591991634389,1.55991672214612));
#337=CARTESIAN_POINT('Ctrl Pts',(-0.25133305573308,-1.11591991634389,1.60136417837174));
#338=CARTESIAN_POINT('Ctrl Pts',(-0.230463759946398,-1.11591991634389,1.62151016361671));
#339=CARTESIAN_POINT('Ctrl Pts',(-0.18829454039095,-1.11591991634389,1.66042898061903));
#340=CARTESIAN_POINT('Ctrl Pts',(-0.166994168217901,-1.11591991634389,1.67920229974196));
#341=CARTESIAN_POINT('Ctrl Pts',(-0.124306081972258,-1.11591991634389,1.71520246596479));
#342=CARTESIAN_POINT('Ctrl Pts',(-0.102918432272345,-1.11591991634389,1.73242938939613));
#343=CARTESIAN_POINT('Ctrl Pts',(-0.0624532594300608,-1.11591991634389,
1.76365023008278));
#344=CARTESIAN_POINT('Ctrl Pts',(-0.0424854889347302,-1.11591991634389,
1.77846228186501));
#345=CARTESIAN_POINT('Ctrl Pts',(-0.0199121500372681,-1.11591991634389,
1.79449774251421));
#346=CARTESIAN_POINT('Ctrl Pts',(-0.0179443966298293,-1.11591991634389,
1.79588991344538));
#347=CARTESIAN_POINT('Ctrl Pts',(-0.0159709132355163,-1.11591991634389,
1.79728043425354));
#348=CARTESIAN_POINT('Ctrl Pts',(-0.0158011855423816,-1.14091991634389,
-1.78163570990396));
#349=CARTESIAN_POINT('Ctrl Pts',(-0.0159928303711141,-1.13258694548856,
-1.78683576302459));
#350=CARTESIAN_POINT('Ctrl Pts',(-0.016068715165349,-1.12425347243922,-1.79203714979415));
#351=CARTESIAN_POINT('Ctrl Pts',(-0.0160288277283004,-1.11591991634389,
-1.79723962593986));
#352=CARTESIAN_POINT('Origin',(0.,-1.11591991634389,2.014636876982E-5));
#353=CARTESIAN_POINT('',(0.,-1.11591991634389,-1.79731110091906));
#354=CARTESIAN_POINT('',(0.,-1.11591991634389,1.7973513936566));
#355=CARTESIAN_POINT('',(0.,-1.11591991634389,2.01463687698744E-5));
#356=CARTESIAN_POINT('Origin',(0.,-1.11591991634389,2.014636876982E-5));
#357=CARTESIAN_POINT('Origin',(0.,-1.11591991634389,2.014636876982E-5));
#358=CARTESIAN_POINT('Origin',(0.,-1.14091991634389,1.7817460702009));
#359=CARTESIAN_POINT('',(0.,-1.14091991634389,1.7817460702009));
#360=CARTESIAN_POINT('',(0.,-1.14091991634389,-1.78170577746336));
#361=CARTESIAN_POINT('',(0.,-1.14091991634389,0.890883108284836));
#362=CARTESIAN_POINT('Origin',(0.,-1.14091991634389,2.014636876982E-5));
#363=CARTESIAN_POINT('Origin',(0.,-1.14091991634389,2.014636876982E-5));
#364=CARTESIAN_POINT('Origin',(0.,-1.12841991634389,2.014636876982E-5));
#365=CARTESIAN_POINT('',(0.,-1.12841991634389,-1.78950843919121));
#366=CARTESIAN_POINT('Origin',(0.,-1.12841991634389,2.014636876982E-5));
#367=CARTESIAN_POINT('',(0.,-1.12841991634389,1.78954873192875));
#368=CARTESIAN_POINT('Origin',(0.,-1.12841991100634,2.01463687699288E-5));
#369=UNCERTAINTY_MEASURE_WITH_UNIT(LENGTH_MEASURE(1.E-5),#373,
'DISTANCE_ACCURACY_VALUE',
'Maximum model space distance between geometric entities at asserted c
onnectivities');
#370=UNCERTAINTY_MEASURE_WITH_UNIT(LENGTH_MEASURE(1.E-5),#373,
'DISTANCE_ACCURACY_VALUE',
'Maximum model space distance between geometric entities at asserted c
onnectivities');
#371=(
GEOMETRIC_REPRESENTATION_CONTEXT(3)
GLOBAL_UNCERTAINTY_ASSIGNED_CONTEXT((#369))
GLOBAL_UNIT_ASSIGNED_CONTEXT((#373,#374,#375))
REPRESENTATION_CONTEXT('','3D')
);
#372=(
GEOMETRIC_REPRESENTATION_CONTEXT(3)
GLOBAL_UNCERTAINTY_ASSIGNED_CONTEXT((#370))
GLOBAL_UNIT_ASSIGNED_CONTEXT((#373,#374,#375))
REPRESENTATION_CONTEXT('','3D')
);
#373=(
LENGTH_UNIT()
NAMED_UNIT(*)
SI_UNIT($,.METRE.)
);
#374=(
NAMED_UNIT(*)
PLANE_ANGLE_UNIT()
SI_UNIT($,.RADIAN.)
);
#375=(
NAMED_UNIT(*)
SI_UNIT($,.STERADIAN.)
SOLID_ANGLE_UNIT()
);
#376=SHAPE_DEFINITION_REPRESENTATION(#377,#378);
#377=PRODUCT_DEFINITION_SHAPE('',$,#380);
#378=SHAPE_REPRESENTATION('',(#112),#371);
#379=PRODUCT_DEFINITION_CONTEXT('part definition',#384,'design');
#380=PRODUCT_DEFINITION('2025-11-04-08-29-01-320',
'Pressure Vessel End Cap Floor',#381,#379);
#381=PRODUCT_DEFINITION_FORMATION('',$,#386);
#382=PRODUCT_RELATED_PRODUCT_CATEGORY('Pressure Vessel End Cap Floor',
'Pressure Vessel End Cap Floor',(#386));
#383=APPLICATION_PROTOCOL_DEFINITION('international standard',
'automotive_design',2009,#384);
#384=APPLICATION_CONTEXT(
'Core Data for Automotive Mechanical Design Process');
#385=PRODUCT_CONTEXT('part definition',#384,'mechanical');
#386=PRODUCT('2025-11-04-08-29-01-320','Pressure Vessel End Cap Floor',
$,(#385));
#387=PRESENTATION_STYLE_ASSIGNMENT((#388));
#388=SURFACE_STYLE_USAGE(.BOTH.,#389);
#389=SURFACE_SIDE_STYLE('',(#390));
#390=SURFACE_STYLE_FILL_AREA(#391);
#391=FILL_AREA_STYLE('Steel - Satin',(#392));
#392=FILL_AREA_STYLE_COLOUR('Steel - Satin',#393);
#393=COLOUR_RGB('Steel - Satin',0.627450980392157,0.627450980392157,0.627450980392157);
ENDSEC;
END-ISO-10303-21;
