ISO-10303-21;
HEADER;
/* Generated by software containing ST-Developer
 * from STEP Tools, Inc. (www.steptools.com) 
 */

FILE_DESCRIPTION(
/* description */ (''),
/* implementation_level */ '2;1');

FILE_NAME(
/* name */ 'Pressure Vessel End Cap Wall.step',
/* time_stamp */ '2025-11-04T09:07:55-06:00',
/* author */ (''),
/* organization */ (''),
/* preprocessor_version */ 'ST-DEVELOPER v20.1',
/* originating_system */ 'Autodesk Translation Framework v14.17.0.0',
/* authorisation */ '');

FILE_SCHEMA (('AUTOMOTIVE_DESIGN { 1 0 10303 214 3 1 1 }'));
ENDSEC;

DATA;
#10=MECHANICAL_DESIGN_GEOMETRIC_PRESENTATION_REPRESENTATION('',(#13),#251);
#11=SHAPE_REPRESENTATION_RELATIONSHIP('SRR','None',#257,#12);
#12=ADVANCED_BREP_SHAPE_REPRESENTATION('',(#14),#250);
#13=STYLED_ITEM('',(#266),#14);
#14=MANIFOLD_SOLID_BREP('Body4',#147);
#15=PLANE('',#164);
#16=PLANE('',#165);
#17=PLANE('',#166);
#18=PLANE('',#167);
#19=PLANE('',#168);
#20=PLANE('',#169);
#21=PLANE('',#170);
#22=FACE_OUTER_BOUND('',#30,.T.);
#23=FACE_OUTER_BOUND('',#31,.T.);
#24=FACE_OUTER_BOUND('',#32,.T.);
#25=FACE_OUTER_BOUND('',#33,.T.);
#26=FACE_OUTER_BOUND('',#34,.T.);
#27=FACE_OUTER_BOUND('',#35,.T.);
#28=FACE_OUTER_BOUND('',#36,.T.);
#29=FACE_OUTER_BOUND('',#37,.T.);
#30=EDGE_LOOP('',(#102,#103,#104,#105));
#31=EDGE_LOOP('',(#106,#107,#108,#109));
#32=EDGE_LOOP('',(#110,#111,#112,#113));
#33=EDGE_LOOP('',(#114,#115,#116,#117));
#34=EDGE_LOOP('',(#118,#119,#120,#121));
#35=EDGE_LOOP('',(#122,#123,#124,#125));
#36=EDGE_LOOP('',(#126,#127,#128,#129,#130,#131));
#37=EDGE_LOOP('',(#132,#133,#134,#135,#136,#137));
#38=LINE('',#215,#54);
#39=LINE('',#218,#55);
#40=LINE('',#221,#56);
#41=LINE('',#223,#57);
#42=LINE('',#224,#58);
#43=LINE('',#227,#59);
#44=LINE('',#229,#60);
#45=LINE('',#230,#61);
#46=LINE('',#233,#62);
#47=LINE('',#235,#63);
#48=LINE('',#236,#64);
#49=LINE('',#239,#65);
#50=LINE('',#241,#66);
#51=LINE('',#242,#67);
#52=LINE('',#244,#68);
#53=LINE('',#245,#69);
#54=VECTOR('',#177,0.01);
#55=VECTOR('',#180,0.01);
#56=VECTOR('',#183,0.01);
#57=VECTOR('',#184,0.01);
#58=VECTOR('',#185,0.01);
#59=VECTOR('',#188,0.01);
#60=VECTOR('',#189,0.01);
#61=VECTOR('',#190,0.01);
#62=VECTOR('',#193,0.01);
#63=VECTOR('',#194,0.01);
#64=VECTOR('',#195,0.01);
#65=VECTOR('',#198,0.01);
#66=VECTOR('',#199,0.01);
#67=VECTOR('',#200,0.01);
#68=VECTOR('',#203,0.01);
#69=VECTOR('',#204,0.01);
#70=CIRCLE('',#162,2.117);
#71=CIRCLE('',#163,2.117);
#72=VERTEX_POINT('',#211);
#73=VERTEX_POINT('',#212);
#74=VERTEX_POINT('',#214);
#75=VERTEX_POINT('',#216);
#76=VERTEX_POINT('',#220);
#77=VERTEX_POINT('',#222);
#78=VERTEX_POINT('',#226);
#79=VERTEX_POINT('',#228);
#80=VERTEX_POINT('',#232);
#81=VERTEX_POINT('',#234);
#82=VERTEX_POINT('',#238);
#83=VERTEX_POINT('',#240);
#84=EDGE_CURVE('',#72,#73,#70,.T.);
#85=EDGE_CURVE('',#72,#74,#38,.T.);
#86=EDGE_CURVE('',#75,#74,#71,.T.);
#87=EDGE_CURVE('',#73,#75,#39,.T.);
#88=EDGE_CURVE('',#76,#73,#40,.T.);
#89=EDGE_CURVE('',#77,#75,#41,.T.);
#90=EDGE_CURVE('',#76,#77,#42,.T.);
#91=EDGE_CURVE('',#76,#78,#43,.T.);
#92=EDGE_CURVE('',#79,#77,#44,.T.);
#93=EDGE_CURVE('',#78,#79,#45,.T.);
#94=EDGE_CURVE('',#80,#78,#46,.T.);
#95=EDGE_CURVE('',#81,#79,#47,.T.);
#96=EDGE_CURVE('',#80,#81,#48,.T.);
#97=EDGE_CURVE('',#82,#80,#49,.T.);
#98=EDGE_CURVE('',#83,#81,#50,.T.);
#99=EDGE_CURVE('',#82,#83,#51,.T.);
#100=EDGE_CURVE('',#82,#72,#52,.T.);
#101=EDGE_CURVE('',#74,#83,#53,.T.);
#102=ORIENTED_EDGE('',*,*,#84,.F.);
#103=ORIENTED_EDGE('',*,*,#85,.T.);
#104=ORIENTED_EDGE('',*,*,#86,.F.);
#105=ORIENTED_EDGE('',*,*,#87,.F.);
#106=ORIENTED_EDGE('',*,*,#88,.T.);
#107=ORIENTED_EDGE('',*,*,#87,.T.);
#108=ORIENTED_EDGE('',*,*,#89,.F.);
#109=ORIENTED_EDGE('',*,*,#90,.F.);
#110=ORIENTED_EDGE('',*,*,#91,.F.);
#111=ORIENTED_EDGE('',*,*,#90,.T.);
#112=ORIENTED_EDGE('',*,*,#92,.F.);
#113=ORIENTED_EDGE('',*,*,#93,.F.);
#114=ORIENTED_EDGE('',*,*,#94,.T.);
#115=ORIENTED_EDGE('',*,*,#93,.T.);
#116=ORIENTED_EDGE('',*,*,#95,.F.);
#117=ORIENTED_EDGE('',*,*,#96,.F.);
#118=ORIENTED_EDGE('',*,*,#97,.T.);
#119=ORIENTED_EDGE('',*,*,#96,.T.);
#120=ORIENTED_EDGE('',*,*,#98,.F.);
#121=ORIENTED_EDGE('',*,*,#99,.F.);
#122=ORIENTED_EDGE('',*,*,#100,.F.);
#123=ORIENTED_EDGE('',*,*,#99,.T.);
#124=ORIENTED_EDGE('',*,*,#101,.F.);
#125=ORIENTED_EDGE('',*,*,#85,.F.);
#126=ORIENTED_EDGE('',*,*,#100,.T.);
#127=ORIENTED_EDGE('',*,*,#84,.T.);
#128=ORIENTED_EDGE('',*,*,#88,.F.);
#129=ORIENTED_EDGE('',*,*,#91,.T.);
#130=ORIENTED_EDGE('',*,*,#94,.F.);
#131=ORIENTED_EDGE('',*,*,#97,.F.);
#132=ORIENTED_EDGE('',*,*,#101,.T.);
#133=ORIENTED_EDGE('',*,*,#98,.T.);
#134=ORIENTED_EDGE('',*,*,#95,.T.);
#135=ORIENTED_EDGE('',*,*,#92,.T.);
#136=ORIENTED_EDGE('',*,*,#89,.T.);
#137=ORIENTED_EDGE('',*,*,#86,.T.);
#138=CYLINDRICAL_SURFACE('',#161,2.117);
#139=ADVANCED_FACE('',(#22),#138,.T.);
#140=ADVANCED_FACE('',(#23),#15,.T.);
#141=ADVANCED_FACE('',(#24),#16,.T.);
#142=ADVANCED_FACE('',(#25),#17,.T.);
#143=ADVANCED_FACE('',(#26),#18,.T.);
#144=ADVANCED_FACE('',(#27),#19,.T.);
#145=ADVANCED_FACE('',(#28),#20,.T.);
#146=ADVANCED_FACE('',(#29),#21,.F.);
#147=CLOSED_SHELL('',(#139,#140,#141,#142,#143,#144,#145,#146));
#148=DERIVED_UNIT_ELEMENT(#150,1.);
#149=DERIVED_UNIT_ELEMENT(#252,-3.);
#150=(
MASS_UNIT()
NAMED_UNIT(*)
SI_UNIT(.KILO.,.GRAM.)
);
#151=DERIVED_UNIT((#148,#149));
#152=MEASURE_REPRESENTATION_ITEM('density measure',
POSITIVE_RATIO_MEASURE(7850.),#151);
#153=PROPERTY_DEFINITION_REPRESENTATION(#158,#155);
#154=PROPERTY_DEFINITION_REPRESENTATION(#159,#156);
#155=REPRESENTATION('material name',(#157),#250);
#156=REPRESENTATION('density',(#152),#250);
#157=DESCRIPTIVE_REPRESENTATION_ITEM('Steel','Steel');
#158=PROPERTY_DEFINITION('material property','material name',#259);
#159=PROPERTY_DEFINITION('material property','density of part',#259);
#160=AXIS2_PLACEMENT_3D('',#209,#171,#172);
#161=AXIS2_PLACEMENT_3D('',#210,#173,#174);
#162=AXIS2_PLACEMENT_3D('',#213,#175,#176);
#163=AXIS2_PLACEMENT_3D('',#217,#178,#179);
#164=AXIS2_PLACEMENT_3D('',#219,#181,#182);
#165=AXIS2_PLACEMENT_3D('',#225,#186,#187);
#166=AXIS2_PLACEMENT_3D('',#231,#191,#192);
#167=AXIS2_PLACEMENT_3D('',#237,#196,#197);
#168=AXIS2_PLACEMENT_3D('',#243,#201,#202);
#169=AXIS2_PLACEMENT_3D('',#246,#205,#206);
#170=AXIS2_PLACEMENT_3D('',#247,#207,#208);
#171=DIRECTION('axis',(0.,0.,1.));
#172=DIRECTION('refdir',(1.,0.,0.));
#173=DIRECTION('center_axis',(-1.,0.,0.));
#174=DIRECTION('ref_axis',(0.,1.,0.));
#175=DIRECTION('center_axis',(1.,0.,0.));
#176=DIRECTION('ref_axis',(0.,1.,0.));
#177=DIRECTION('',(-1.,0.,0.));
#178=DIRECTION('center_axis',(-1.,0.,0.));
#179=DIRECTION('ref_axis',(0.,1.,0.));
#180=DIRECTION('',(-1.,0.,0.));
#181=DIRECTION('center_axis',(0.,-1.,7.89933229437113E-17));
#182=DIRECTION('ref_axis',(0.,7.89933229437113E-17,1.));
#183=DIRECTION('',(0.,7.89933229437113E-17,1.));
#184=DIRECTION('',(0.,7.89933229437113E-17,1.));
#185=DIRECTION('',(-1.,0.,0.));
#186=DIRECTION('center_axis',(0.,0.,-1.));
#187=DIRECTION('ref_axis',(0.,-1.,0.));
#188=DIRECTION('',(0.,1.,0.));
#189=DIRECTION('',(0.,-1.,0.));
#190=DIRECTION('',(-1.,0.,0.));
#191=DIRECTION('center_axis',(0.,-1.,0.));
#192=DIRECTION('ref_axis',(0.,0.,1.));
#193=DIRECTION('',(0.,0.,1.));
#194=DIRECTION('',(0.,0.,1.));
#195=DIRECTION('',(-1.,0.,0.));
#196=DIRECTION('center_axis',(0.,-0.000125598889170079,0.99999999211246));
#197=DIRECTION('ref_axis',(0.,0.99999999211246,0.000125598889170079));
#198=DIRECTION('',(0.,0.99999999211246,0.000125598889170079));
#199=DIRECTION('',(0.,0.99999999211246,0.000125598889170079));
#200=DIRECTION('',(-1.,0.,0.));
#201=DIRECTION('center_axis',(0.,-0.999999992112459,-0.000125598889170043));
#202=DIRECTION('ref_axis',(0.,-0.000125598889170043,0.99999999211246));
#203=DIRECTION('',(0.,0.000125598889170043,-0.99999999211246));
#204=DIRECTION('',(0.,-0.000125598889170043,0.99999999211246));
#205=DIRECTION('center_axis',(1.,0.,0.));
#206=DIRECTION('ref_axis',(0.,1.,0.));
#207=DIRECTION('center_axis',(1.,0.,0.));
#208=DIRECTION('ref_axis',(0.,1.,0.));
#209=CARTESIAN_POINT('',(0.,0.,0.));
#210=CARTESIAN_POINT('Origin',(0.,0.,0.));
#211=CARTESIAN_POINT('',(0.,-1.11570764703659,-1.7991346381925));
#212=CARTESIAN_POINT('',(0.,-1.1159337250371,1.79899441948129));
#213=CARTESIAN_POINT('Origin',(0.,0.,0.));
#214=CARTESIAN_POINT('',(-0.008,-1.11570764703659,-1.7991346381925));
#215=CARTESIAN_POINT('',(0.,-1.11570764703659,-1.7991346381925));
#216=CARTESIAN_POINT('',(-0.008,-1.1159337250371,1.79899441948129));
#217=CARTESIAN_POINT('Origin',(-0.008,0.,0.));
#218=CARTESIAN_POINT('',(0.,-1.1159337250371,1.79899441948129));
#219=CARTESIAN_POINT('Origin',(0.,-1.1159337250371,0.75));
#220=CARTESIAN_POINT('',(0.,-1.1159337250371,0.75));
#221=CARTESIAN_POINT('',(0.,-1.1159337250371,0.));
#222=CARTESIAN_POINT('',(-0.008,-1.1159337250371,0.75));
#223=CARTESIAN_POINT('',(-0.008,-1.1159337250371,0.));
#224=CARTESIAN_POINT('',(0.,-1.1159337250371,0.75));
#225=CARTESIAN_POINT('Origin',(0.,0.884066274962903,0.75));
#226=CARTESIAN_POINT('',(0.,0.884066274962903,0.75));
#227=CARTESIAN_POINT('',(0.,-1.1159337250371,0.75));
#228=CARTESIAN_POINT('',(-0.008,0.884066274962903,0.75));
#229=CARTESIAN_POINT('',(-0.008,-1.1159337250371,0.75));
#230=CARTESIAN_POINT('',(0.,0.884066274962903,0.75));
#231=CARTESIAN_POINT('Origin',(0.,0.884066274962903,-0.749832534813559));
#232=CARTESIAN_POINT('',(0.,0.884066274962903,-0.749832534813559));
#233=CARTESIAN_POINT('',(0.,0.884066274962903,0.));
#234=CARTESIAN_POINT('',(-0.008,0.884066274962903,-0.749832534813559));
#235=CARTESIAN_POINT('',(-0.008,0.884066274962903,0.));
#236=CARTESIAN_POINT('',(0.,0.884066274962903,-0.749832534813559));
#237=CARTESIAN_POINT('Origin',(0.,-1.11583940666754,-0.750083720747598));
#238=CARTESIAN_POINT('',(0.,-1.11583940666754,-0.750083720747598));
#239=CARTESIAN_POINT('',(0.,-1.1159337250371,-0.750083732593881));
#240=CARTESIAN_POINT('',(-0.008,-1.11583940666754,-0.750083720747598));
#241=CARTESIAN_POINT('',(-0.008,-1.1159337250371,-0.750083732593881));
#242=CARTESIAN_POINT('',(0.,-1.11583940666754,-0.750083720747598));
#243=CARTESIAN_POINT('Origin',(0.,-1.11570764703659,-1.7991346381925));
#244=CARTESIAN_POINT('',(0.,-1.1159337250371,0.000865347609922536));
#245=CARTESIAN_POINT('',(-0.008,-1.1159337250371,0.000865347609922536));
#246=CARTESIAN_POINT('Origin',(0.,0.500533137481451,0.));
#247=CARTESIAN_POINT('Origin',(-0.008,0.500533137481451,0.));
#248=UNCERTAINTY_MEASURE_WITH_UNIT(LENGTH_MEASURE(1.E-5),#252,
'DISTANCE_ACCURACY_VALUE',
'Maximum model space distance between geometric entities at asserted c
onnectivities');
#249=UNCERTAINTY_MEASURE_WITH_UNIT(LENGTH_MEASURE(1.E-5),#252,
'DISTANCE_ACCURACY_VALUE',
'Maximum model space distance between geometric entities at asserted c
onnectivities');
#250=(
GEOMETRIC_REPRESENTATION_CONTEXT(3)
GLOBAL_UNCERTAINTY_ASSIGNED_CONTEXT((#248))
GLOBAL_UNIT_ASSIGNED_CONTEXT((#252,#253,#254))
REPRESENTATION_CONTEXT('','3D')
);
#251=(
GEOMETRIC_REPRESENTATION_CONTEXT(3)
GLOBAL_UNCERTAINTY_ASSIGNED_CONTEXT((#249))
GLOBAL_UNIT_ASSIGNED_CONTEXT((#252,#253,#254))
REPRESENTATION_CONTEXT('','3D')
);
#252=(
LENGTH_UNIT()
NAMED_UNIT(*)
SI_UNIT($,.METRE.)
);
#253=(
NAMED_UNIT(*)
PLANE_ANGLE_UNIT()
SI_UNIT($,.RADIAN.)
);
#254=(
NAMED_UNIT(*)
SI_UNIT($,.STERADIAN.)
SOLID_ANGLE_UNIT()
);
#255=SHAPE_DEFINITION_REPRESENTATION(#256,#257);
#256=PRODUCT_DEFINITION_SHAPE('',$,#259);
#257=SHAPE_REPRESENTATION('',(#160),#250);
#258=PRODUCT_DEFINITION_CONTEXT('part definition',#263,'design');
#259=PRODUCT_DEFINITION('2025-11-04-08-29-01-320',
'Pressure Vessel End Cap Wall',#260,#258);
#260=PRODUCT_DEFINITION_FORMATION('',$,#265);
#261=PRODUCT_RELATED_PRODUCT_CATEGORY('Pressure Vessel End Cap Wall',
'Pressure Vessel End Cap Wall',(#265));
#262=APPLICATION_PROTOCOL_DEFINITION('international standard',
'automotive_design',2009,#263);
#263=APPLICATION_CONTEXT(
'Core Data for Automotive Mechanical Design Process');
#264=PRODUCT_CONTEXT('part definition',#263,'mechanical');
#265=PRODUCT('2025-11-04-08-29-01-320','Pressure Vessel End Cap Wall',$,
(#264));
#266=PRESENTATION_STYLE_ASSIGNMENT((#267));
#267=SURFACE_STYLE_USAGE(.BOTH.,#268);
#268=SURFACE_SIDE_STYLE('',(#269));
#269=SURFACE_STYLE_FILL_AREA(#270);
#270=FILL_AREA_STYLE('Steel - Satin',(#271));
#271=FILL_AREA_STYLE_COLOUR('Steel - Satin',#272);
#272=COLOUR_RGB('Steel - Satin',0.627450980392157,0.627450980392157,0.627450980392157);
ENDSEC;
END-ISO-10303-21;
