ISO-10303-21;
HEADER;
/* Generated by software containing ST-Developer
 * from STEP Tools, Inc. (www.steptools.com) 
 */

FILE_DESCRIPTION(
/* description */ (''),
/* implementation_level */ '2;1');

FILE_NAME(
/* name */ 'Pressure Vessel Assemble With Door.step',
/* time_stamp */ '2025-11-04T09:09:14-06:00',
/* author */ (''),
/* organization */ (''),
/* preprocessor_version */ 'ST-DEVELOPER v20.1',
/* originating_system */ 'Autodesk Translation Framework v14.17.0.0',
/* authorisation */ '');

FILE_SCHEMA (('AUTOMOTIVE_DESIGN { 1 0 10303 214 3 1 1 }'));
ENDSEC;

DATA;
#10=MECHANICAL_DESIGN_GEOMETRIC_PRESENTATION_REPRESENTATION('',(#37,#38,
#39),#1000);
#11=ITEM_DEFINED_TRANSFORMATION($,$,#419,#462);
#12=ITEM_DEFINED_TRANSFORMATION($,$,#441,#463);
#13=ITEM_DEFINED_TRANSFORMATION($,$,#451,#464);
#14=(
REPRESENTATION_RELATIONSHIP($,$,#1017,#1016)
REPRESENTATION_RELATIONSHIP_WITH_TRANSFORMATION(#11)
SHAPE_REPRESENTATION_RELATIONSHIP()
);
#15=(
REPRESENTATION_RELATIONSHIP($,$,#1018,#1016)
REPRESENTATION_RELATIONSHIP_WITH_TRANSFORMATION(#12)
SHAPE_REPRESENTATION_RELATIONSHIP()
);
#16=(
REPRESENTATION_RELATIONSHIP($,$,#1019,#1016)
REPRESENTATION_RELATIONSHIP_WITH_TRANSFORMATION(#13)
SHAPE_REPRESENTATION_RELATIONSHIP()
);
#17=CONTEXT_DEPENDENT_SHAPE_REPRESENTATION(#14,#1013);
#18=CONTEXT_DEPENDENT_SHAPE_REPRESENTATION(#15,#1014);
#19=CONTEXT_DEPENDENT_SHAPE_REPRESENTATION(#16,#1015);
#20=NEXT_ASSEMBLY_USAGE_OCCURRENCE(
'Pressure Vessel End Cap With Door:1',
'Pressure Vessel End Cap With Door:1',
'Pressure Vessel End Cap With Door:1',#1021,#1022,
'Pressure Vessel End Cap With Door:1');
#21=NEXT_ASSEMBLY_USAGE_OCCURRENCE('Pressure Vessel End Cap Floor:1',
'Pressure Vessel End Cap Floor:1','Pressure Vessel End Cap Floor:1',#1021,
#1023,'Pressure Vessel End Cap Floor:1');
#22=NEXT_ASSEMBLY_USAGE_OCCURRENCE('Pressure Vessel End Cap Wall:1',
'Pressure Vessel End Cap Wall:1','Pressure Vessel End Cap Wall:1',#1021,
#1024,'Pressure Vessel End Cap Wall:1');
#23=MANIFOLD_SOLID_BREP('Body2',#381);
#24=MANIFOLD_SOLID_BREP('Body4',#382);
#25=CONICAL_SURFACE('',#448,1789.52858555998,0.558033138122239);
#26=CONICAL_SURFACE('',#449,1789.52858555998,0.558033138122239);
#27=B_SPLINE_CURVE_WITH_KNOTS('',3,(#744,#745,#746,#747,#748,#749,#750,
#751,#752,#753,#754,#755,#756,#757,#758,#759,#760,#761,#762,#763,#764,#765,
#766,#767,#768,#769,#770,#771,#772,#773,#774,#775,#776,#777,#778,#779,#780,
#781,#782,#783,#784,#785,#786,#787,#788,#789,#790,#791,#792,#793,#794,#795,
#796,#797,#798,#799,#800,#801,#802,#803,#804,#805,#806,#807,#808,#809,#810,
#811,#812,#813,#814,#815,#816,#817,#818,#819,#820,#821,#822,#823,#824,#825,
#826,#827,#828,#829,#830),.UNSPECIFIED.,.F.,.F.,(4,2,2,2,2,2,2,2,2,2,2,
2,2,2,2,2,2,2,2,2,2,3,2,2,2,2,2,2,2,2,2,2,2,2,2,2,2,2,2,2,2,2,4),(-193.344855848043,
-186.634462395803,-178.643964280005,-170.653466164207,-162.66296804841,
-154.672469932612,-146.681971816815,-138.691473701017,-130.70097558522,
-122.710477469422,-112.933403794378,-103.156330119334,-93.3792564442908,
-83.6021827692471,-73.1519099230911,-62.7016370769354,-52.2513642307795,
-41.8010913846235,-31.3508185384676,-20.9005456923117,-10.4502728461559,
0.,10.4502728461559,20.9005456923118,31.3508185384677,41.8010913846236,
52.2513642307795,62.7016370769353,73.1519099230912,83.6021827692471,93.3792564442908,
103.156330119335,112.933403794378,122.710477469422,130.70097558522,138.691473701017,
146.681971816815,154.672469932612,162.66296804841,170.653466164208,178.643964280005,
186.634462395803,193.338075190879),.UNSPECIFIED.);
#28=B_SPLINE_CURVE_WITH_KNOTS('',3,(#832,#833,#834,#835),.UNSPECIFIED.,
 .F.,.F.,(4,4),(-2.9472718845211,0.),.UNSPECIFIED.);
#29=B_SPLINE_CURVE_WITH_KNOTS('',3,(#837,#838,#839,#840,#841,#842,#843,
#844,#845,#846,#847,#848,#849,#850,#851,#852,#853,#854,#855,#856,#857,#858,
#859,#860,#861,#862,#863,#864,#865,#866,#867,#868,#869,#870,#871,#872,#873,
#874,#875,#876,#877,#878,#879,#880,#881,#882,#883,#884,#885,#886,#887,#888,
#889,#890,#891,#892,#893,#894,#895,#896,#897,#898,#899,#900,#901,#902,#903,
#904,#905,#906,#907,#908,#909,#910,#911,#912,#913,#914,#915,#916,#917,#918,
#919,#920,#921,#922,#923,#924,#925,#926,#927),.UNSPECIFIED.,.F.,.F.,(4,
2,2,2,2,2,2,2,2,2,2,2,2,2,2,2,2,2,2,2,2,2,3,2,2,2,2,2,2,2,2,2,2,2,2,2,2,
2,2,2,2,2,2,2,4),(-195.242452259975,-194.555860469323,-187.271493207997,
-179.2230394774,-171.174585746803,-163.126132016205,-155.077678285608,-147.029224555011,
-138.980770824414,-130.932317093816,-122.883863363219,-113.068154657878,
-103.252445952537,-93.4367372471966,-83.6210285418558,-73.1683999741238,
-62.7157714063919,-52.2631428386601,-41.810514270928,-31.357885703196,-20.9052571354639,
-10.4526285677318,0.,10.452628567732,20.9052571354639,31.3578857031959,
41.8105142709279,52.2631428386599,62.7157714063918,73.1683999741238,83.6210285418558,
93.4367372471966,103.252445952537,113.068154657878,122.883863363219,130.932317093816,
138.980770824414,147.029224555011,155.077678285608,163.126132016205,171.174585746803,
179.2230394774,187.271493207997,194.555860469323,195.249235119326),
 .UNSPECIFIED.);
#30=B_SPLINE_CURVE_WITH_KNOTS('',3,(#928,#929,#930,#931),.UNSPECIFIED.,
 .F.,.F.,(4,4),(-2.94726917032538,0.),.UNSPECIFIED.);
#31=SHAPE_REPRESENTATION_RELATIONSHIP('SRR','None',#1017,#34);
#32=SHAPE_REPRESENTATION_RELATIONSHIP('SRR','None',#1018,#35);
#33=SHAPE_REPRESENTATION_RELATIONSHIP('SRR','None',#1019,#36);
#34=ADVANCED_BREP_SHAPE_REPRESENTATION('',(#383),#997);
#35=ADVANCED_BREP_SHAPE_REPRESENTATION('',(#23),#998);
#36=ADVANCED_BREP_SHAPE_REPRESENTATION('',(#24),#999);
#37=STYLED_ITEM('',(#1040),#383);
#38=STYLED_ITEM('',(#1040),#23);
#39=STYLED_ITEM('',(#1040),#24);
#40=LINE('',#623,#62);
#41=LINE('',#631,#63);
#42=LINE('',#935,#64);
#43=LINE('',#941,#65);
#44=LINE('',#945,#66);
#45=LINE('',#947,#67);
#46=LINE('',#955,#68);
#47=LINE('',#958,#69);
#48=LINE('',#961,#70);
#49=LINE('',#963,#71);
#50=LINE('',#964,#72);
#51=LINE('',#967,#73);
#52=LINE('',#969,#74);
#53=LINE('',#970,#75);
#54=LINE('',#973,#76);
#55=LINE('',#975,#77);
#56=LINE('',#976,#78);
#57=LINE('',#979,#79);
#58=LINE('',#981,#80);
#59=LINE('',#982,#81);
#60=LINE('',#984,#82);
#61=LINE('',#985,#83);
#62=VECTOR('',#485,1000.);
#63=VECTOR('',#494,1000.);
#64=VECTOR('',#517,10.);
#65=VECTOR('',#524,10.);
#66=VECTOR('',#531,10.);
#67=VECTOR('',#534,10.);
#68=VECTOR('',#543,10.);
#69=VECTOR('',#546,10.);
#70=VECTOR('',#549,10.);
#71=VECTOR('',#550,10.);
#72=VECTOR('',#551,10.);
#73=VECTOR('',#554,10.);
#74=VECTOR('',#555,10.);
#75=VECTOR('',#556,10.);
#76=VECTOR('',#559,10.);
#77=VECTOR('',#560,10.);
#78=VECTOR('',#561,10.);
#79=VECTOR('',#564,10.);
#80=VECTOR('',#565,10.);
#81=VECTOR('',#566,10.);
#82=VECTOR('',#569,10.);
#83=VECTOR('',#570,10.);
#84=CYLINDRICAL_SURFACE('',#426,1000.);
#85=CYLINDRICAL_SURFACE('',#430,1000.);
#86=CYLINDRICAL_SURFACE('',#452,2117.);
#87=ORIENTED_CLOSED_SHELL('',*,#379,.F.);
#88=FACE_BOUND('',#131,.T.);
#89=FACE_BOUND('',#136,.T.);
#90=FACE_BOUND('',#141,.T.);
#91=PLANE('',#423);
#92=PLANE('',#424);
#93=PLANE('',#433);
#94=PLANE('',#440);
#95=PLANE('',#442);
#96=PLANE('',#445);
#97=PLANE('',#450);
#98=PLANE('',#455);
#99=PLANE('',#456);
#100=PLANE('',#457);
#101=PLANE('',#458);
#102=PLANE('',#459);
#103=PLANE('',#460);
#104=PLANE('',#461);
#105=FACE_OUTER_BOUND('',#129,.T.);
#106=FACE_OUTER_BOUND('',#130,.T.);
#107=FACE_OUTER_BOUND('',#132,.T.);
#108=FACE_OUTER_BOUND('',#133,.T.);
#109=FACE_OUTER_BOUND('',#134,.T.);
#110=FACE_OUTER_BOUND('',#135,.T.);
#111=FACE_OUTER_BOUND('',#137,.T.);
#112=FACE_OUTER_BOUND('',#138,.T.);
#113=FACE_OUTER_BOUND('',#139,.T.);
#114=FACE_OUTER_BOUND('',#140,.T.);
#115=FACE_OUTER_BOUND('',#142,.T.);
#116=FACE_OUTER_BOUND('',#143,.T.);
#117=FACE_OUTER_BOUND('',#144,.T.);
#118=FACE_OUTER_BOUND('',#145,.T.);
#119=FACE_OUTER_BOUND('',#146,.T.);
#120=FACE_OUTER_BOUND('',#147,.T.);
#121=FACE_OUTER_BOUND('',#148,.T.);
#122=FACE_OUTER_BOUND('',#149,.T.);
#123=FACE_OUTER_BOUND('',#150,.T.);
#124=FACE_OUTER_BOUND('',#151,.T.);
#125=FACE_OUTER_BOUND('',#152,.T.);
#126=FACE_OUTER_BOUND('',#153,.T.);
#127=FACE_OUTER_BOUND('',#154,.T.);
#128=FACE_OUTER_BOUND('',#155,.T.);
#129=EDGE_LOOP('',(#256,#257,#258,#259));
#130=EDGE_LOOP('',(#260));
#131=EDGE_LOOP('',(#261));
#132=EDGE_LOOP('',(#262));
#133=EDGE_LOOP('',(#263,#264,#265,#266,#267));
#134=EDGE_LOOP('',(#268,#269,#270,#271,#272));
#135=EDGE_LOOP('',(#273));
#136=EDGE_LOOP('',(#274));
#137=EDGE_LOOP('',(#275,#276,#277));
#138=EDGE_LOOP('',(#278,#279,#280,#281,#282));
#139=EDGE_LOOP('',(#283,#284,#285,#286,#287));
#140=EDGE_LOOP('',(#288));
#141=EDGE_LOOP('',(#289));
#142=EDGE_LOOP('',(#290,#291,#292,#293));
#143=EDGE_LOOP('',(#294,#295,#296,#297));
#144=EDGE_LOOP('',(#298,#299,#300,#301));
#145=EDGE_LOOP('',(#302,#303,#304,#305));
#146=EDGE_LOOP('',(#306,#307,#308,#309));
#147=EDGE_LOOP('',(#310,#311,#312,#313));
#148=EDGE_LOOP('',(#314,#315,#316,#317));
#149=EDGE_LOOP('',(#318,#319,#320,#321));
#150=EDGE_LOOP('',(#322,#323,#324,#325));
#151=EDGE_LOOP('',(#326,#327,#328,#329));
#152=EDGE_LOOP('',(#330,#331,#332,#333));
#153=EDGE_LOOP('',(#334,#335,#336,#337));
#154=EDGE_LOOP('',(#338,#339,#340,#341,#342,#343));
#155=EDGE_LOOP('',(#344,#345,#346,#347,#348,#349));
#156=CIRCLE('',#420,54.3603007645931);
#157=CIRCLE('',#421,2070.16491207295);
#158=CIRCLE('',#422,610.494020937849);
#159=CIRCLE('',#425,1000.);
#160=CIRCLE('',#427,1000.);
#161=CIRCLE('',#428,1000.);
#162=CIRCLE('',#429,1000.);
#163=CIRCLE('',#431,1000.);
#164=CIRCLE('',#432,1000.);
#165=CIRCLE('',#434,664.854321702443);
#166=CIRCLE('',#435,2078.16491207295);
#167=CIRCLE('',#436,2070.16491207295);
#168=CIRCLE('',#437,2115.7192695818);
#169=CIRCLE('',#438,2125.);
#170=CIRCLE('',#439,2078.16491207295);
#171=CIRCLE('',#443,1797.33124728783);
#172=CIRCLE('',#444,1797.33124728783);
#173=CIRCLE('',#446,1781.72592383213);
#174=CIRCLE('',#447,1781.72592383213);
#175=CIRCLE('',#453,2117.);
#176=CIRCLE('',#454,2117.);
#177=VERTEX_POINT('',#610);
#178=VERTEX_POINT('',#612);
#179=VERTEX_POINT('',#617);
#180=VERTEX_POINT('',#620);
#181=VERTEX_POINT('',#622);
#182=VERTEX_POINT('',#624);
#183=VERTEX_POINT('',#628);
#184=VERTEX_POINT('',#629);
#185=VERTEX_POINT('',#634);
#186=VERTEX_POINT('',#663);
#187=VERTEX_POINT('',#692);
#188=VERTEX_POINT('',#722);
#189=VERTEX_POINT('',#742);
#190=VERTEX_POINT('',#743);
#191=VERTEX_POINT('',#831);
#192=VERTEX_POINT('',#836);
#193=VERTEX_POINT('',#933);
#194=VERTEX_POINT('',#934);
#195=VERTEX_POINT('',#939);
#196=VERTEX_POINT('',#940);
#197=VERTEX_POINT('',#951);
#198=VERTEX_POINT('',#952);
#199=VERTEX_POINT('',#954);
#200=VERTEX_POINT('',#956);
#201=VERTEX_POINT('',#960);
#202=VERTEX_POINT('',#962);
#203=VERTEX_POINT('',#966);
#204=VERTEX_POINT('',#968);
#205=VERTEX_POINT('',#972);
#206=VERTEX_POINT('',#974);
#207=VERTEX_POINT('',#978);
#208=VERTEX_POINT('',#980);
#209=EDGE_CURVE('',#177,#177,#156,.T.);
#210=EDGE_CURVE('',#177,#178,#157,.T.);
#211=EDGE_CURVE('',#178,#178,#158,.T.);
#212=EDGE_CURVE('',#179,#179,#159,.T.);
#213=EDGE_CURVE('',#180,#180,#160,.T.);
#214=EDGE_CURVE('',#180,#181,#40,.T.);
#215=EDGE_CURVE('',#182,#181,#161,.T.);
#216=EDGE_CURVE('',#181,#182,#162,.T.);
#217=EDGE_CURVE('',#183,#184,#163,.T.);
#218=EDGE_CURVE('',#183,#179,#41,.T.);
#219=EDGE_CURVE('',#184,#183,#164,.T.);
#220=EDGE_CURVE('',#185,#185,#165,.T.);
#221=EDGE_CURVE('',#185,#186,#166,.T.);
#222=EDGE_CURVE('',#184,#187,#167,.T.);
#223=EDGE_CURVE('',#187,#187,#168,.T.);
#224=EDGE_CURVE('',#188,#188,#169,.T.);
#225=EDGE_CURVE('',#188,#182,#170,.T.);
#226=EDGE_CURVE('',#189,#190,#27,.T.);
#227=EDGE_CURVE('',#191,#189,#28,.T.);
#228=EDGE_CURVE('',#192,#191,#29,.T.);
#229=EDGE_CURVE('',#190,#192,#30,.T.);
#230=EDGE_CURVE('',#193,#194,#42,.T.);
#231=EDGE_CURVE('',#193,#192,#171,.T.);
#232=EDGE_CURVE('',#191,#194,#172,.T.);
#233=EDGE_CURVE('',#195,#196,#43,.T.);
#234=EDGE_CURVE('',#189,#195,#173,.T.);
#235=EDGE_CURVE('',#196,#190,#174,.T.);
#236=EDGE_CURVE('',#196,#193,#44,.T.);
#237=EDGE_CURVE('',#194,#195,#45,.T.);
#238=EDGE_CURVE('',#197,#198,#175,.T.);
#239=EDGE_CURVE('',#197,#199,#46,.T.);
#240=EDGE_CURVE('',#200,#199,#176,.T.);
#241=EDGE_CURVE('',#198,#200,#47,.T.);
#242=EDGE_CURVE('',#201,#198,#48,.T.);
#243=EDGE_CURVE('',#202,#200,#49,.T.);
#244=EDGE_CURVE('',#201,#202,#50,.T.);
#245=EDGE_CURVE('',#201,#203,#51,.T.);
#246=EDGE_CURVE('',#204,#202,#52,.T.);
#247=EDGE_CURVE('',#203,#204,#53,.T.);
#248=EDGE_CURVE('',#205,#203,#54,.T.);
#249=EDGE_CURVE('',#206,#204,#55,.T.);
#250=EDGE_CURVE('',#205,#206,#56,.T.);
#251=EDGE_CURVE('',#207,#205,#57,.T.);
#252=EDGE_CURVE('',#208,#206,#58,.T.);
#253=EDGE_CURVE('',#207,#208,#59,.T.);
#254=EDGE_CURVE('',#207,#197,#60,.T.);
#255=EDGE_CURVE('',#199,#208,#61,.T.);
#256=ORIENTED_EDGE('',*,*,#209,.T.);
#257=ORIENTED_EDGE('',*,*,#210,.T.);
#258=ORIENTED_EDGE('',*,*,#211,.T.);
#259=ORIENTED_EDGE('',*,*,#210,.F.);
#260=ORIENTED_EDGE('',*,*,#211,.F.);
#261=ORIENTED_EDGE('',*,*,#209,.F.);
#262=ORIENTED_EDGE('',*,*,#212,.F.);
#263=ORIENTED_EDGE('',*,*,#213,.F.);
#264=ORIENTED_EDGE('',*,*,#214,.T.);
#265=ORIENTED_EDGE('',*,*,#215,.F.);
#266=ORIENTED_EDGE('',*,*,#216,.F.);
#267=ORIENTED_EDGE('',*,*,#214,.F.);
#268=ORIENTED_EDGE('',*,*,#217,.F.);
#269=ORIENTED_EDGE('',*,*,#218,.T.);
#270=ORIENTED_EDGE('',*,*,#212,.T.);
#271=ORIENTED_EDGE('',*,*,#218,.F.);
#272=ORIENTED_EDGE('',*,*,#219,.F.);
#273=ORIENTED_EDGE('',*,*,#213,.T.);
#274=ORIENTED_EDGE('',*,*,#220,.F.);
#275=ORIENTED_EDGE('',*,*,#220,.T.);
#276=ORIENTED_EDGE('',*,*,#221,.T.);
#277=ORIENTED_EDGE('',*,*,#221,.F.);
#278=ORIENTED_EDGE('',*,*,#217,.T.);
#279=ORIENTED_EDGE('',*,*,#222,.T.);
#280=ORIENTED_EDGE('',*,*,#223,.F.);
#281=ORIENTED_EDGE('',*,*,#222,.F.);
#282=ORIENTED_EDGE('',*,*,#219,.T.);
#283=ORIENTED_EDGE('',*,*,#224,.F.);
#284=ORIENTED_EDGE('',*,*,#225,.T.);
#285=ORIENTED_EDGE('',*,*,#215,.T.);
#286=ORIENTED_EDGE('',*,*,#216,.T.);
#287=ORIENTED_EDGE('',*,*,#225,.F.);
#288=ORIENTED_EDGE('',*,*,#224,.T.);
#289=ORIENTED_EDGE('',*,*,#223,.T.);
#290=ORIENTED_EDGE('',*,*,#226,.F.);
#291=ORIENTED_EDGE('',*,*,#227,.F.);
#292=ORIENTED_EDGE('',*,*,#228,.F.);
#293=ORIENTED_EDGE('',*,*,#229,.F.);
#294=ORIENTED_EDGE('',*,*,#230,.F.);
#295=ORIENTED_EDGE('',*,*,#231,.T.);
#296=ORIENTED_EDGE('',*,*,#228,.T.);
#297=ORIENTED_EDGE('',*,*,#232,.T.);
#298=ORIENTED_EDGE('',*,*,#233,.F.);
#299=ORIENTED_EDGE('',*,*,#234,.F.);
#300=ORIENTED_EDGE('',*,*,#226,.T.);
#301=ORIENTED_EDGE('',*,*,#235,.F.);
#302=ORIENTED_EDGE('',*,*,#236,.F.);
#303=ORIENTED_EDGE('',*,*,#235,.T.);
#304=ORIENTED_EDGE('',*,*,#229,.T.);
#305=ORIENTED_EDGE('',*,*,#231,.F.);
#306=ORIENTED_EDGE('',*,*,#237,.F.);
#307=ORIENTED_EDGE('',*,*,#232,.F.);
#308=ORIENTED_EDGE('',*,*,#227,.T.);
#309=ORIENTED_EDGE('',*,*,#234,.T.);
#310=ORIENTED_EDGE('',*,*,#233,.T.);
#311=ORIENTED_EDGE('',*,*,#236,.T.);
#312=ORIENTED_EDGE('',*,*,#230,.T.);
#313=ORIENTED_EDGE('',*,*,#237,.T.);
#314=ORIENTED_EDGE('',*,*,#238,.F.);
#315=ORIENTED_EDGE('',*,*,#239,.T.);
#316=ORIENTED_EDGE('',*,*,#240,.F.);
#317=ORIENTED_EDGE('',*,*,#241,.F.);
#318=ORIENTED_EDGE('',*,*,#242,.T.);
#319=ORIENTED_EDGE('',*,*,#241,.T.);
#320=ORIENTED_EDGE('',*,*,#243,.F.);
#321=ORIENTED_EDGE('',*,*,#244,.F.);
#322=ORIENTED_EDGE('',*,*,#245,.F.);
#323=ORIENTED_EDGE('',*,*,#244,.T.);
#324=ORIENTED_EDGE('',*,*,#246,.F.);
#325=ORIENTED_EDGE('',*,*,#247,.F.);
#326=ORIENTED_EDGE('',*,*,#248,.T.);
#327=ORIENTED_EDGE('',*,*,#247,.T.);
#328=ORIENTED_EDGE('',*,*,#249,.F.);
#329=ORIENTED_EDGE('',*,*,#250,.F.);
#330=ORIENTED_EDGE('',*,*,#251,.T.);
#331=ORIENTED_EDGE('',*,*,#250,.T.);
#332=ORIENTED_EDGE('',*,*,#252,.F.);
#333=ORIENTED_EDGE('',*,*,#253,.F.);
#334=ORIENTED_EDGE('',*,*,#254,.F.);
#335=ORIENTED_EDGE('',*,*,#253,.T.);
#336=ORIENTED_EDGE('',*,*,#255,.F.);
#337=ORIENTED_EDGE('',*,*,#239,.F.);
#338=ORIENTED_EDGE('',*,*,#254,.T.);
#339=ORIENTED_EDGE('',*,*,#238,.T.);
#340=ORIENTED_EDGE('',*,*,#242,.F.);
#341=ORIENTED_EDGE('',*,*,#245,.T.);
#342=ORIENTED_EDGE('',*,*,#248,.F.);
#343=ORIENTED_EDGE('',*,*,#251,.F.);
#344=ORIENTED_EDGE('',*,*,#255,.T.);
#345=ORIENTED_EDGE('',*,*,#252,.T.);
#346=ORIENTED_EDGE('',*,*,#249,.T.);
#347=ORIENTED_EDGE('',*,*,#246,.T.);
#348=ORIENTED_EDGE('',*,*,#243,.T.);
#349=ORIENTED_EDGE('',*,*,#240,.T.);
#350=(
BOUNDED_SURFACE()
B_SPLINE_SURFACE(2,2,((#583,#584,#585,#586,#587,#588,#589,#590,#591),(#592,
#593,#594,#595,#596,#597,#598,#599,#600),(#601,#602,#603,#604,#605,#606,
#607,#608,#609)),.UNSPECIFIED.,.F.,.T.,.F.)
B_SPLINE_SURFACE_WITH_KNOTS((3,3),(3,2,2,2,3),(-1.70552466440144,-1.43606798918836),
(-3.14159265358979,-1.5707963267949,0.,1.5707963267949,3.14159265358979),
 .UNSPECIFIED.)
GEOMETRIC_REPRESENTATION_ITEM()
RATIONAL_B_SPLINE_SURFACE(((1.,0.707106781186548,1.,0.707106781186548,1.,
0.707106781186548,1.,0.707106781186548,1.),(0.990937857765637,0.700698878960552,
0.990937857765637,0.700698878960552,0.990937857765637,0.700698878960552,
0.990937857765637,0.700698878960552,0.990937857765637),(1.,0.707106781186548,
1.,0.707106781186548,1.,0.707106781186548,1.,0.707106781186548,1.)))
REPRESENTATION_ITEM('')
SURFACE()
);
#351=(
BOUNDED_SURFACE()
B_SPLINE_SURFACE(2,2,((#636,#637,#638,#639,#640,#641,#642,#643,#644),(#645,
#646,#647,#648,#649,#650,#651,#652,#653),(#654,#655,#656,#657,#658,#659,
#660,#661,#662)),.UNSPECIFIED.,.F.,.T.,.F.)
B_SPLINE_SURFACE_WITH_KNOTS((3,3),(3,2,2,2,3),(-1.73144835970993,-1.41014429387986),
(-3.14159265358979,-1.5707963267949,0.,1.5707963267949,3.14159265358979),
 .UNSPECIFIED.)
GEOMETRIC_REPRESENTATION_ITEM()
RATIONAL_B_SPLINE_SURFACE(((1.,0.707106781186548,1.,0.707106781186548,1.,
0.707106781186548,1.,0.707106781186548,1.),(0.98712319280999,0.69800150350246,
0.98712319280999,0.69800150350246,0.98712319280999,0.69800150350246,0.98712319280999,
0.69800150350246,0.98712319280999),(1.,0.707106781186548,1.,0.707106781186548,
1.,0.707106781186548,1.,0.707106781186548,1.)))
REPRESENTATION_ITEM('')
SURFACE()
);
#352=(
BOUNDED_SURFACE()
B_SPLINE_SURFACE(2,2,((#665,#666,#667,#668,#669,#670,#671,#672,#673),(#674,
#675,#676,#677,#678,#679,#680,#681,#682),(#683,#684,#685,#686,#687,#688,
#689,#690,#691)),.UNSPECIFIED.,.F.,.T.,.F.)
B_SPLINE_SURFACE_WITH_KNOTS((3,3),(3,2,2,2,3),(-1.24245515092025,-0.532727256077794),
(-3.14159265358979,-1.5707963267949,0.,1.5707963267949,3.14159265358979),
 .UNSPECIFIED.)
GEOMETRIC_REPRESENTATION_ITEM()
RATIONAL_B_SPLINE_SURFACE(((1.,0.707106781186548,1.,0.707106781186548,1.,
0.707106781186548,1.,0.707106781186548,1.),(0.93769377070669,0.663049623943085,
0.93769377070669,0.663049623943085,0.93769377070669,0.663049623943085,0.93769377070669,
0.663049623943085,0.93769377070669),(1.,0.707106781186548,1.,0.707106781186548,
1.,0.707106781186548,1.,0.707106781186548,1.)))
REPRESENTATION_ITEM('')
SURFACE()
);
#353=(
BOUNDED_SURFACE()
B_SPLINE_SURFACE(2,2,((#695,#696,#697,#698,#699,#700,#701,#702,#703),(#704,
#705,#706,#707,#708,#709,#710,#711,#712),(#713,#714,#715,#716,#717,#718,
#719,#720,#721)),.UNSPECIFIED.,.F.,.T.,.F.)
B_SPLINE_SURFACE_WITH_KNOTS((3,3),(3,2,2,2,3),(-1.24376629424267,-0.530459128248392),
(-3.14159265358979,-1.5707963267949,0.,1.5707963267949,3.14159265358979),
 .UNSPECIFIED.)
GEOMETRIC_REPRESENTATION_ITEM()
RATIONAL_B_SPLINE_SURFACE(((1.,0.707106781186548,1.,0.707106781186548,1.,
0.707106781186548,1.,0.707106781186548,1.),(0.937070437643037,0.662608860906837,
0.937070437643037,0.662608860906837,0.937070437643037,0.662608860906837,
0.937070437643037,0.662608860906837,0.937070437643037),(1.,0.707106781186548,
1.,0.707106781186548,1.,0.707106781186548,1.,0.707106781186548,1.)))
REPRESENTATION_ITEM('')
SURFACE()
);
#354=(
BOUNDED_SURFACE()
B_SPLINE_SURFACE(2,2,((#727,#728,#729,#730,#731),(#732,#733,#734,#735,#736),
(#737,#738,#739,#740,#741)),.UNSPECIFIED.,.F.,.F.,.F.)
B_SPLINE_SURFACE_WITH_KNOTS((3,3),(3,2,3),(-1.18422839688745,-0.539264760647859),
(-2.58595170745,-1.57080141445159,-0.555651121453186),.UNSPECIFIED.)
GEOMETRIC_REPRESENTATION_ITEM()
RATIONAL_B_SPLINE_SURFACE(((1.,0.873925698961513,1.,0.873925698961513,1.),
(0.948451798524994,0.828876400957259,0.948451798524994,0.828876400957259,
0.948451798524994),(1.,0.873925698961513,1.,0.873925698961513,1.)))
REPRESENTATION_ITEM('')
SURFACE()
);
#355=ADVANCED_FACE('',(#105),#350,.T.);
#356=ADVANCED_FACE('',(#106,#88),#91,.F.);
#357=ADVANCED_FACE('',(#107),#92,.T.);
#358=ADVANCED_FACE('',(#108),#84,.T.);
#359=ADVANCED_FACE('',(#109),#85,.T.);
#360=ADVANCED_FACE('',(#110,#89),#93,.F.);
#361=ADVANCED_FACE('',(#111),#351,.F.);
#362=ADVANCED_FACE('',(#112),#352,.T.);
#363=ADVANCED_FACE('',(#113),#353,.F.);
#364=ADVANCED_FACE('',(#114,#90),#94,.T.);
#365=ADVANCED_FACE('',(#115),#354,.F.);
#366=ADVANCED_FACE('',(#116),#95,.T.);
#367=ADVANCED_FACE('',(#117),#96,.T.);
#368=ADVANCED_FACE('',(#118),#25,.T.);
#369=ADVANCED_FACE('',(#119),#26,.T.);
#370=ADVANCED_FACE('',(#120),#97,.T.);
#371=ADVANCED_FACE('',(#121),#86,.T.);
#372=ADVANCED_FACE('',(#122),#98,.T.);
#373=ADVANCED_FACE('',(#123),#99,.T.);
#374=ADVANCED_FACE('',(#124),#100,.T.);
#375=ADVANCED_FACE('',(#125),#101,.T.);
#376=ADVANCED_FACE('',(#126),#102,.T.);
#377=ADVANCED_FACE('',(#127),#103,.T.);
#378=ADVANCED_FACE('',(#128),#104,.F.);
#379=CLOSED_SHELL('',(#355,#356));
#380=CLOSED_SHELL('',(#357,#358,#359,#360,#361,#362,#363,#364));
#381=CLOSED_SHELL('',(#365,#366,#367,#368,#369,#370));
#382=CLOSED_SHELL('',(#371,#372,#373,#374,#375,#376,#377,#378));
#383=BREP_WITH_VOIDS('Body1',#380,(#87));
#384=DERIVED_UNIT_ELEMENT(#390,1.);
#385=DERIVED_UNIT_ELEMENT(#1002,-3.);
#386=DERIVED_UNIT_ELEMENT(#390,1.);
#387=DERIVED_UNIT_ELEMENT(#1002,-3.);
#388=DERIVED_UNIT_ELEMENT(#390,1.);
#389=DERIVED_UNIT_ELEMENT(#1002,-3.);
#390=(
MASS_UNIT()
NAMED_UNIT(*)
SI_UNIT(.KILO.,.GRAM.)
);
#391=DERIVED_UNIT((#384,#385));
#392=DERIVED_UNIT((#386,#387));
#393=DERIVED_UNIT((#388,#389));
#394=MEASURE_REPRESENTATION_ITEM('density measure',
POSITIVE_RATIO_MEASURE(7850.),#391);
#395=MEASURE_REPRESENTATION_ITEM('density measure',
POSITIVE_RATIO_MEASURE(7850.),#392);
#396=MEASURE_REPRESENTATION_ITEM('density measure',
POSITIVE_RATIO_MEASURE(7850.),#393);
#397=PROPERTY_DEFINITION_REPRESENTATION(#412,#403);
#398=PROPERTY_DEFINITION_REPRESENTATION(#413,#404);
#399=PROPERTY_DEFINITION_REPRESENTATION(#414,#405);
#400=PROPERTY_DEFINITION_REPRESENTATION(#415,#406);
#401=PROPERTY_DEFINITION_REPRESENTATION(#416,#407);
#402=PROPERTY_DEFINITION_REPRESENTATION(#417,#408);
#403=REPRESENTATION('material name',(#409),#997);
#404=REPRESENTATION('density',(#394),#997);
#405=REPRESENTATION('material name',(#410),#998);
#406=REPRESENTATION('density',(#395),#998);
#407=REPRESENTATION('material name',(#411),#999);
#408=REPRESENTATION('density',(#396),#999);
#409=DESCRIPTIVE_REPRESENTATION_ITEM('Steel','Steel');
#410=DESCRIPTIVE_REPRESENTATION_ITEM('Steel','Steel');
#411=DESCRIPTIVE_REPRESENTATION_ITEM('Steel','Steel');
#412=PROPERTY_DEFINITION('material property','material name',#1022);
#413=PROPERTY_DEFINITION('material property','density of part',#1022);
#414=PROPERTY_DEFINITION('material property','material name',#1023);
#415=PROPERTY_DEFINITION('material property','density of part',#1023);
#416=PROPERTY_DEFINITION('material property','material name',#1024);
#417=PROPERTY_DEFINITION('material property','density of part',#1024);
#418=AXIS2_PLACEMENT_3D('',#581,#465,#466);
#419=AXIS2_PLACEMENT_3D('',#582,#467,#468);
#420=AXIS2_PLACEMENT_3D('',#611,#469,#470);
#421=AXIS2_PLACEMENT_3D('',#613,#471,#472);
#422=AXIS2_PLACEMENT_3D('',#614,#473,#474);
#423=AXIS2_PLACEMENT_3D('',#615,#475,#476);
#424=AXIS2_PLACEMENT_3D('',#616,#477,#478);
#425=AXIS2_PLACEMENT_3D('',#618,#479,#480);
#426=AXIS2_PLACEMENT_3D('',#619,#481,#482);
#427=AXIS2_PLACEMENT_3D('',#621,#483,#484);
#428=AXIS2_PLACEMENT_3D('',#625,#486,#487);
#429=AXIS2_PLACEMENT_3D('',#626,#488,#489);
#430=AXIS2_PLACEMENT_3D('',#627,#490,#491);
#431=AXIS2_PLACEMENT_3D('',#630,#492,#493);
#432=AXIS2_PLACEMENT_3D('',#632,#495,#496);
#433=AXIS2_PLACEMENT_3D('',#633,#497,#498);
#434=AXIS2_PLACEMENT_3D('',#635,#499,#500);
#435=AXIS2_PLACEMENT_3D('',#664,#501,#502);
#436=AXIS2_PLACEMENT_3D('',#693,#503,#504);
#437=AXIS2_PLACEMENT_3D('',#694,#505,#506);
#438=AXIS2_PLACEMENT_3D('',#723,#507,#508);
#439=AXIS2_PLACEMENT_3D('',#724,#509,#510);
#440=AXIS2_PLACEMENT_3D('',#725,#511,#512);
#441=AXIS2_PLACEMENT_3D('',#726,#513,#514);
#442=AXIS2_PLACEMENT_3D('',#932,#515,#516);
#443=AXIS2_PLACEMENT_3D('',#936,#518,#519);
#444=AXIS2_PLACEMENT_3D('',#937,#520,#521);
#445=AXIS2_PLACEMENT_3D('',#938,#522,#523);
#446=AXIS2_PLACEMENT_3D('',#942,#525,#526);
#447=AXIS2_PLACEMENT_3D('',#943,#527,#528);
#448=AXIS2_PLACEMENT_3D('',#944,#529,#530);
#449=AXIS2_PLACEMENT_3D('',#946,#532,#533);
#450=AXIS2_PLACEMENT_3D('',#948,#535,#536);
#451=AXIS2_PLACEMENT_3D('',#949,#537,#538);
#452=AXIS2_PLACEMENT_3D('',#950,#539,#540);
#453=AXIS2_PLACEMENT_3D('',#953,#541,#542);
#454=AXIS2_PLACEMENT_3D('',#957,#544,#545);
#455=AXIS2_PLACEMENT_3D('',#959,#547,#548);
#456=AXIS2_PLACEMENT_3D('',#965,#552,#553);
#457=AXIS2_PLACEMENT_3D('',#971,#557,#558);
#458=AXIS2_PLACEMENT_3D('',#977,#562,#563);
#459=AXIS2_PLACEMENT_3D('',#983,#567,#568);
#460=AXIS2_PLACEMENT_3D('',#986,#571,#572);
#461=AXIS2_PLACEMENT_3D('',#987,#573,#574);
#462=AXIS2_PLACEMENT_3D('',#988,#575,#576);
#463=AXIS2_PLACEMENT_3D('',#989,#577,#578);
#464=AXIS2_PLACEMENT_3D('',#990,#579,#580);
#465=DIRECTION('axis',(0.,0.,1.));
#466=DIRECTION('refdir',(1.,0.,0.));
#467=DIRECTION('axis',(0.,0.,1.));
#468=DIRECTION('refdir',(1.,0.,0.));
#469=DIRECTION('center_axis',(-1.,0.,0.));
#470=DIRECTION('ref_axis',(0.,0.,-1.));
#471=DIRECTION('center_axis',(0.,1.,1.22464679914735E-16));
#472=DIRECTION('ref_axis',(0.,-1.22464679914735E-16,1.));
#473=DIRECTION('center_axis',(1.,0.,0.));
#474=DIRECTION('ref_axis',(0.,0.,-1.));
#475=DIRECTION('center_axis',(1.,0.,0.));
#476=DIRECTION('ref_axis',(0.,1.,0.));
#477=DIRECTION('center_axis',(1.,0.,0.));
#478=DIRECTION('ref_axis',(0.,1.,0.));
#479=DIRECTION('center_axis',(-1.,0.,0.));
#480=DIRECTION('ref_axis',(0.,1.,0.));
#481=DIRECTION('center_axis',(-1.,0.,0.));
#482=DIRECTION('ref_axis',(0.,1.,0.));
#483=DIRECTION('center_axis',(-1.,0.,0.));
#484=DIRECTION('ref_axis',(0.,1.,0.));
#485=DIRECTION('',(1.,0.,0.));
#486=DIRECTION('center_axis',(1.,0.,0.));
#487=DIRECTION('ref_axis',(0.,1.,0.));
#488=DIRECTION('center_axis',(1.,0.,0.));
#489=DIRECTION('ref_axis',(0.,1.,0.));
#490=DIRECTION('center_axis',(-1.,0.,0.));
#491=DIRECTION('ref_axis',(0.,1.,0.));
#492=DIRECTION('center_axis',(-1.,0.,0.));
#493=DIRECTION('ref_axis',(0.,1.,0.));
#494=DIRECTION('',(1.,0.,0.));
#495=DIRECTION('center_axis',(-1.,0.,0.));
#496=DIRECTION('ref_axis',(0.,1.,0.));
#497=DIRECTION('center_axis',(1.,0.,0.));
#498=DIRECTION('ref_axis',(0.,1.,0.));
#499=DIRECTION('center_axis',(-1.,0.,0.));
#500=DIRECTION('ref_axis',(0.,0.,-1.));
#501=DIRECTION('center_axis',(0.,-1.,-1.22464679914735E-16));
#502=DIRECTION('ref_axis',(0.,-1.22464679914735E-16,1.));
#503=DIRECTION('center_axis',(0.,1.,1.22464679914735E-16));
#504=DIRECTION('ref_axis',(0.,-1.22464679914735E-16,1.));
#505=DIRECTION('center_axis',(-1.,0.,0.));
#506=DIRECTION('ref_axis',(0.,0.,-1.));
#507=DIRECTION('center_axis',(1.,0.,0.));
#508=DIRECTION('ref_axis',(0.,0.,-1.));
#509=DIRECTION('center_axis',(0.,-1.,-1.22464679914735E-16));
#510=DIRECTION('ref_axis',(0.,-1.22464679914735E-16,1.));
#511=DIRECTION('center_axis',(1.,0.,0.));
#512=DIRECTION('ref_axis',(0.,0.,-1.));
#513=DIRECTION('axis',(0.,0.,1.));
#514=DIRECTION('refdir',(1.,0.,0.));
#515=DIRECTION('center_axis',(0.,1.,0.));
#516=DIRECTION('ref_axis',(0.,0.,1.));
#517=DIRECTION('',(0.,0.,1.));
#518=DIRECTION('center_axis',(0.,1.,0.));
#519=DIRECTION('ref_axis',(1.,0.,0.));
#520=DIRECTION('center_axis',(0.,1.,0.));
#521=DIRECTION('ref_axis',(1.,0.,0.));
#522=DIRECTION('center_axis',(0.,-1.,0.));
#523=DIRECTION('ref_axis',(0.,0.,-1.));
#524=DIRECTION('',(0.,0.,-1.));
#525=DIRECTION('center_axis',(0.,1.,0.));
#526=DIRECTION('ref_axis',(1.,0.,0.));
#527=DIRECTION('center_axis',(0.,1.,0.));
#528=DIRECTION('ref_axis',(1.,0.,0.));
#529=DIRECTION('center_axis',(0.,1.,0.));
#530=DIRECTION('ref_axis',(0.,0.,1.));
#531=DIRECTION('',(0.,0.848298241400469,-0.529518737758043));
#532=DIRECTION('center_axis',(0.,1.,0.));
#533=DIRECTION('ref_axis',(0.,0.,1.));
#534=DIRECTION('',(0.,-0.848298241400469,-0.529518737758043));
#535=DIRECTION('center_axis',(1.,0.,0.));
#536=DIRECTION('ref_axis',(0.,0.,-1.));
#537=DIRECTION('axis',(0.,0.,1.));
#538=DIRECTION('refdir',(1.,0.,0.));
#539=DIRECTION('center_axis',(-1.,0.,0.));
#540=DIRECTION('ref_axis',(0.,1.,0.));
#541=DIRECTION('center_axis',(1.,0.,0.));
#542=DIRECTION('ref_axis',(0.,1.,0.));
#543=DIRECTION('',(-1.,0.,0.));
#544=DIRECTION('center_axis',(-1.,0.,0.));
#545=DIRECTION('ref_axis',(0.,1.,0.));
#546=DIRECTION('',(-1.,0.,0.));
#547=DIRECTION('center_axis',(0.,-1.,7.89933229437113E-17));
#548=DIRECTION('ref_axis',(0.,7.89933229437113E-17,1.));
#549=DIRECTION('',(0.,7.89933229437113E-17,1.));
#550=DIRECTION('',(0.,7.89933229437113E-17,1.));
#551=DIRECTION('',(-1.,0.,0.));
#552=DIRECTION('center_axis',(0.,0.,-1.));
#553=DIRECTION('ref_axis',(0.,-1.,0.));
#554=DIRECTION('',(0.,1.,0.));
#555=DIRECTION('',(0.,-1.,0.));
#556=DIRECTION('',(-1.,0.,0.));
#557=DIRECTION('center_axis',(0.,-1.,0.));
#558=DIRECTION('ref_axis',(0.,0.,1.));
#559=DIRECTION('',(0.,0.,1.));
#560=DIRECTION('',(0.,0.,1.));
#561=DIRECTION('',(-1.,0.,0.));
#562=DIRECTION('center_axis',(0.,-0.000125598889170079,0.99999999211246));
#563=DIRECTION('ref_axis',(0.,0.999999992112459,0.000125598889170079));
#564=DIRECTION('',(0.,0.999999992112459,0.000125598889170079));
#565=DIRECTION('',(0.,0.999999992112459,0.000125598889170079));
#566=DIRECTION('',(-1.,0.,0.));
#567=DIRECTION('center_axis',(0.,-0.999999992112459,-0.000125598889170043));
#568=DIRECTION('ref_axis',(0.,-0.000125598889170043,0.999999992112459));
#569=DIRECTION('',(0.,0.000125598889170043,-0.999999992112459));
#570=DIRECTION('',(0.,-0.000125598889170043,0.999999992112459));
#571=DIRECTION('center_axis',(1.,0.,0.));
#572=DIRECTION('ref_axis',(0.,1.,0.));
#573=DIRECTION('center_axis',(1.,0.,0.));
#574=DIRECTION('ref_axis',(0.,1.,0.));
#575=DIRECTION('',(0.,0.,1.));
#576=DIRECTION('',(1.,0.,0.));
#577=DIRECTION('',(0.,0.,1.));
#578=DIRECTION('',(1.,0.,0.));
#579=DIRECTION('',(0.,0.,1.));
#580=DIRECTION('',(1.,0.,0.));
#581=CARTESIAN_POINT('',(0.,0.,0.));
#582=CARTESIAN_POINT('',(0.,0.,0.));
#583=CARTESIAN_POINT('Ctrl Pts',(-1000.,0.,54.3603007645929));
#584=CARTESIAN_POINT('Ctrl Pts',(-1000.,-54.3603007645929,54.3603007645929));
#585=CARTESIAN_POINT('Ctrl Pts',(-1000.,-54.3603007645929,0.));
#586=CARTESIAN_POINT('Ctrl Pts',(-1000.,-54.3603007645929,-54.3603007645929));
#587=CARTESIAN_POINT('Ctrl Pts',(-1000.,0.,-54.3603007645929));
#588=CARTESIAN_POINT('Ctrl Pts',(-1000.,54.3603007645929,-54.3603007645929));
#589=CARTESIAN_POINT('Ctrl Pts',(-1000.,54.3603007645929,0.));
#590=CARTESIAN_POINT('Ctrl Pts',(-1000.,54.3603007645929,54.3603007645929));
#591=CARTESIAN_POINT('Ctrl Pts',(-1000.,0.,54.3603007645929));
#592=CARTESIAN_POINT('Ctrl Pts',(-1037.69181943612,0.,332.427160851221));
#593=CARTESIAN_POINT('Ctrl Pts',(-1037.69181943612,-332.427160851221,332.427160851221));
#594=CARTESIAN_POINT('Ctrl Pts',(-1037.69181943612,-332.427160851221,0.));
#595=CARTESIAN_POINT('Ctrl Pts',(-1037.69181943612,-332.427160851221,-332.427160851221));
#596=CARTESIAN_POINT('Ctrl Pts',(-1037.69181943612,0.,-332.427160851221));
#597=CARTESIAN_POINT('Ctrl Pts',(-1037.69181943612,332.427160851221,-332.427160851221));
#598=CARTESIAN_POINT('Ctrl Pts',(-1037.69181943612,332.427160851221,0.));
#599=CARTESIAN_POINT('Ctrl Pts',(-1037.69181943612,332.427160851221,332.427160851221));
#600=CARTESIAN_POINT('Ctrl Pts',(-1037.69181943612,0.,332.427160851221));
#601=CARTESIAN_POINT('Ctrl Pts',(-1000.,0.,610.494020937849));
#602=CARTESIAN_POINT('Ctrl Pts',(-1000.,-610.494020937849,610.494020937849));
#603=CARTESIAN_POINT('Ctrl Pts',(-1000.,-610.494020937849,0.));
#604=CARTESIAN_POINT('Ctrl Pts',(-1000.,-610.494020937849,-610.494020937849));
#605=CARTESIAN_POINT('Ctrl Pts',(-1000.,0.,-610.494020937849));
#606=CARTESIAN_POINT('Ctrl Pts',(-1000.,610.494020937849,-610.494020937849));
#607=CARTESIAN_POINT('Ctrl Pts',(-1000.,610.494020937849,0.));
#608=CARTESIAN_POINT('Ctrl Pts',(-1000.,610.494020937849,610.494020937849));
#609=CARTESIAN_POINT('Ctrl Pts',(-1000.,0.,610.494020937849));
#610=CARTESIAN_POINT('',(-1000.,6.65721683320463E-15,54.3603007645931));
#611=CARTESIAN_POINT('Origin',(-1000.,0.,0.));
#612=CARTESIAN_POINT('',(-1000.,-7.47639548640134E-14,610.494020937849));
#613=CARTESIAN_POINT('Origin',(1051.40478319116,-4.0710585848609E-14,332.427160851221));
#614=CARTESIAN_POINT('Origin',(-1000.,0.,0.));
#615=CARTESIAN_POINT('Origin',(-1000.,0.,0.));
#616=CARTESIAN_POINT('Origin',(-750.,0.,0.));
#617=CARTESIAN_POINT('',(-750.,-1000.,-1.22464679914735E-13));
#618=CARTESIAN_POINT('Origin',(-750.,0.,0.));
#619=CARTESIAN_POINT('Origin',(0.,0.,0.));
#620=CARTESIAN_POINT('',(-1000.,-1000.,-1.22464679914735E-13));
#621=CARTESIAN_POINT('Origin',(-1000.,0.,0.));
#622=CARTESIAN_POINT('',(-916.618566823268,-1000.,-1.22464679914735E-13));
#623=CARTESIAN_POINT('',(0.,-1000.,1.22464679914735E-13));
#624=CARTESIAN_POINT('',(-916.618566823268,-1.22464679914735E-13,1000.));
#625=CARTESIAN_POINT('Origin',(-916.618566823268,0.,0.));
#626=CARTESIAN_POINT('Origin',(-916.618566823268,0.,0.));
#627=CARTESIAN_POINT('Origin',(0.,0.,0.));
#628=CARTESIAN_POINT('',(-908.168963216166,-1000.,1.22464679914735E-13));
#629=CARTESIAN_POINT('',(-908.168963216166,-1.22464679914735E-13,1000.));
#630=CARTESIAN_POINT('Origin',(-908.168963216166,0.,0.));
#631=CARTESIAN_POINT('',(0.,-1000.,1.22464679914735E-13));
#632=CARTESIAN_POINT('Origin',(-908.168963216166,0.,0.));
#633=CARTESIAN_POINT('Origin',(-1000.,0.,0.));
#634=CARTESIAN_POINT('',(-1000.,8.14211716972182E-14,664.854321702443));
#635=CARTESIAN_POINT('Origin',(-1000.,0.,0.));
#636=CARTESIAN_POINT('Ctrl Pts',(-1000.,0.,0.));
#637=CARTESIAN_POINT('Ctrl Pts',(-1000.,0.,0.));
#638=CARTESIAN_POINT('Ctrl Pts',(-1000.,0.,0.));
#639=CARTESIAN_POINT('Ctrl Pts',(-1000.,0.,0.));
#640=CARTESIAN_POINT('Ctrl Pts',(-1000.,0.,0.));
#641=CARTESIAN_POINT('Ctrl Pts',(-1000.,0.,0.));
#642=CARTESIAN_POINT('Ctrl Pts',(-1000.,0.,0.));
#643=CARTESIAN_POINT('Ctrl Pts',(-1000.,0.,0.));
#644=CARTESIAN_POINT('Ctrl Pts',(-1000.,0.,0.));
#645=CARTESIAN_POINT('Ctrl Pts',(-1053.86933782015,0.,332.42716085122));
#646=CARTESIAN_POINT('Ctrl Pts',(-1053.86933782015,-332.42716085122,332.42716085122));
#647=CARTESIAN_POINT('Ctrl Pts',(-1053.86933782015,-332.42716085122,0.));
#648=CARTESIAN_POINT('Ctrl Pts',(-1053.86933782015,-332.42716085122,-332.42716085122));
#649=CARTESIAN_POINT('Ctrl Pts',(-1053.86933782015,0.,-332.42716085122));
#650=CARTESIAN_POINT('Ctrl Pts',(-1053.86933782015,332.42716085122,-332.42716085122));
#651=CARTESIAN_POINT('Ctrl Pts',(-1053.86933782015,332.42716085122,0.));
#652=CARTESIAN_POINT('Ctrl Pts',(-1053.86933782015,332.42716085122,332.42716085122));
#653=CARTESIAN_POINT('Ctrl Pts',(-1053.86933782015,0.,332.42716085122));
#654=CARTESIAN_POINT('Ctrl Pts',(-1000.,0.,664.854321702443));
#655=CARTESIAN_POINT('Ctrl Pts',(-1000.,-664.854321702443,664.854321702443));
#656=CARTESIAN_POINT('Ctrl Pts',(-1000.,-664.854321702443,0.));
#657=CARTESIAN_POINT('Ctrl Pts',(-1000.,-664.854321702443,-664.854321702443));
#658=CARTESIAN_POINT('Ctrl Pts',(-1000.,0.,-664.854321702443));
#659=CARTESIAN_POINT('Ctrl Pts',(-1000.,664.854321702443,-664.854321702443));
#660=CARTESIAN_POINT('Ctrl Pts',(-1000.,664.854321702443,0.));
#661=CARTESIAN_POINT('Ctrl Pts',(-1000.,664.854321702443,664.854321702443));
#662=CARTESIAN_POINT('Ctrl Pts',(-1000.,0.,664.854321702443));
#663=CARTESIAN_POINT('',(-1000.,2.8421709430404E-13,0.));
#664=CARTESIAN_POINT('Origin',(1051.40478319116,-4.0710585848609E-14,332.427160851221));
#665=CARTESIAN_POINT('Ctrl Pts',(-908.168963216166,0.,1000.));
#666=CARTESIAN_POINT('Ctrl Pts',(-908.168963216166,-1000.,1000.));
#667=CARTESIAN_POINT('Ctrl Pts',(-908.168963216166,-1000.,0.));
#668=CARTESIAN_POINT('Ctrl Pts',(-908.168963216166,-1000.,-1000.));
#669=CARTESIAN_POINT('Ctrl Pts',(-908.168963216166,0.,-1000.));
#670=CARTESIAN_POINT('Ctrl Pts',(-908.168963216166,1000.,-1000.));
#671=CARTESIAN_POINT('Ctrl Pts',(-908.168963216166,1000.,0.));
#672=CARTESIAN_POINT('Ctrl Pts',(-908.168963216166,1000.,1000.));
#673=CARTESIAN_POINT('Ctrl Pts',(-908.168963216166,0.,1000.));
#674=CARTESIAN_POINT('Ctrl Pts',(-660.799587059557,0.,1726.12081671828));
#675=CARTESIAN_POINT('Ctrl Pts',(-660.799587059557,-1726.12081671828,1726.12081671828));
#676=CARTESIAN_POINT('Ctrl Pts',(-660.799587059557,-1726.12081671828,0.));
#677=CARTESIAN_POINT('Ctrl Pts',(-660.799587059557,-1726.12081671828,-1726.12081671828));
#678=CARTESIAN_POINT('Ctrl Pts',(-660.799587059557,0.,-1726.12081671828));
#679=CARTESIAN_POINT('Ctrl Pts',(-660.799587059557,1726.12081671828,-1726.12081671828));
#680=CARTESIAN_POINT('Ctrl Pts',(-660.799587059557,1726.12081671828,0.));
#681=CARTESIAN_POINT('Ctrl Pts',(-660.799587059557,1726.12081671828,1726.12081671828));
#682=CARTESIAN_POINT('Ctrl Pts',(-660.799587059557,0.,1726.12081671828));
#683=CARTESIAN_POINT('Ctrl Pts',(1.4210854715202E-13,0.,2115.7192695818));
#684=CARTESIAN_POINT('Ctrl Pts',(1.4210854715202E-13,-2115.7192695818,2115.7192695818));
#685=CARTESIAN_POINT('Ctrl Pts',(1.4210854715202E-13,-2115.7192695818,0.));
#686=CARTESIAN_POINT('Ctrl Pts',(1.4210854715202E-13,-2115.7192695818,-2115.7192695818));
#687=CARTESIAN_POINT('Ctrl Pts',(1.4210854715202E-13,0.,-2115.7192695818));
#688=CARTESIAN_POINT('Ctrl Pts',(1.4210854715202E-13,2115.7192695818,-2115.7192695818));
#689=CARTESIAN_POINT('Ctrl Pts',(1.4210854715202E-13,2115.7192695818,0.));
#690=CARTESIAN_POINT('Ctrl Pts',(1.4210854715202E-13,2115.7192695818,2115.7192695818));
#691=CARTESIAN_POINT('Ctrl Pts',(1.4210854715202E-13,0.,2115.7192695818));
#692=CARTESIAN_POINT('',(0.,2.59100883138772E-13,2115.7192695818));
#693=CARTESIAN_POINT('Origin',(1051.40478319116,-4.0710585848609E-14,332.427160851221));
#694=CARTESIAN_POINT('Origin',(0.,0.,0.));
#695=CARTESIAN_POINT('Ctrl Pts',(-916.618566823268,0.,1000.));
#696=CARTESIAN_POINT('Ctrl Pts',(-916.618566823268,-999.999999999999,999.999999999999));
#697=CARTESIAN_POINT('Ctrl Pts',(-916.618566823268,-1000.,0.));
#698=CARTESIAN_POINT('Ctrl Pts',(-916.618566823268,-999.999999999999,-999.999999999999));
#699=CARTESIAN_POINT('Ctrl Pts',(-916.618566823268,0.,-1000.));
#700=CARTESIAN_POINT('Ctrl Pts',(-916.618566823268,999.999999999999,-999.999999999999));
#701=CARTESIAN_POINT('Ctrl Pts',(-916.618566823268,1000.,0.));
#702=CARTESIAN_POINT('Ctrl Pts',(-916.618566823268,999.999999999999,999.999999999999));
#703=CARTESIAN_POINT('Ctrl Pts',(-916.618566823268,0.,1000.));
#704=CARTESIAN_POINT('Ctrl Pts',(-667.889532413347,0.,1733.26013108837));
#705=CARTESIAN_POINT('Ctrl Pts',(-667.889532413347,-1733.26013108837,1733.26013108837));
#706=CARTESIAN_POINT('Ctrl Pts',(-667.889532413346,-1733.26013108837,0.));
#707=CARTESIAN_POINT('Ctrl Pts',(-667.889532413346,-1733.26013108837,-1733.26013108837));
#708=CARTESIAN_POINT('Ctrl Pts',(-667.889532413346,0.,-1733.26013108837));
#709=CARTESIAN_POINT('Ctrl Pts',(-667.889532413346,1733.26013108837,-1733.26013108837));
#710=CARTESIAN_POINT('Ctrl Pts',(-667.889532413346,1733.26013108837,0.));
#711=CARTESIAN_POINT('Ctrl Pts',(-667.889532413347,1733.26013108837,1733.26013108837));
#712=CARTESIAN_POINT('Ctrl Pts',(-667.889532413347,0.,1733.26013108837));
#713=CARTESIAN_POINT('Ctrl Pts',(-2.8421709430404E-13,0.,2125.));
#714=CARTESIAN_POINT('Ctrl Pts',(-2.8421709430404E-13,-2125.,2125.));
#715=CARTESIAN_POINT('Ctrl Pts',(-2.8421709430404E-13,-2125.,0.));
#716=CARTESIAN_POINT('Ctrl Pts',(-2.8421709430404E-13,-2125.,-2125.));
#717=CARTESIAN_POINT('Ctrl Pts',(-2.8421709430404E-13,0.,-2125.));
#718=CARTESIAN_POINT('Ctrl Pts',(-2.8421709430404E-13,2125.,-2125.));
#719=CARTESIAN_POINT('Ctrl Pts',(-2.8421709430404E-13,2125.,0.));
#720=CARTESIAN_POINT('Ctrl Pts',(-2.8421709430404E-13,2125.,2125.));
#721=CARTESIAN_POINT('Ctrl Pts',(-2.8421709430404E-13,0.,2125.));
#722=CARTESIAN_POINT('',(-1.4210854715202E-13,-2.60237444818813E-13,2125.));
#723=CARTESIAN_POINT('Origin',(-1.4210854715202E-13,0.,0.));
#724=CARTESIAN_POINT('Origin',(1051.40478319116,-4.0710585848609E-14,332.427160851221));
#725=CARTESIAN_POINT('Origin',(0.,0.,0.));
#726=CARTESIAN_POINT('',(0.,0.,0.));
#727=CARTESIAN_POINT('Ctrl Pts',(-873.409104918981,-588.634289323796,948.04374009073));
#728=CARTESIAN_POINT('Ctrl Pts',(-873.409104918981,-1115.9167586664,620.657430272709));
#729=CARTESIAN_POINT('Ctrl Pts',(-873.409104918981,-1115.91991632945,0.00567741743689876));
#730=CARTESIAN_POINT('Ctrl Pts',(-873.409104918981,-1115.92307399249,-620.646075437836));
#731=CARTESIAN_POINT('Ctrl Pts',(-873.409104918981,-588.643935935492,-948.037750503282));
#732=CARTESIAN_POINT('Ctrl Pts',(-611.608097952118,-927.898149741794,1494.45597760714));
#733=CARTESIAN_POINT('Ctrl Pts',(-611.608097952118,-1759.08389030804,978.378072122041));
#734=CARTESIAN_POINT('Ctrl Pts',(-611.608097952118,-1759.08886791426,0.00894964026146343));
#735=CARTESIAN_POINT('Ctrl Pts',(-611.608097952118,-1759.09384552048,-978.360172841519));
#736=CARTESIAN_POINT('Ctrl Pts',(-611.608097952118,-927.913356251687,-1494.4465358753));
#737=CARTESIAN_POINT('Ctrl Pts',(-15.7437712228941,-1115.99162747821,1797.39593090948));
#738=CARTESIAN_POINT('Ctrl Pts',(-15.7437712228941,-2115.66635213343,1176.70429378516));
#739=CARTESIAN_POINT('Ctrl Pts',(-15.7437712228941,-2115.67233874615,0.0107638145452865));
#740=CARTESIAN_POINT('Ctrl Pts',(-15.7437712228941,-2115.67832535887,-1176.68276615607));
#741=CARTESIAN_POINT('Ctrl Pts',(-15.7437712228941,-1116.00991648734,-1797.38457525188));
#742=CARTESIAN_POINT('',(-15.7437712228955,-1140.91991634389,1781.67651091361));
#743=CARTESIAN_POINT('',(-15.801185542381,-1140.91991634389,-1781.63570990396));
#744=CARTESIAN_POINT('Ctrl Pts',(-15.7437712228951,-1140.91991634389,1781.67651091361));
#745=CARTESIAN_POINT('Ctrl Pts',(-34.6841228324515,-1140.91991634389,1768.21724378898));
#746=CARTESIAN_POINT('Ctrl Pts',(-53.0679515995182,-1140.91991634389,1754.62079259068));
#747=CARTESIAN_POINT('Ctrl Pts',(-91.9491250668364,-1140.91991634389,1724.79554147362));
#748=CARTESIAN_POINT('Ctrl Pts',(-113.231319335566,-1140.91991634389,1707.75293229027));
#749=CARTESIAN_POINT('Ctrl Pts',(-155.71518300619,-1140.91991634389,1672.13379432752));
#750=CARTESIAN_POINT('Ctrl Pts',(-176.916788950643,-1140.91991634389,1653.55718986086));
#751=CARTESIAN_POINT('Ctrl Pts',(-218.897452358884,-1140.91991634389,1615.04205099863));
#752=CARTESIAN_POINT('Ctrl Pts',(-239.67695504649,-1140.91991634389,1595.10303598815));
#753=CARTESIAN_POINT('Ctrl Pts',(-280.511840655418,-1140.91991634389,1554.07736677952));
#754=CARTESIAN_POINT('Ctrl Pts',(-300.567214281564,-1140.91991634389,1532.9907033294));
#755=CARTESIAN_POINT('Ctrl Pts',(-339.693594498205,-1140.91991634389,1489.92700737443));
#756=CARTESIAN_POINT('Ctrl Pts',(-358.76852839171,-1140.91991634389,1467.94568999448));
#757=CARTESIAN_POINT('Ctrl Pts',(-395.724686623771,-1140.91991634389,1423.38003553367));
#758=CARTESIAN_POINT('Ctrl Pts',(-413.605958055055,-1140.91991634389,1400.79573750458));
#759=CARTESIAN_POINT('Ctrl Pts',(-448.002439955964,-1140.91991634389,1355.35722926159));
#760=CARTESIAN_POINT('Ctrl Pts',(-464.518096999213,-1140.91991634389,1332.50260223766));
#761=CARTESIAN_POINT('Ctrl Pts',(-496.056152805958,-1140.91991634389,1286.88900671144));
#762=CARTESIAN_POINT('Ctrl Pts',(-511.078677085352,-1140.91991634389,1264.13012499319));
#763=CARTESIAN_POINT('Ctrl Pts',(-542.727645964845,-1140.91991634389,1214.07044321894));
#764=CARTESIAN_POINT('Ctrl Pts',(-560.309469267962,-1140.91991634389,1184.74129278341));
#765=CARTESIAN_POINT('Ctrl Pts',(-594.649004026719,-1140.91991634389,1123.79954212635));
#766=CARTESIAN_POINT('Ctrl Pts',(-611.406048343042,-1140.91991634389,1092.18656598671));
#767=CARTESIAN_POINT('Ctrl Pts',(-643.228923404548,-1140.91991634389,1028.12171848462));
#768=CARTESIAN_POINT('Ctrl Pts',(-658.297066097744,-1140.91991634389,995.666372728937));
#769=CARTESIAN_POINT('Ctrl Pts',(-686.18198713285,-1140.91991634389,931.503694783986));
#770=CARTESIAN_POINT('Ctrl Pts',(-699.000313722612,-1140.91991634389,899.797035470026));
#771=CARTESIAN_POINT('Ctrl Pts',(-722.897731922902,-1140.91991634389,836.749632352201));
#772=CARTESIAN_POINT('Ctrl Pts',(-734.736048389894,-1140.91991634389,803.130573858848));
#773=CARTESIAN_POINT('Ctrl Pts',(-757.089120948057,-1140.91991634389,734.210201698682));
#774=CARTESIAN_POINT('Ctrl Pts',(-767.603885870204,-1140.91991634389,698.908890896038));
#775=CARTESIAN_POINT('Ctrl Pts',(-787.088996932105,-1140.91991634389,627.062230070295));
#776=CARTESIAN_POINT('Ctrl Pts',(-796.059770609232,-1140.91991634389,590.515908152907));
#777=CARTESIAN_POINT('Ctrl Pts',(-812.322038662285,-1140.91991634389,516.638349579642));
#778=CARTESIAN_POINT('Ctrl Pts',(-819.613815937416,-1140.91991634389,479.307175197124));
#779=CARTESIAN_POINT('Ctrl Pts',(-832.462747491724,-1140.91991634389,404.33867181685));
#780=CARTESIAN_POINT('Ctrl Pts',(-838.021517874307,-1140.91991634389,366.694248228568));
#781=CARTESIAN_POINT('Ctrl Pts',(-847.420824436497,-1140.91991634389,291.571460274795));
#782=CARTESIAN_POINT('Ctrl Pts',(-851.261713366571,-1140.91991634389,254.093140045597));
#783=CARTESIAN_POINT('Ctrl Pts',(-857.298699909845,-1140.91991634389,179.79650481386));
#784=CARTESIAN_POINT('Ctrl Pts',(-859.495084775153,-1140.91991634389,142.977649681662));
#785=CARTESIAN_POINT('Ctrl Pts',(-862.367007597574,-1140.91991634389,70.4965171764662));
#786=CARTESIAN_POINT('Ctrl Pts',(-863.042621698054,-1140.91991634389,34.8342428205198));
#787=CARTESIAN_POINT('Ctrl Pts',(-863.042621698054,-1140.91991634389,0.));
#788=CARTESIAN_POINT('Ctrl Pts',(-863.042621698054,-1140.91991634389,-34.8342428205196));
#789=CARTESIAN_POINT('Ctrl Pts',(-862.367007597574,-1140.91991634389,-70.4965171764658));
#790=CARTESIAN_POINT('Ctrl Pts',(-859.495084775153,-1140.91991634389,-142.977649681662));
#791=CARTESIAN_POINT('Ctrl Pts',(-857.298699909845,-1140.91991634389,-179.796504813861));
#792=CARTESIAN_POINT('Ctrl Pts',(-851.261713366571,-1140.91991634389,-254.093140045598));
#793=CARTESIAN_POINT('Ctrl Pts',(-847.420824436497,-1140.91991634389,-291.571460274796));
#794=CARTESIAN_POINT('Ctrl Pts',(-838.021517874307,-1140.91991634389,-366.694248228569));
#795=CARTESIAN_POINT('Ctrl Pts',(-832.462747491724,-1140.91991634389,-404.33867181685));
#796=CARTESIAN_POINT('Ctrl Pts',(-819.613815937416,-1140.91991634389,-479.307175197124));
#797=CARTESIAN_POINT('Ctrl Pts',(-812.322038662285,-1140.91991634389,-516.638349579642));
#798=CARTESIAN_POINT('Ctrl Pts',(-796.059770609232,-1140.91991634389,-590.515908152906));
#799=CARTESIAN_POINT('Ctrl Pts',(-787.088996932105,-1140.91991634389,-627.062230070294));
#800=CARTESIAN_POINT('Ctrl Pts',(-767.603885870204,-1140.91991634389,-698.908890896037));
#801=CARTESIAN_POINT('Ctrl Pts',(-757.089120948056,-1140.91991634389,-734.210201698682));
#802=CARTESIAN_POINT('Ctrl Pts',(-734.736048389893,-1140.91991634389,-803.130573858848));
#803=CARTESIAN_POINT('Ctrl Pts',(-722.897731922902,-1140.91991634389,-836.749632352202));
#804=CARTESIAN_POINT('Ctrl Pts',(-699.000313722612,-1140.91991634389,-899.797035470026));
#805=CARTESIAN_POINT('Ctrl Pts',(-686.18198713285,-1140.91991634389,-931.503694783986));
#806=CARTESIAN_POINT('Ctrl Pts',(-658.297066097744,-1140.91991634389,-995.666372728937));
#807=CARTESIAN_POINT('Ctrl Pts',(-643.228923404548,-1140.91991634389,-1028.12171848462));
#808=CARTESIAN_POINT('Ctrl Pts',(-611.406048343041,-1140.91991634389,-1092.18656598672));
#809=CARTESIAN_POINT('Ctrl Pts',(-594.649004026719,-1140.91991634389,-1123.79954212635));
#810=CARTESIAN_POINT('Ctrl Pts',(-560.309469267962,-1140.91991634389,-1184.74129278342));
#811=CARTESIAN_POINT('Ctrl Pts',(-542.727645964845,-1140.91991634389,-1214.07044321894));
#812=CARTESIAN_POINT('Ctrl Pts',(-511.078677085352,-1140.91991634389,-1264.13012499319));
#813=CARTESIAN_POINT('Ctrl Pts',(-496.056152805959,-1140.91991634389,-1286.88900671144));
#814=CARTESIAN_POINT('Ctrl Pts',(-464.518096999213,-1140.91991634389,-1332.50260223766));
#815=CARTESIAN_POINT('Ctrl Pts',(-448.002439955965,-1140.91991634389,-1355.35722926159));
#816=CARTESIAN_POINT('Ctrl Pts',(-413.605958055056,-1140.91991634389,-1400.79573750458));
#817=CARTESIAN_POINT('Ctrl Pts',(-395.724686623771,-1140.91991634389,-1423.38003553367));
#818=CARTESIAN_POINT('Ctrl Pts',(-358.76852839171,-1140.91991634389,-1467.94568999448));
#819=CARTESIAN_POINT('Ctrl Pts',(-339.693594498206,-1140.91991634389,-1489.92700737443));
#820=CARTESIAN_POINT('Ctrl Pts',(-300.567214281565,-1140.91991634389,-1532.9907033294));
#821=CARTESIAN_POINT('Ctrl Pts',(-280.511840655418,-1140.91991634389,-1554.07736677952));
#822=CARTESIAN_POINT('Ctrl Pts',(-239.676955046491,-1140.91991634389,-1595.10303598815));
#823=CARTESIAN_POINT('Ctrl Pts',(-218.897452358884,-1140.91991634389,-1615.04205099863));
#824=CARTESIAN_POINT('Ctrl Pts',(-176.916788950643,-1140.91991634389,-1653.55718986086));
#825=CARTESIAN_POINT('Ctrl Pts',(-155.71518300619,-1140.91991634389,-1672.13379432751));
#826=CARTESIAN_POINT('Ctrl Pts',(-113.231319335566,-1140.91991634389,-1707.75293229027));
#827=CARTESIAN_POINT('Ctrl Pts',(-91.9491250668365,-1140.91991634389,-1724.79554147362));
#828=CARTESIAN_POINT('Ctrl Pts',(-53.0858851994096,-1140.91991634389,-1754.60703595547));
#829=CARTESIAN_POINT('Ctrl Pts',(-34.7212764143123,-1140.91991634389,-1768.18976835037));
#830=CARTESIAN_POINT('Ctrl Pts',(-15.8011855423811,-1140.91991634389,-1781.63570990396));
#831=CARTESIAN_POINT('',(-15.9709132355161,-1115.91991634389,1797.28043425354));
#832=CARTESIAN_POINT('Ctrl Pts',(-15.9709132355163,-1115.91991634389,1797.28043425354));
#833=CARTESIAN_POINT('Ctrl Pts',(-16.0109687848321,-1124.2534724514,1792.07795938409));
#834=CARTESIAN_POINT('Ctrl Pts',(-15.9352507054697,-1132.58694549319,1786.87657018477));
#835=CARTESIAN_POINT('Ctrl Pts',(-15.7437712228942,-1140.91991634389,1781.67651091361));
#836=CARTESIAN_POINT('',(-16.0288277283001,-1115.91991634389,-1797.23962593986));
#837=CARTESIAN_POINT('Ctrl Pts',(-16.0288277283003,-1115.91991634389,-1797.23962593986));
#838=CARTESIAN_POINT('Ctrl Pts',(-17.9828947267016,-1115.91991634389,-1795.86267579068));
#839=CARTESIAN_POINT('Ctrl Pts',(-19.9313424083107,-1115.91991634389,-1794.48410879737));
#840=CARTESIAN_POINT('Ctrl Pts',(-42.4854889347306,-1115.91991634389,-1778.46228186501));
#841=CARTESIAN_POINT('Ctrl Pts',(-62.4532594300608,-1115.91991634389,-1763.65023008278));
#842=CARTESIAN_POINT('Ctrl Pts',(-102.918432272346,-1115.91991634389,-1732.42938939613));
#843=CARTESIAN_POINT('Ctrl Pts',(-124.306081972258,-1115.91991634389,-1715.20246596479));
#844=CARTESIAN_POINT('Ctrl Pts',(-166.994168217902,-1115.91991634389,-1679.20229974196));
#845=CARTESIAN_POINT('Ctrl Pts',(-188.294540390951,-1115.91991634389,-1660.42898061903));
#846=CARTESIAN_POINT('Ctrl Pts',(-230.463759946398,-1115.91991634389,-1621.51016361671));
#847=CARTESIAN_POINT('Ctrl Pts',(-251.33305573308,-1115.91991634389,-1601.36417837174));
#848=CARTESIAN_POINT('Ctrl Pts',(-292.336748055994,-1115.91991634389,-1559.91672214612));
#849=CARTESIAN_POINT('Ctrl Pts',(-312.471134770009,-1115.91991634389,-1538.61524144842));
#850=CARTESIAN_POINT('Ctrl Pts',(-351.743464570483,-1115.91991634389,-1495.11673150795));
#851=CARTESIAN_POINT('Ctrl Pts',(-370.885366475673,-1115.91991634389,-1472.91535435199));
#852=CARTESIAN_POINT('Ctrl Pts',(-407.962669306365,-1115.91991634389,-1427.90717165659));
#853=CARTESIAN_POINT('Ctrl Pts',(-425.89811726731,-1115.91991634389,-1405.1004048645));
#854=CARTESIAN_POINT('Ctrl Pts',(-460.389944981715,-1115.91991634389,-1359.21766536696));
#855=CARTESIAN_POINT('Ctrl Pts',(-476.946774671614,-1115.91991634389,-1336.14126844415));
#856=CARTESIAN_POINT('Ctrl Pts',(-508.554527585423,-1115.91991634389,-1290.08813351837));
#857=CARTESIAN_POINT('Ctrl Pts',(-523.605577420808,-1115.91991634389,-1267.11148241307));
#858=CARTESIAN_POINT('Ctrl Pts',(-555.247754754398,-1115.91991634389,-1216.66703169298));
#859=CARTESIAN_POINT('Ctrl Pts',(-572.795029117193,-1115.91991634389,-1187.15982814969));
#860=CARTESIAN_POINT('Ctrl Pts',(-607.055478984496,-1115.91991634389,-1125.85650033287));
#861=CARTESIAN_POINT('Ctrl Pts',(-623.767980125238,-1115.91991634389,-1094.05999918163));
#862=CARTESIAN_POINT('Ctrl Pts',(-655.493613132968,-1115.91991634389,-1029.63136107025));
#863=CARTESIAN_POINT('Ctrl Pts',(-670.509052043177,-1115.91991634389,-996.995732770521));
#864=CARTESIAN_POINT('Ctrl Pts',(-698.28391456724,-1115.91991634389,-932.483966845482));
#865=CARTESIAN_POINT('Ctrl Pts',(-711.044901721628,-1115.91991634389,-900.608502397336));
#866=CARTESIAN_POINT('Ctrl Pts',(-734.778366940954,-1115.91991634389,-837.353240657786));
#867=CARTESIAN_POINT('Ctrl Pts',(-746.510597245806,-1115.91991634389,-803.687912104195));
#868=CARTESIAN_POINT('Ctrl Pts',(-768.655869229401,-1115.91991634389,-734.680300624073));
#869=CARTESIAN_POINT('Ctrl Pts',(-779.068915631524,-1115.91991634389,-699.338019213325));
#870=CARTESIAN_POINT('Ctrl Pts',(-798.358214543996,-1115.91991634389,-627.415031096692));
#871=CARTESIAN_POINT('Ctrl Pts',(-807.234891442124,-1115.91991634389,-590.833357122237));
#872=CARTESIAN_POINT('Ctrl Pts',(-823.320089236131,-1115.91991634389,-516.890839650446));
#873=CARTESIAN_POINT('Ctrl Pts',(-830.528903009317,-1115.91991634389,-479.530059864923));
#874=CARTESIAN_POINT('Ctrl Pts',(-843.22661739946,-1115.91991634389,-404.508022725635));
#875=CARTESIAN_POINT('Ctrl Pts',(-848.717116946897,-1115.91991634389,-366.839801644136));
#876=CARTESIAN_POINT('Ctrl Pts',(-857.997790783414,-1115.91991634389,-291.674925766941));
#877=CARTESIAN_POINT('Ctrl Pts',(-861.788340499128,-1115.91991634389,-254.178317325979));
#878=CARTESIAN_POINT('Ctrl Pts',(-867.744764714504,-1115.91991634389,-179.849954932996));
#879=CARTESIAN_POINT('Ctrl Pts',(-869.910940005667,-1115.91991634389,-143.017684807027));
#880=CARTESIAN_POINT('Ctrl Pts',(-872.743071693669,-1115.91991634389,-70.5137534528774));
#881=CARTESIAN_POINT('Ctrl Pts',(-873.409104918981,-1115.91991634389,-34.8420952257728));
#882=CARTESIAN_POINT('Ctrl Pts',(-873.409104918981,-1115.91991634389,0.));
#883=CARTESIAN_POINT('Ctrl Pts',(-873.409104918981,-1115.91991634389,34.8420952257732));
#884=CARTESIAN_POINT('Ctrl Pts',(-872.743071693669,-1115.91991634389,70.5137534528784));
#885=CARTESIAN_POINT('Ctrl Pts',(-869.910940005667,-1115.91991634389,143.017684807029));
#886=CARTESIAN_POINT('Ctrl Pts',(-867.744764714504,-1115.91991634389,179.849954932997));
#887=CARTESIAN_POINT('Ctrl Pts',(-861.788340499128,-1115.91991634389,254.17831732598));
#888=CARTESIAN_POINT('Ctrl Pts',(-857.997790783414,-1115.91991634389,291.674925766941));
#889=CARTESIAN_POINT('Ctrl Pts',(-848.717116946897,-1115.91991634389,366.839801644136));
#890=CARTESIAN_POINT('Ctrl Pts',(-843.22661739946,-1115.91991634389,404.508022725634));
#891=CARTESIAN_POINT('Ctrl Pts',(-830.528903009317,-1115.91991634389,479.530059864921));
#892=CARTESIAN_POINT('Ctrl Pts',(-823.320089236131,-1115.91991634389,516.890839650444));
#893=CARTESIAN_POINT('Ctrl Pts',(-807.234891442124,-1115.91991634389,590.833357122236));
#894=CARTESIAN_POINT('Ctrl Pts',(-798.358214543997,-1115.91991634389,627.415031096691));
#895=CARTESIAN_POINT('Ctrl Pts',(-779.068915631524,-1115.91991634389,699.338019213325));
#896=CARTESIAN_POINT('Ctrl Pts',(-768.655869229401,-1115.91991634389,734.680300624074));
#897=CARTESIAN_POINT('Ctrl Pts',(-746.510597245806,-1115.91991634389,803.687912104196));
#898=CARTESIAN_POINT('Ctrl Pts',(-734.778366940954,-1115.91991634389,837.353240657786));
#899=CARTESIAN_POINT('Ctrl Pts',(-711.044901721627,-1115.91991634389,900.608502397336));
#900=CARTESIAN_POINT('Ctrl Pts',(-698.28391456724,-1115.91991634389,932.483966845482));
#901=CARTESIAN_POINT('Ctrl Pts',(-670.509052043176,-1115.91991634389,996.995732770522));
#902=CARTESIAN_POINT('Ctrl Pts',(-655.493613132968,-1115.91991634389,1029.63136107025));
#903=CARTESIAN_POINT('Ctrl Pts',(-623.767980125238,-1115.91991634389,1094.05999918163));
#904=CARTESIAN_POINT('Ctrl Pts',(-607.055478984496,-1115.91991634389,1125.85650033287));
#905=CARTESIAN_POINT('Ctrl Pts',(-572.795029117194,-1115.91991634389,1187.15982814969));
#906=CARTESIAN_POINT('Ctrl Pts',(-555.247754754398,-1115.91991634389,1216.66703169298));
#907=CARTESIAN_POINT('Ctrl Pts',(-523.605577420808,-1115.91991634389,1267.11148241307));
#908=CARTESIAN_POINT('Ctrl Pts',(-508.554527585423,-1115.91991634389,1290.08813351837));
#909=CARTESIAN_POINT('Ctrl Pts',(-476.946774671614,-1115.91991634389,1336.14126844415));
#910=CARTESIAN_POINT('Ctrl Pts',(-460.389944981716,-1115.91991634389,1359.21766536695));
#911=CARTESIAN_POINT('Ctrl Pts',(-425.898117267311,-1115.91991634389,1405.1004048645));
#912=CARTESIAN_POINT('Ctrl Pts',(-407.962669306365,-1115.91991634389,1427.90717165659));
#913=CARTESIAN_POINT('Ctrl Pts',(-370.885366475672,-1115.91991634389,1472.91535435199));
#914=CARTESIAN_POINT('Ctrl Pts',(-351.743464570483,-1115.91991634389,1495.11673150795));
#915=CARTESIAN_POINT('Ctrl Pts',(-312.471134770008,-1115.91991634389,1538.61524144842));
#916=CARTESIAN_POINT('Ctrl Pts',(-292.336748055994,-1115.91991634389,1559.91672214612));
#917=CARTESIAN_POINT('Ctrl Pts',(-251.33305573308,-1115.91991634389,1601.36417837174));
#918=CARTESIAN_POINT('Ctrl Pts',(-230.463759946398,-1115.91991634389,1621.51016361671));
#919=CARTESIAN_POINT('Ctrl Pts',(-188.29454039095,-1115.91991634389,1660.42898061903));
#920=CARTESIAN_POINT('Ctrl Pts',(-166.994168217901,-1115.91991634389,1679.20229974196));
#921=CARTESIAN_POINT('Ctrl Pts',(-124.306081972258,-1115.91991634389,1715.20246596479));
#922=CARTESIAN_POINT('Ctrl Pts',(-102.918432272345,-1115.91991634389,1732.42938939613));
#923=CARTESIAN_POINT('Ctrl Pts',(-62.4532594300608,-1115.91991634389,1763.65023008278));
#924=CARTESIAN_POINT('Ctrl Pts',(-42.4854889347302,-1115.91991634389,1778.46228186501));
#925=CARTESIAN_POINT('Ctrl Pts',(-19.9121500372681,-1115.91991634389,1794.49774251421));
#926=CARTESIAN_POINT('Ctrl Pts',(-17.9443966298293,-1115.91991634389,1795.88991344538));
#927=CARTESIAN_POINT('Ctrl Pts',(-15.9709132355163,-1115.91991634389,1797.28043425354));
#928=CARTESIAN_POINT('Ctrl Pts',(-15.8011855423816,-1140.91991634389,-1781.63570990396));
#929=CARTESIAN_POINT('Ctrl Pts',(-15.9928303711141,-1132.58694548856,-1786.83576302459));
#930=CARTESIAN_POINT('Ctrl Pts',(-16.068715165349,-1124.25347243922,-1792.03714979415));
#931=CARTESIAN_POINT('Ctrl Pts',(-16.0288277283004,-1115.91991634389,-1797.23962593986));
#932=CARTESIAN_POINT('Origin',(0.,-1115.91991634389,0.02014636876982));
#933=CARTESIAN_POINT('',(0.,-1115.91991634389,-1797.31110091906));
#934=CARTESIAN_POINT('',(0.,-1115.91991634389,1797.3513936566));
#935=CARTESIAN_POINT('',(0.,-1115.91991634389,0.0201463687698744));
#936=CARTESIAN_POINT('Origin',(0.,-1115.91991634389,0.02014636876982));
#937=CARTESIAN_POINT('Origin',(0.,-1115.91991634389,0.02014636876982));
#938=CARTESIAN_POINT('Origin',(0.,-1140.91991634389,1781.7460702009));
#939=CARTESIAN_POINT('',(0.,-1140.91991634389,1781.7460702009));
#940=CARTESIAN_POINT('',(0.,-1140.91991634389,-1781.70577746336));
#941=CARTESIAN_POINT('',(0.,-1140.91991634389,890.883108284836));
#942=CARTESIAN_POINT('Origin',(0.,-1140.91991634389,0.02014636876982));
#943=CARTESIAN_POINT('Origin',(0.,-1140.91991634389,0.02014636876982));
#944=CARTESIAN_POINT('Origin',(0.,-1128.41991634389,0.02014636876982));
#945=CARTESIAN_POINT('',(0.,-1128.41991634389,-1789.50843919121));
#946=CARTESIAN_POINT('Origin',(0.,-1128.41991634389,0.02014636876982));
#947=CARTESIAN_POINT('',(0.,-1128.41991634389,1789.54873192875));
#948=CARTESIAN_POINT('Origin',(0.,-1128.41991100634,0.0201463687699288));
#949=CARTESIAN_POINT('',(0.,0.,0.));
#950=CARTESIAN_POINT('Origin',(0.,0.,0.));
#951=CARTESIAN_POINT('',(0.,-1115.70764703659,-1799.1346381925));
#952=CARTESIAN_POINT('',(0.,-1115.9337250371,1798.99441948129));
#953=CARTESIAN_POINT('Origin',(0.,0.,0.));
#954=CARTESIAN_POINT('',(-8.,-1115.70764703659,-1799.1346381925));
#955=CARTESIAN_POINT('',(0.,-1115.70764703659,-1799.1346381925));
#956=CARTESIAN_POINT('',(-8.,-1115.9337250371,1798.99441948129));
#957=CARTESIAN_POINT('Origin',(-8.,0.,0.));
#958=CARTESIAN_POINT('',(0.,-1115.9337250371,1798.99441948129));
#959=CARTESIAN_POINT('Origin',(0.,-1115.9337250371,750.));
#960=CARTESIAN_POINT('',(0.,-1115.9337250371,750.));
#961=CARTESIAN_POINT('',(0.,-1115.9337250371,0.));
#962=CARTESIAN_POINT('',(-8.,-1115.9337250371,750.));
#963=CARTESIAN_POINT('',(-8.,-1115.9337250371,0.));
#964=CARTESIAN_POINT('',(0.,-1115.9337250371,750.));
#965=CARTESIAN_POINT('Origin',(0.,884.066274962903,750.));
#966=CARTESIAN_POINT('',(0.,884.066274962903,750.));
#967=CARTESIAN_POINT('',(0.,-1115.9337250371,750.));
#968=CARTESIAN_POINT('',(-8.,884.066274962903,750.));
#969=CARTESIAN_POINT('',(-8.,-1115.9337250371,750.));
#970=CARTESIAN_POINT('',(0.,884.066274962903,750.));
#971=CARTESIAN_POINT('Origin',(0.,884.066274962903,-749.832534813559));
#972=CARTESIAN_POINT('',(0.,884.066274962903,-749.832534813559));
#973=CARTESIAN_POINT('',(0.,884.066274962903,0.));
#974=CARTESIAN_POINT('',(-8.,884.066274962903,-749.832534813559));
#975=CARTESIAN_POINT('',(-8.,884.066274962903,0.));
#976=CARTESIAN_POINT('',(0.,884.066274962903,-749.832534813559));
#977=CARTESIAN_POINT('Origin',(0.,-1115.83940666754,-750.083720747598));
#978=CARTESIAN_POINT('',(0.,-1115.83940666754,-750.083720747598));
#979=CARTESIAN_POINT('',(0.,-1115.9337250371,-750.083732593881));
#980=CARTESIAN_POINT('',(-8.,-1115.83940666754,-750.083720747598));
#981=CARTESIAN_POINT('',(-8.,-1115.9337250371,-750.083732593881));
#982=CARTESIAN_POINT('',(0.,-1115.83940666754,-750.083720747598));
#983=CARTESIAN_POINT('Origin',(0.,-1115.70764703659,-1799.1346381925));
#984=CARTESIAN_POINT('',(0.,-1115.9337250371,0.865347609922536));
#985=CARTESIAN_POINT('',(-8.,-1115.9337250371,0.865347609922536));
#986=CARTESIAN_POINT('Origin',(0.,500.533137481451,0.));
#987=CARTESIAN_POINT('Origin',(-8.,500.533137481451,0.));
#988=CARTESIAN_POINT('',(0.,0.,0.));
#989=CARTESIAN_POINT('',(0.,0.,0.));
#990=CARTESIAN_POINT('',(0.,0.,0.));
#991=UNCERTAINTY_MEASURE_WITH_UNIT(LENGTH_MEASURE(0.01),#1001,
'DISTANCE_ACCURACY_VALUE',
'Maximum model space distance between geometric entities at asserted c
onnectivities');
#992=UNCERTAINTY_MEASURE_WITH_UNIT(LENGTH_MEASURE(0.01),#1001,
'DISTANCE_ACCURACY_VALUE',
'Maximum model space distance between geometric entities at asserted c
onnectivities');
#993=UNCERTAINTY_MEASURE_WITH_UNIT(LENGTH_MEASURE(0.01),#1001,
'DISTANCE_ACCURACY_VALUE',
'Maximum model space distance between geometric entities at asserted c
onnectivities');
#994=UNCERTAINTY_MEASURE_WITH_UNIT(LENGTH_MEASURE(0.01),#1001,
'DISTANCE_ACCURACY_VALUE',
'Maximum model space distance between geometric entities at asserted c
onnectivities');
#995=UNCERTAINTY_MEASURE_WITH_UNIT(LENGTH_MEASURE(0.01),#1001,
'DISTANCE_ACCURACY_VALUE',
'Maximum model space distance between geometric entities at asserted c
onnectivities');
#996=(
GEOMETRIC_REPRESENTATION_CONTEXT(3)
GLOBAL_UNCERTAINTY_ASSIGNED_CONTEXT((#991))
GLOBAL_UNIT_ASSIGNED_CONTEXT((#1001,#1003,#1004))
REPRESENTATION_CONTEXT('','3D')
);
#997=(
GEOMETRIC_REPRESENTATION_CONTEXT(3)
GLOBAL_UNCERTAINTY_ASSIGNED_CONTEXT((#992))
GLOBAL_UNIT_ASSIGNED_CONTEXT((#1001,#1003,#1004))
REPRESENTATION_CONTEXT('','3D')
);
#998=(
GEOMETRIC_REPRESENTATION_CONTEXT(3)
GLOBAL_UNCERTAINTY_ASSIGNED_CONTEXT((#993))
GLOBAL_UNIT_ASSIGNED_CONTEXT((#1001,#1003,#1004))
REPRESENTATION_CONTEXT('','3D')
);
#999=(
GEOMETRIC_REPRESENTATION_CONTEXT(3)
GLOBAL_UNCERTAINTY_ASSIGNED_CONTEXT((#994))
GLOBAL_UNIT_ASSIGNED_CONTEXT((#1001,#1003,#1004))
REPRESENTATION_CONTEXT('','3D')
);
#1000=(
GEOMETRIC_REPRESENTATION_CONTEXT(3)
GLOBAL_UNCERTAINTY_ASSIGNED_CONTEXT((#995))
GLOBAL_UNIT_ASSIGNED_CONTEXT((#1001,#1003,#1004))
REPRESENTATION_CONTEXT('','3D')
);
#1001=(
LENGTH_UNIT()
NAMED_UNIT(*)
SI_UNIT(.MILLI.,.METRE.)
);
#1002=(
LENGTH_UNIT()
NAMED_UNIT(*)
SI_UNIT($,.METRE.)
);
#1003=(
NAMED_UNIT(*)
PLANE_ANGLE_UNIT()
SI_UNIT($,.RADIAN.)
);
#1004=(
NAMED_UNIT(*)
SI_UNIT($,.STERADIAN.)
SOLID_ANGLE_UNIT()
);
#1005=SHAPE_DEFINITION_REPRESENTATION(#1009,#1016);
#1006=SHAPE_DEFINITION_REPRESENTATION(#1010,#1017);
#1007=SHAPE_DEFINITION_REPRESENTATION(#1011,#1018);
#1008=SHAPE_DEFINITION_REPRESENTATION(#1012,#1019);
#1009=PRODUCT_DEFINITION_SHAPE('',$,#1021);
#1010=PRODUCT_DEFINITION_SHAPE('',$,#1022);
#1011=PRODUCT_DEFINITION_SHAPE('',$,#1023);
#1012=PRODUCT_DEFINITION_SHAPE('',$,#1024);
#1013=PRODUCT_DEFINITION_SHAPE($,$,#20);
#1014=PRODUCT_DEFINITION_SHAPE($,$,#21);
#1015=PRODUCT_DEFINITION_SHAPE($,$,#22);
#1016=SHAPE_REPRESENTATION('',(#418,#462,#463,#464),#996);
#1017=SHAPE_REPRESENTATION('',(#419),#997);
#1018=SHAPE_REPRESENTATION('',(#441),#998);
#1019=SHAPE_REPRESENTATION('',(#451),#999);
#1020=PRODUCT_DEFINITION_CONTEXT('part definition',#1034,'design');
#1021=PRODUCT_DEFINITION('2025-11-04-09-04-57-868',
'Pressure Vessel Assemble With Door',#1025,#1020);
#1022=PRODUCT_DEFINITION('2025-11-04-08-29-01-320',
'Pressure Vessel End Cap With Door',#1026,#1020);
#1023=PRODUCT_DEFINITION('2025-11-04-08-29-01-320_1',
'Pressure Vessel End Cap Floor',#1027,#1020);
#1024=PRODUCT_DEFINITION('2025-11-04-08-29-01-320_2',
'Pressure Vessel End Cap Wall',#1028,#1020);
#1025=PRODUCT_DEFINITION_FORMATION('',$,#1036);
#1026=PRODUCT_DEFINITION_FORMATION('',$,#1037);
#1027=PRODUCT_DEFINITION_FORMATION('',$,#1038);
#1028=PRODUCT_DEFINITION_FORMATION('',$,#1039);
#1029=PRODUCT_RELATED_PRODUCT_CATEGORY(
'Pressure Vessel Assemble With Door',
'Pressure Vessel Assemble With Door',(#1036));
#1030=PRODUCT_RELATED_PRODUCT_CATEGORY(
'Pressure Vessel End Cap With Door','Pressure Vessel End Cap With Door',
(#1037));
#1031=PRODUCT_RELATED_PRODUCT_CATEGORY('Pressure Vessel End Cap Floor',
'Pressure Vessel End Cap Floor',(#1038));
#1032=PRODUCT_RELATED_PRODUCT_CATEGORY('Pressure Vessel End Cap Wall',
'Pressure Vessel End Cap Wall',(#1039));
#1033=APPLICATION_PROTOCOL_DEFINITION('international standard',
'automotive_design',2009,#1034);
#1034=APPLICATION_CONTEXT(
'Core Data for Automotive Mechanical Design Process');
#1035=PRODUCT_CONTEXT('part definition',#1034,'mechanical');
#1036=PRODUCT('2025-11-04-09-04-57-868',
'Pressure Vessel Assemble With Door',$,(#1035));
#1037=PRODUCT('2025-11-04-08-29-01-320',
'Pressure Vessel End Cap With Door',$,(#1035));
#1038=PRODUCT('2025-11-04-08-29-01-320_1',
'Pressure Vessel End Cap Floor',$,(#1035));
#1039=PRODUCT('2025-11-04-08-29-01-320_2',
'Pressure Vessel End Cap Wall',$,(#1035));
#1040=PRESENTATION_STYLE_ASSIGNMENT((#1041));
#1041=SURFACE_STYLE_USAGE(.BOTH.,#1042);
#1042=SURFACE_SIDE_STYLE('',(#1043));
#1043=SURFACE_STYLE_FILL_AREA(#1044);
#1044=FILL_AREA_STYLE('Steel - Satin',(#1045));
#1045=FILL_AREA_STYLE_COLOUR('Steel - Satin',#1046);
#1046=COLOUR_RGB('Steel - Satin',0.627450980392157,0.627450980392157,0.627450980392157);
ENDSEC;
END-ISO-10303-21;
