ISO-10303-21;
HEADER;
/* Generated by software containing ST-Developer
 * from STEP Tools, Inc. (www.steptools.com) 
 */

FILE_DESCRIPTION(
/* description */ (''),
/* implementation_level */ '2;1');

FILE_NAME(
/* name */ 'Pressure Vessel End Cap.step',
/* time_stamp */ '2025-11-04T09:08:44-06:00',
/* author */ (''),
/* organization */ (''),
/* preprocessor_version */ 'ST-DEVELOPER v20.1',
/* originating_system */ 'Autodesk Translation Framework v14.17.0.0',
/* authorisation */ '');

FILE_SCHEMA (('AUTOMOTIVE_DESIGN { 1 0 10303 214 3 1 1 }'));
ENDSEC;

DATA;
#10=MECHANICAL_DESIGN_GEOMETRIC_PRESENTATION_REPRESENTATION('',(#13),#147);
#11=SHAPE_REPRESENTATION_RELATIONSHIP('SRR','None',#153,#12);
#12=ADVANCED_BREP_SHAPE_REPRESENTATION('',(#14),#146);
#13=STYLED_ITEM('',(#162),#14);
#14=MANIFOLD_SOLID_BREP('Body1',#49);
#15=FACE_BOUND('',#23,.T.);
#16=PLANE('',#67);
#17=FACE_OUTER_BOUND('',#20,.T.);
#18=FACE_OUTER_BOUND('',#21,.T.);
#19=FACE_OUTER_BOUND('',#22,.T.);
#20=EDGE_LOOP('',(#36,#37,#38));
#21=EDGE_LOOP('',(#39,#40,#41));
#22=EDGE_LOOP('',(#42));
#23=EDGE_LOOP('',(#43));
#24=CIRCLE('',#63,2.07016491207295);
#25=CIRCLE('',#64,2.1157192695818);
#26=CIRCLE('',#65,2.125);
#27=CIRCLE('',#66,2.07816491207295);
#28=VERTEX_POINT('',#108);
#29=VERTEX_POINT('',#109);
#30=VERTEX_POINT('',#139);
#31=VERTEX_POINT('',#141);
#32=EDGE_CURVE('',#28,#29,#24,.T.);
#33=EDGE_CURVE('',#29,#29,#25,.T.);
#34=EDGE_CURVE('',#30,#30,#26,.T.);
#35=EDGE_CURVE('',#30,#31,#27,.T.);
#36=ORIENTED_EDGE('',*,*,#32,.T.);
#37=ORIENTED_EDGE('',*,*,#33,.F.);
#38=ORIENTED_EDGE('',*,*,#32,.F.);
#39=ORIENTED_EDGE('',*,*,#34,.F.);
#40=ORIENTED_EDGE('',*,*,#35,.T.);
#41=ORIENTED_EDGE('',*,*,#35,.F.);
#42=ORIENTED_EDGE('',*,*,#34,.T.);
#43=ORIENTED_EDGE('',*,*,#33,.T.);
#44=(
BOUNDED_SURFACE()
B_SPLINE_SURFACE(2,2,((#81,#82,#83,#84,#85,#86,#87,#88,#89),(#90,#91,#92,
#93,#94,#95,#96,#97,#98),(#99,#100,#101,#102,#103,#104,#105,#106,#107)),
 .UNSPECIFIED.,.F.,.T.,.F.)
B_SPLINE_SURFACE_WITH_KNOTS((3,3),(3,2,2,2,3),(-1.73207461620954,-0.532727256077794),
(-3.14159265358979,-1.5707963267949,0.,1.5707963267949,3.14159265358979),
 .UNSPECIFIED.)
GEOMETRIC_REPRESENTATION_ITEM()
RATIONAL_B_SPLINE_SURFACE(((1.,0.707106781186548,1.,0.707106781186548,1.,
0.707106781186548,1.,0.707106781186548,1.),(0.825519825058324,0.583730666302673,
0.825519825058324,0.583730666302673,0.825519825058324,0.583730666302673,
0.825519825058324,0.583730666302673,0.825519825058324),(1.,0.707106781186548,
1.,0.707106781186548,1.,0.707106781186548,1.,0.707106781186548,1.)))
REPRESENTATION_ITEM('')
SURFACE()
);
#45=(
BOUNDED_SURFACE()
B_SPLINE_SURFACE(2,2,((#112,#113,#114,#115,#116,#117,#118,#119,#120),(#121,
#122,#123,#124,#125,#126,#127,#128,#129),(#130,#131,#132,#133,#134,#135,
#136,#137,#138)),.UNSPECIFIED.,.F.,.T.,.F.)
B_SPLINE_SURFACE_WITH_KNOTS((3,3),(3,2,2,2,3),(-1.73144835970993,-0.530459128248392),
(-3.14159265358979,-1.5707963267949,0.,1.5707963267949,3.14159265358979),
 .UNSPECIFIED.)
GEOMETRIC_REPRESENTATION_ITEM()
RATIONAL_B_SPLINE_SURFACE(((1.,0.707106781186548,1.,0.707106781186548,1.,
0.707106781186548,1.,0.707106781186548,1.),(0.825056232914466,0.583402857154046,
0.825056232914466,0.583402857154046,0.825056232914466,0.583402857154046,
0.825056232914466,0.583402857154046,0.825056232914466),(1.,0.707106781186548,
1.,0.707106781186548,1.,0.707106781186548,1.,0.707106781186548,1.)))
REPRESENTATION_ITEM('')
SURFACE()
);
#46=ADVANCED_FACE('',(#17),#44,.T.);
#47=ADVANCED_FACE('',(#18),#45,.F.);
#48=ADVANCED_FACE('',(#19,#15),#16,.T.);
#49=CLOSED_SHELL('',(#46,#47,#48));
#50=DERIVED_UNIT_ELEMENT(#52,1.);
#51=DERIVED_UNIT_ELEMENT(#148,-3.);
#52=(
MASS_UNIT()
NAMED_UNIT(*)
SI_UNIT(.KILO.,.GRAM.)
);
#53=DERIVED_UNIT((#50,#51));
#54=MEASURE_REPRESENTATION_ITEM('density measure',
POSITIVE_RATIO_MEASURE(7850.),#53);
#55=PROPERTY_DEFINITION_REPRESENTATION(#60,#57);
#56=PROPERTY_DEFINITION_REPRESENTATION(#61,#58);
#57=REPRESENTATION('material name',(#59),#146);
#58=REPRESENTATION('density',(#54),#146);
#59=DESCRIPTIVE_REPRESENTATION_ITEM('Steel','Steel');
#60=PROPERTY_DEFINITION('material property','material name',#155);
#61=PROPERTY_DEFINITION('material property','density of part',#155);
#62=AXIS2_PLACEMENT_3D('',#80,#68,#69);
#63=AXIS2_PLACEMENT_3D('',#110,#70,#71);
#64=AXIS2_PLACEMENT_3D('',#111,#72,#73);
#65=AXIS2_PLACEMENT_3D('',#140,#74,#75);
#66=AXIS2_PLACEMENT_3D('',#142,#76,#77);
#67=AXIS2_PLACEMENT_3D('',#143,#78,#79);
#68=DIRECTION('axis',(0.,0.,1.));
#69=DIRECTION('refdir',(1.,0.,0.));
#70=DIRECTION('center_axis',(0.,1.,1.22464679914735E-16));
#71=DIRECTION('ref_axis',(0.,-1.22464679914735E-16,1.));
#72=DIRECTION('center_axis',(-1.,0.,0.));
#73=DIRECTION('ref_axis',(0.,0.,-1.));
#74=DIRECTION('center_axis',(1.,0.,0.));
#75=DIRECTION('ref_axis',(0.,0.,-1.));
#76=DIRECTION('center_axis',(0.,-1.,-1.22464679914735E-16));
#77=DIRECTION('ref_axis',(0.,-1.22464679914735E-16,1.));
#78=DIRECTION('center_axis',(1.,0.,0.));
#79=DIRECTION('ref_axis',(0.,0.,-1.));
#80=CARTESIAN_POINT('',(0.,0.,0.));
#81=CARTESIAN_POINT('Ctrl Pts',(-0.99189523048926,0.,-7.105427357601E-17));
#82=CARTESIAN_POINT('Ctrl Pts',(-0.99189523048926,7.105427357601E-17,-7.105427357601E-17));
#83=CARTESIAN_POINT('Ctrl Pts',(-0.99189523048926,7.105427357601E-17,0.));
#84=CARTESIAN_POINT('Ctrl Pts',(-0.99189523048926,7.105427357601E-17,7.105427357601E-17));
#85=CARTESIAN_POINT('Ctrl Pts',(-0.99189523048926,0.,7.105427357601E-17));
#86=CARTESIAN_POINT('Ctrl Pts',(-0.99189523048926,-7.105427357601E-17,7.105427357601E-17));
#87=CARTESIAN_POINT('Ctrl Pts',(-0.99189523048926,-7.105427357601E-17,0.));
#88=CARTESIAN_POINT('Ctrl Pts',(-0.99189523048926,-7.105427357601E-17,-7.105427357601E-17));
#89=CARTESIAN_POINT('Ctrl Pts',(-0.99189523048926,0.,-7.105427357601E-17));
#90=CARTESIAN_POINT('Ctrl Pts',(-1.21916167304504,0.,1.39691812183526));
#91=CARTESIAN_POINT('Ctrl Pts',(-1.21916167304504,-1.39691812183526,1.39691812183526));
#92=CARTESIAN_POINT('Ctrl Pts',(-1.21916167304504,-1.39691812183526,0.));
#93=CARTESIAN_POINT('Ctrl Pts',(-1.21916167304504,-1.39691812183526,-1.39691812183526));
#94=CARTESIAN_POINT('Ctrl Pts',(-1.21916167304504,0.,-1.39691812183526));
#95=CARTESIAN_POINT('Ctrl Pts',(-1.21916167304504,1.39691812183526,-1.39691812183526));
#96=CARTESIAN_POINT('Ctrl Pts',(-1.21916167304504,1.39691812183526,0.));
#97=CARTESIAN_POINT('Ctrl Pts',(-1.21916167304504,1.39691812183526,1.39691812183526));
#98=CARTESIAN_POINT('Ctrl Pts',(-1.21916167304504,0.,1.39691812183526));
#99=CARTESIAN_POINT('Ctrl Pts',(1.4210854715202E-16,0.,2.1157192695818));
#100=CARTESIAN_POINT('Ctrl Pts',(1.4210854715202E-16,-2.1157192695818,2.1157192695818));
#101=CARTESIAN_POINT('Ctrl Pts',(1.4210854715202E-16,-2.1157192695818,0.));
#102=CARTESIAN_POINT('Ctrl Pts',(1.4210854715202E-16,-2.1157192695818,-2.1157192695818));
#103=CARTESIAN_POINT('Ctrl Pts',(1.4210854715202E-16,0.,-2.1157192695818));
#104=CARTESIAN_POINT('Ctrl Pts',(1.4210854715202E-16,2.1157192695818,-2.1157192695818));
#105=CARTESIAN_POINT('Ctrl Pts',(1.4210854715202E-16,2.1157192695818,0.));
#106=CARTESIAN_POINT('Ctrl Pts',(1.4210854715202E-16,2.1157192695818,2.1157192695818));
#107=CARTESIAN_POINT('Ctrl Pts',(1.4210854715202E-16,0.,2.1157192695818));
#108=CARTESIAN_POINT('',(-0.99189523048926,0.,7.105427357601E-17));
#109=CARTESIAN_POINT('',(0.,2.59100883138772E-16,2.1157192695818));
#110=CARTESIAN_POINT('Origin',(1.05140478319116,-4.0710585848609E-17,0.332427160851221));
#111=CARTESIAN_POINT('Origin',(0.,0.,0.));
#112=CARTESIAN_POINT('Ctrl Pts',(-1.,0.,0.));
#113=CARTESIAN_POINT('Ctrl Pts',(-1.,0.,0.));
#114=CARTESIAN_POINT('Ctrl Pts',(-1.,0.,0.));
#115=CARTESIAN_POINT('Ctrl Pts',(-1.,0.,0.));
#116=CARTESIAN_POINT('Ctrl Pts',(-1.,0.,0.));
#117=CARTESIAN_POINT('Ctrl Pts',(-1.,0.,0.));
#118=CARTESIAN_POINT('Ctrl Pts',(-1.,0.,0.));
#119=CARTESIAN_POINT('Ctrl Pts',(-1.,0.,0.));
#120=CARTESIAN_POINT('Ctrl Pts',(-1.,0.,0.));
#121=CARTESIAN_POINT('Ctrl Pts',(-1.22766711965262,0.,1.40493158571888));
#122=CARTESIAN_POINT('Ctrl Pts',(-1.22766711965262,-1.40493158571888,1.40493158571888));
#123=CARTESIAN_POINT('Ctrl Pts',(-1.22766711965262,-1.40493158571888,0.));
#124=CARTESIAN_POINT('Ctrl Pts',(-1.22766711965262,-1.40493158571888,-1.40493158571888));
#125=CARTESIAN_POINT('Ctrl Pts',(-1.22766711965262,0.,-1.40493158571888));
#126=CARTESIAN_POINT('Ctrl Pts',(-1.22766711965262,1.40493158571888,-1.40493158571888));
#127=CARTESIAN_POINT('Ctrl Pts',(-1.22766711965262,1.40493158571888,0.));
#128=CARTESIAN_POINT('Ctrl Pts',(-1.22766711965262,1.40493158571888,1.40493158571888));
#129=CARTESIAN_POINT('Ctrl Pts',(-1.22766711965262,0.,1.40493158571888));
#130=CARTESIAN_POINT('Ctrl Pts',(-2.8421709430404E-16,0.,2.125));
#131=CARTESIAN_POINT('Ctrl Pts',(-2.8421709430404E-16,-2.125,2.125));
#132=CARTESIAN_POINT('Ctrl Pts',(-2.8421709430404E-16,-2.125,0.));
#133=CARTESIAN_POINT('Ctrl Pts',(-2.8421709430404E-16,-2.125,-2.125));
#134=CARTESIAN_POINT('Ctrl Pts',(-2.8421709430404E-16,0.,-2.125));
#135=CARTESIAN_POINT('Ctrl Pts',(-2.8421709430404E-16,2.125,-2.125));
#136=CARTESIAN_POINT('Ctrl Pts',(-2.8421709430404E-16,2.125,0.));
#137=CARTESIAN_POINT('Ctrl Pts',(-2.8421709430404E-16,2.125,2.125));
#138=CARTESIAN_POINT('Ctrl Pts',(-2.8421709430404E-16,0.,2.125));
#139=CARTESIAN_POINT('',(-1.4210854715202E-16,-2.60237444818813E-16,2.125));
#140=CARTESIAN_POINT('Origin',(-1.4210854715202E-16,0.,0.));
#141=CARTESIAN_POINT('',(-1.,2.8421709430404E-16,0.));
#142=CARTESIAN_POINT('Origin',(1.05140478319116,-4.0710585848609E-17,0.332427160851221));
#143=CARTESIAN_POINT('Origin',(0.,0.,0.));
#144=UNCERTAINTY_MEASURE_WITH_UNIT(LENGTH_MEASURE(1.E-5),#148,
'DISTANCE_ACCURACY_VALUE',
'Maximum model space distance between geometric entities at asserted c
onnectivities');
#145=UNCERTAINTY_MEASURE_WITH_UNIT(LENGTH_MEASURE(1.E-5),#148,
'DISTANCE_ACCURACY_VALUE',
'Maximum model space distance between geometric entities at asserted c
onnectivities');
#146=(
GEOMETRIC_REPRESENTATION_CONTEXT(3)
GLOBAL_UNCERTAINTY_ASSIGNED_CONTEXT((#144))
GLOBAL_UNIT_ASSIGNED_CONTEXT((#148,#149,#150))
REPRESENTATION_CONTEXT('','3D')
);
#147=(
GEOMETRIC_REPRESENTATION_CONTEXT(3)
GLOBAL_UNCERTAINTY_ASSIGNED_CONTEXT((#145))
GLOBAL_UNIT_ASSIGNED_CONTEXT((#148,#149,#150))
REPRESENTATION_CONTEXT('','3D')
);
#148=(
LENGTH_UNIT()
NAMED_UNIT(*)
SI_UNIT($,.METRE.)
);
#149=(
NAMED_UNIT(*)
PLANE_ANGLE_UNIT()
SI_UNIT($,.RADIAN.)
);
#150=(
NAMED_UNIT(*)
SI_UNIT($,.STERADIAN.)
SOLID_ANGLE_UNIT()
);
#151=SHAPE_DEFINITION_REPRESENTATION(#152,#153);
#152=PRODUCT_DEFINITION_SHAPE('',$,#155);
#153=SHAPE_REPRESENTATION('',(#62),#146);
#154=PRODUCT_DEFINITION_CONTEXT('part definition',#159,'design');
#155=PRODUCT_DEFINITION('2025-11-04-08-29-01-320',
'Pressure Vessel End Cap',#156,#154);
#156=PRODUCT_DEFINITION_FORMATION('',$,#161);
#157=PRODUCT_RELATED_PRODUCT_CATEGORY('Pressure Vessel End Cap',
'Pressure Vessel End Cap',(#161));
#158=APPLICATION_PROTOCOL_DEFINITION('international standard',
'automotive_design',2009,#159);
#159=APPLICATION_CONTEXT(
'Core Data for Automotive Mechanical Design Process');
#160=PRODUCT_CONTEXT('part definition',#159,'mechanical');
#161=PRODUCT('2025-11-04-08-29-01-320','Pressure Vessel End Cap',$,(#160));
#162=PRESENTATION_STYLE_ASSIGNMENT((#163));
#163=SURFACE_STYLE_USAGE(.BOTH.,#164);
#164=SURFACE_SIDE_STYLE('',(#165));
#165=SURFACE_STYLE_FILL_AREA(#166);
#166=FILL_AREA_STYLE('Steel - Satin',(#167));
#167=FILL_AREA_STYLE_COLOUR('Steel - Satin',#168);
#168=COLOUR_RGB('Steel - Satin',0.627450980392157,0.627450980392157,0.627450980392157);
ENDSEC;
END-ISO-10303-21;
