ISO-10303-21;
HEADER;
/* Generated by software containing ST-Developer
 * from STEP Tools, Inc. (www.steptools.com) 
 */

FILE_DESCRIPTION(
/* description */ (''),
/* implementation_level */ '2;1');

FILE_NAME(
/* name */ 'Pressure Vessel End Cap With Door.step',
/* time_stamp */ '2025-11-04T09:08:19-06:00',
/* author */ (''),
/* organization */ (''),
/* preprocessor_version */ 'ST-DEVELOPER v20.1',
/* originating_system */ 'Autodesk Translation Framework v14.17.0.0',
/* authorisation */ '');

FILE_SCHEMA (('AUTOMOTIVE_DESIGN { 1 0 10303 214 3 1 1 }'));
ENDSEC;

DATA;
#10=MECHANICAL_DESIGN_GEOMETRIC_PRESENTATION_REPRESENTATION('',(#13),#373);
#11=SHAPE_REPRESENTATION_RELATIONSHIP('SRR','None',#379,#12);
#12=ADVANCED_BREP_SHAPE_REPRESENTATION('',(#145),#372);
#13=STYLED_ITEM('',(#388),#145);
#14=LINE('',#267,#16);
#15=LINE('',#275,#17);
#16=VECTOR('',#198,1.);
#17=VECTOR('',#207,1.);
#18=CYLINDRICAL_SURFACE('',#165,1.);
#19=CYLINDRICAL_SURFACE('',#169,1.);
#20=ORIENTED_CLOSED_SHELL('',*,#143,.F.);
#21=FACE_BOUND('',#40,.T.);
#22=FACE_BOUND('',#45,.T.);
#23=FACE_BOUND('',#50,.T.);
#24=PLANE('',#162);
#25=PLANE('',#163);
#26=PLANE('',#172);
#27=PLANE('',#179);
#28=FACE_OUTER_BOUND('',#38,.T.);
#29=FACE_OUTER_BOUND('',#39,.T.);
#30=FACE_OUTER_BOUND('',#41,.T.);
#31=FACE_OUTER_BOUND('',#42,.T.);
#32=FACE_OUTER_BOUND('',#43,.T.);
#33=FACE_OUTER_BOUND('',#44,.T.);
#34=FACE_OUTER_BOUND('',#46,.T.);
#35=FACE_OUTER_BOUND('',#47,.T.);
#36=FACE_OUTER_BOUND('',#48,.T.);
#37=FACE_OUTER_BOUND('',#49,.T.);
#38=EDGE_LOOP('',(#95,#96,#97,#98));
#39=EDGE_LOOP('',(#99));
#40=EDGE_LOOP('',(#100));
#41=EDGE_LOOP('',(#101));
#42=EDGE_LOOP('',(#102,#103,#104,#105,#106));
#43=EDGE_LOOP('',(#107,#108,#109,#110,#111));
#44=EDGE_LOOP('',(#112));
#45=EDGE_LOOP('',(#113));
#46=EDGE_LOOP('',(#114,#115,#116));
#47=EDGE_LOOP('',(#117,#118,#119,#120,#121));
#48=EDGE_LOOP('',(#122,#123,#124,#125,#126));
#49=EDGE_LOOP('',(#127));
#50=EDGE_LOOP('',(#128));
#51=CIRCLE('',#159,0.0543603007645931);
#52=CIRCLE('',#160,2.07016491207295);
#53=CIRCLE('',#161,0.610494020937849);
#54=CIRCLE('',#164,1.);
#55=CIRCLE('',#166,1.);
#56=CIRCLE('',#167,1.);
#57=CIRCLE('',#168,1.);
#58=CIRCLE('',#170,1.);
#59=CIRCLE('',#171,1.);
#60=CIRCLE('',#173,0.664854321702443);
#61=CIRCLE('',#174,2.07816491207295);
#62=CIRCLE('',#175,2.07016491207295);
#63=CIRCLE('',#176,2.1157192695818);
#64=CIRCLE('',#177,2.125);
#65=CIRCLE('',#178,2.07816491207295);
#66=VERTEX_POINT('',#254);
#67=VERTEX_POINT('',#256);
#68=VERTEX_POINT('',#261);
#69=VERTEX_POINT('',#264);
#70=VERTEX_POINT('',#266);
#71=VERTEX_POINT('',#268);
#72=VERTEX_POINT('',#272);
#73=VERTEX_POINT('',#273);
#74=VERTEX_POINT('',#278);
#75=VERTEX_POINT('',#307);
#76=VERTEX_POINT('',#336);
#77=VERTEX_POINT('',#366);
#78=EDGE_CURVE('',#66,#66,#51,.T.);
#79=EDGE_CURVE('',#66,#67,#52,.T.);
#80=EDGE_CURVE('',#67,#67,#53,.T.);
#81=EDGE_CURVE('',#68,#68,#54,.T.);
#82=EDGE_CURVE('',#69,#69,#55,.T.);
#83=EDGE_CURVE('',#69,#70,#14,.T.);
#84=EDGE_CURVE('',#71,#70,#56,.T.);
#85=EDGE_CURVE('',#70,#71,#57,.T.);
#86=EDGE_CURVE('',#72,#73,#58,.T.);
#87=EDGE_CURVE('',#72,#68,#15,.T.);
#88=EDGE_CURVE('',#73,#72,#59,.T.);
#89=EDGE_CURVE('',#74,#74,#60,.T.);
#90=EDGE_CURVE('',#74,#75,#61,.T.);
#91=EDGE_CURVE('',#73,#76,#62,.T.);
#92=EDGE_CURVE('',#76,#76,#63,.T.);
#93=EDGE_CURVE('',#77,#77,#64,.T.);
#94=EDGE_CURVE('',#77,#71,#65,.T.);
#95=ORIENTED_EDGE('',*,*,#78,.T.);
#96=ORIENTED_EDGE('',*,*,#79,.T.);
#97=ORIENTED_EDGE('',*,*,#80,.T.);
#98=ORIENTED_EDGE('',*,*,#79,.F.);
#99=ORIENTED_EDGE('',*,*,#80,.F.);
#100=ORIENTED_EDGE('',*,*,#78,.F.);
#101=ORIENTED_EDGE('',*,*,#81,.F.);
#102=ORIENTED_EDGE('',*,*,#82,.F.);
#103=ORIENTED_EDGE('',*,*,#83,.T.);
#104=ORIENTED_EDGE('',*,*,#84,.F.);
#105=ORIENTED_EDGE('',*,*,#85,.F.);
#106=ORIENTED_EDGE('',*,*,#83,.F.);
#107=ORIENTED_EDGE('',*,*,#86,.F.);
#108=ORIENTED_EDGE('',*,*,#87,.T.);
#109=ORIENTED_EDGE('',*,*,#81,.T.);
#110=ORIENTED_EDGE('',*,*,#87,.F.);
#111=ORIENTED_EDGE('',*,*,#88,.F.);
#112=ORIENTED_EDGE('',*,*,#82,.T.);
#113=ORIENTED_EDGE('',*,*,#89,.F.);
#114=ORIENTED_EDGE('',*,*,#89,.T.);
#115=ORIENTED_EDGE('',*,*,#90,.T.);
#116=ORIENTED_EDGE('',*,*,#90,.F.);
#117=ORIENTED_EDGE('',*,*,#86,.T.);
#118=ORIENTED_EDGE('',*,*,#91,.T.);
#119=ORIENTED_EDGE('',*,*,#92,.F.);
#120=ORIENTED_EDGE('',*,*,#91,.F.);
#121=ORIENTED_EDGE('',*,*,#88,.T.);
#122=ORIENTED_EDGE('',*,*,#93,.F.);
#123=ORIENTED_EDGE('',*,*,#94,.T.);
#124=ORIENTED_EDGE('',*,*,#84,.T.);
#125=ORIENTED_EDGE('',*,*,#85,.T.);
#126=ORIENTED_EDGE('',*,*,#94,.F.);
#127=ORIENTED_EDGE('',*,*,#93,.T.);
#128=ORIENTED_EDGE('',*,*,#92,.T.);
#129=(
BOUNDED_SURFACE()
B_SPLINE_SURFACE(2,2,((#227,#228,#229,#230,#231,#232,#233,#234,#235),(#236,
#237,#238,#239,#240,#241,#242,#243,#244),(#245,#246,#247,#248,#249,#250,
#251,#252,#253)),.UNSPECIFIED.,.F.,.T.,.F.)
B_SPLINE_SURFACE_WITH_KNOTS((3,3),(3,2,2,2,3),(-1.70552466440144,-1.43606798918836),
(-3.14159265358979,-1.5707963267949,0.,1.5707963267949,3.14159265358979),
 .UNSPECIFIED.)
GEOMETRIC_REPRESENTATION_ITEM()
RATIONAL_B_SPLINE_SURFACE(((1.,0.707106781186548,1.,0.707106781186548,1.,
0.707106781186548,1.,0.707106781186548,1.),(0.990937857765637,0.700698878960552,
0.990937857765637,0.700698878960552,0.990937857765637,0.700698878960552,
0.990937857765637,0.700698878960552,0.990937857765637),(1.,0.707106781186548,
1.,0.707106781186548,1.,0.707106781186548,1.,0.707106781186548,1.)))
REPRESENTATION_ITEM('')
SURFACE()
);
#130=(
BOUNDED_SURFACE()
B_SPLINE_SURFACE(2,2,((#280,#281,#282,#283,#284,#285,#286,#287,#288),(#289,
#290,#291,#292,#293,#294,#295,#296,#297),(#298,#299,#300,#301,#302,#303,
#304,#305,#306)),.UNSPECIFIED.,.F.,.T.,.F.)
B_SPLINE_SURFACE_WITH_KNOTS((3,3),(3,2,2,2,3),(-1.73144835970993,-1.41014429387986),
(-3.14159265358979,-1.5707963267949,0.,1.5707963267949,3.14159265358979),
 .UNSPECIFIED.)
GEOMETRIC_REPRESENTATION_ITEM()
RATIONAL_B_SPLINE_SURFACE(((1.,0.707106781186548,1.,0.707106781186548,1.,
0.707106781186548,1.,0.707106781186548,1.),(0.98712319280999,0.69800150350246,
0.98712319280999,0.69800150350246,0.98712319280999,0.69800150350246,0.98712319280999,
0.69800150350246,0.98712319280999),(1.,0.707106781186548,1.,0.707106781186548,
1.,0.707106781186548,1.,0.707106781186548,1.)))
REPRESENTATION_ITEM('')
SURFACE()
);
#131=(
BOUNDED_SURFACE()
B_SPLINE_SURFACE(2,2,((#309,#310,#311,#312,#313,#314,#315,#316,#317),(#318,
#319,#320,#321,#322,#323,#324,#325,#326),(#327,#328,#329,#330,#331,#332,
#333,#334,#335)),.UNSPECIFIED.,.F.,.T.,.F.)
B_SPLINE_SURFACE_WITH_KNOTS((3,3),(3,2,2,2,3),(-1.24245515092025,-0.532727256077794),
(-3.14159265358979,-1.5707963267949,0.,1.5707963267949,3.14159265358979),
 .UNSPECIFIED.)
GEOMETRIC_REPRESENTATION_ITEM()
RATIONAL_B_SPLINE_SURFACE(((1.,0.707106781186548,1.,0.707106781186548,1.,
0.707106781186548,1.,0.707106781186548,1.),(0.93769377070669,0.663049623943085,
0.93769377070669,0.663049623943085,0.93769377070669,0.663049623943085,0.93769377070669,
0.663049623943085,0.93769377070669),(1.,0.707106781186548,1.,0.707106781186548,
1.,0.707106781186548,1.,0.707106781186548,1.)))
REPRESENTATION_ITEM('')
SURFACE()
);
#132=(
BOUNDED_SURFACE()
B_SPLINE_SURFACE(2,2,((#339,#340,#341,#342,#343,#344,#345,#346,#347),(#348,
#349,#350,#351,#352,#353,#354,#355,#356),(#357,#358,#359,#360,#361,#362,
#363,#364,#365)),.UNSPECIFIED.,.F.,.T.,.F.)
B_SPLINE_SURFACE_WITH_KNOTS((3,3),(3,2,2,2,3),(-1.24376629424267,-0.530459128248392),
(-3.14159265358979,-1.5707963267949,0.,1.5707963267949,3.14159265358979),
 .UNSPECIFIED.)
GEOMETRIC_REPRESENTATION_ITEM()
RATIONAL_B_SPLINE_SURFACE(((1.,0.707106781186548,1.,0.707106781186548,1.,
0.707106781186548,1.,0.707106781186548,1.),(0.937070437643037,0.662608860906837,
0.937070437643037,0.662608860906837,0.937070437643037,0.662608860906837,
0.937070437643037,0.662608860906837,0.937070437643037),(1.,0.707106781186548,
1.,0.707106781186548,1.,0.707106781186548,1.,0.707106781186548,1.)))
REPRESENTATION_ITEM('')
SURFACE()
);
#133=ADVANCED_FACE('',(#28),#129,.T.);
#134=ADVANCED_FACE('',(#29,#21),#24,.F.);
#135=ADVANCED_FACE('',(#30),#25,.T.);
#136=ADVANCED_FACE('',(#31),#18,.T.);
#137=ADVANCED_FACE('',(#32),#19,.T.);
#138=ADVANCED_FACE('',(#33,#22),#26,.F.);
#139=ADVANCED_FACE('',(#34),#130,.F.);
#140=ADVANCED_FACE('',(#35),#131,.T.);
#141=ADVANCED_FACE('',(#36),#132,.F.);
#142=ADVANCED_FACE('',(#37,#23),#27,.T.);
#143=CLOSED_SHELL('',(#133,#134));
#144=CLOSED_SHELL('',(#135,#136,#137,#138,#139,#140,#141,#142));
#145=BREP_WITH_VOIDS('Body1',#144,(#20));
#146=DERIVED_UNIT_ELEMENT(#148,1.);
#147=DERIVED_UNIT_ELEMENT(#374,-3.);
#148=(
MASS_UNIT()
NAMED_UNIT(*)
SI_UNIT(.KILO.,.GRAM.)
);
#149=DERIVED_UNIT((#146,#147));
#150=MEASURE_REPRESENTATION_ITEM('density measure',
POSITIVE_RATIO_MEASURE(7850.),#149);
#151=PROPERTY_DEFINITION_REPRESENTATION(#156,#153);
#152=PROPERTY_DEFINITION_REPRESENTATION(#157,#154);
#153=REPRESENTATION('material name',(#155),#372);
#154=REPRESENTATION('density',(#150),#372);
#155=DESCRIPTIVE_REPRESENTATION_ITEM('Steel','Steel');
#156=PROPERTY_DEFINITION('material property','material name',#381);
#157=PROPERTY_DEFINITION('material property','density of part',#381);
#158=AXIS2_PLACEMENT_3D('',#226,#180,#181);
#159=AXIS2_PLACEMENT_3D('',#255,#182,#183);
#160=AXIS2_PLACEMENT_3D('',#257,#184,#185);
#161=AXIS2_PLACEMENT_3D('',#258,#186,#187);
#162=AXIS2_PLACEMENT_3D('',#259,#188,#189);
#163=AXIS2_PLACEMENT_3D('',#260,#190,#191);
#164=AXIS2_PLACEMENT_3D('',#262,#192,#193);
#165=AXIS2_PLACEMENT_3D('',#263,#194,#195);
#166=AXIS2_PLACEMENT_3D('',#265,#196,#197);
#167=AXIS2_PLACEMENT_3D('',#269,#199,#200);
#168=AXIS2_PLACEMENT_3D('',#270,#201,#202);
#169=AXIS2_PLACEMENT_3D('',#271,#203,#204);
#170=AXIS2_PLACEMENT_3D('',#274,#205,#206);
#171=AXIS2_PLACEMENT_3D('',#276,#208,#209);
#172=AXIS2_PLACEMENT_3D('',#277,#210,#211);
#173=AXIS2_PLACEMENT_3D('',#279,#212,#213);
#174=AXIS2_PLACEMENT_3D('',#308,#214,#215);
#175=AXIS2_PLACEMENT_3D('',#337,#216,#217);
#176=AXIS2_PLACEMENT_3D('',#338,#218,#219);
#177=AXIS2_PLACEMENT_3D('',#367,#220,#221);
#178=AXIS2_PLACEMENT_3D('',#368,#222,#223);
#179=AXIS2_PLACEMENT_3D('',#369,#224,#225);
#180=DIRECTION('axis',(0.,0.,1.));
#181=DIRECTION('refdir',(1.,0.,0.));
#182=DIRECTION('center_axis',(-1.,0.,0.));
#183=DIRECTION('ref_axis',(0.,0.,-1.));
#184=DIRECTION('center_axis',(0.,1.,1.22464679914735E-16));
#185=DIRECTION('ref_axis',(0.,-1.22464679914735E-16,1.));
#186=DIRECTION('center_axis',(1.,0.,0.));
#187=DIRECTION('ref_axis',(0.,0.,-1.));
#188=DIRECTION('center_axis',(1.,0.,0.));
#189=DIRECTION('ref_axis',(0.,1.,0.));
#190=DIRECTION('center_axis',(1.,0.,0.));
#191=DIRECTION('ref_axis',(0.,1.,0.));
#192=DIRECTION('center_axis',(-1.,0.,0.));
#193=DIRECTION('ref_axis',(0.,1.,0.));
#194=DIRECTION('center_axis',(-1.,0.,0.));
#195=DIRECTION('ref_axis',(0.,1.,0.));
#196=DIRECTION('center_axis',(-1.,0.,0.));
#197=DIRECTION('ref_axis',(0.,1.,0.));
#198=DIRECTION('',(1.,0.,0.));
#199=DIRECTION('center_axis',(1.,0.,0.));
#200=DIRECTION('ref_axis',(0.,1.,0.));
#201=DIRECTION('center_axis',(1.,0.,0.));
#202=DIRECTION('ref_axis',(0.,1.,0.));
#203=DIRECTION('center_axis',(-1.,0.,0.));
#204=DIRECTION('ref_axis',(0.,1.,0.));
#205=DIRECTION('center_axis',(-1.,0.,0.));
#206=DIRECTION('ref_axis',(0.,1.,0.));
#207=DIRECTION('',(1.,0.,0.));
#208=DIRECTION('center_axis',(-1.,0.,0.));
#209=DIRECTION('ref_axis',(0.,1.,0.));
#210=DIRECTION('center_axis',(1.,0.,0.));
#211=DIRECTION('ref_axis',(0.,1.,0.));
#212=DIRECTION('center_axis',(-1.,0.,0.));
#213=DIRECTION('ref_axis',(0.,0.,-1.));
#214=DIRECTION('center_axis',(0.,-1.,-1.22464679914735E-16));
#215=DIRECTION('ref_axis',(0.,-1.22464679914735E-16,1.));
#216=DIRECTION('center_axis',(0.,1.,1.22464679914735E-16));
#217=DIRECTION('ref_axis',(0.,-1.22464679914735E-16,1.));
#218=DIRECTION('center_axis',(-1.,0.,0.));
#219=DIRECTION('ref_axis',(0.,0.,-1.));
#220=DIRECTION('center_axis',(1.,0.,0.));
#221=DIRECTION('ref_axis',(0.,0.,-1.));
#222=DIRECTION('center_axis',(0.,-1.,-1.22464679914735E-16));
#223=DIRECTION('ref_axis',(0.,-1.22464679914735E-16,1.));
#224=DIRECTION('center_axis',(1.,0.,0.));
#225=DIRECTION('ref_axis',(0.,0.,-1.));
#226=CARTESIAN_POINT('',(0.,0.,0.));
#227=CARTESIAN_POINT('Ctrl Pts',(-1.,0.,0.0543603007645929));
#228=CARTESIAN_POINT('Ctrl Pts',(-1.,-0.0543603007645929,0.0543603007645929));
#229=CARTESIAN_POINT('Ctrl Pts',(-1.,-0.0543603007645929,0.));
#230=CARTESIAN_POINT('Ctrl Pts',(-1.,-0.0543603007645929,-0.0543603007645929));
#231=CARTESIAN_POINT('Ctrl Pts',(-1.,0.,-0.0543603007645929));
#232=CARTESIAN_POINT('Ctrl Pts',(-1.,0.0543603007645929,-0.0543603007645929));
#233=CARTESIAN_POINT('Ctrl Pts',(-1.,0.0543603007645929,0.));
#234=CARTESIAN_POINT('Ctrl Pts',(-1.,0.0543603007645929,0.0543603007645929));
#235=CARTESIAN_POINT('Ctrl Pts',(-1.,0.,0.0543603007645929));
#236=CARTESIAN_POINT('Ctrl Pts',(-1.03769181943612,0.,0.332427160851221));
#237=CARTESIAN_POINT('Ctrl Pts',(-1.03769181943612,-0.332427160851221,0.332427160851221));
#238=CARTESIAN_POINT('Ctrl Pts',(-1.03769181943612,-0.332427160851221,0.));
#239=CARTESIAN_POINT('Ctrl Pts',(-1.03769181943612,-0.332427160851221,-0.332427160851221));
#240=CARTESIAN_POINT('Ctrl Pts',(-1.03769181943612,0.,-0.332427160851221));
#241=CARTESIAN_POINT('Ctrl Pts',(-1.03769181943612,0.332427160851221,-0.332427160851221));
#242=CARTESIAN_POINT('Ctrl Pts',(-1.03769181943612,0.332427160851221,0.));
#243=CARTESIAN_POINT('Ctrl Pts',(-1.03769181943612,0.332427160851221,0.332427160851221));
#244=CARTESIAN_POINT('Ctrl Pts',(-1.03769181943612,0.,0.332427160851221));
#245=CARTESIAN_POINT('Ctrl Pts',(-1.,0.,0.610494020937849));
#246=CARTESIAN_POINT('Ctrl Pts',(-1.,-0.610494020937849,0.610494020937849));
#247=CARTESIAN_POINT('Ctrl Pts',(-1.,-0.610494020937849,0.));
#248=CARTESIAN_POINT('Ctrl Pts',(-1.,-0.610494020937849,-0.610494020937849));
#249=CARTESIAN_POINT('Ctrl Pts',(-1.,0.,-0.610494020937849));
#250=CARTESIAN_POINT('Ctrl Pts',(-1.,0.610494020937849,-0.610494020937849));
#251=CARTESIAN_POINT('Ctrl Pts',(-1.,0.610494020937849,0.));
#252=CARTESIAN_POINT('Ctrl Pts',(-1.,0.610494020937849,0.610494020937849));
#253=CARTESIAN_POINT('Ctrl Pts',(-1.,0.,0.610494020937849));
#254=CARTESIAN_POINT('',(-1.,6.65721683320463E-18,0.0543603007645931));
#255=CARTESIAN_POINT('Origin',(-1.,0.,0.));
#256=CARTESIAN_POINT('',(-1.,-7.47639548640134E-17,0.610494020937849));
#257=CARTESIAN_POINT('Origin',(1.05140478319116,-4.0710585848609E-17,0.332427160851221));
#258=CARTESIAN_POINT('Origin',(-1.,0.,0.));
#259=CARTESIAN_POINT('Origin',(-1.,0.,0.));
#260=CARTESIAN_POINT('Origin',(-0.75,0.,0.));
#261=CARTESIAN_POINT('',(-0.75,-1.,-1.22464679914735E-16));
#262=CARTESIAN_POINT('Origin',(-0.75,0.,0.));
#263=CARTESIAN_POINT('Origin',(0.,0.,0.));
#264=CARTESIAN_POINT('',(-1.,-1.,-1.22464679914735E-16));
#265=CARTESIAN_POINT('Origin',(-1.,0.,0.));
#266=CARTESIAN_POINT('',(-0.916618566823268,-1.,-1.22464679914735E-16));
#267=CARTESIAN_POINT('',(0.,-1.,1.22464679914735E-16));
#268=CARTESIAN_POINT('',(-0.916618566823268,-1.22464679914735E-16,1.));
#269=CARTESIAN_POINT('Origin',(-0.916618566823268,0.,0.));
#270=CARTESIAN_POINT('Origin',(-0.916618566823268,0.,0.));
#271=CARTESIAN_POINT('Origin',(0.,0.,0.));
#272=CARTESIAN_POINT('',(-0.908168963216166,-1.,1.22464679914735E-16));
#273=CARTESIAN_POINT('',(-0.908168963216166,-1.22464679914735E-16,1.));
#274=CARTESIAN_POINT('Origin',(-0.908168963216166,0.,0.));
#275=CARTESIAN_POINT('',(0.,-1.,1.22464679914735E-16));
#276=CARTESIAN_POINT('Origin',(-0.908168963216166,0.,0.));
#277=CARTESIAN_POINT('Origin',(-1.,0.,0.));
#278=CARTESIAN_POINT('',(-1.,8.14211716972182E-17,0.664854321702443));
#279=CARTESIAN_POINT('Origin',(-1.,0.,0.));
#280=CARTESIAN_POINT('Ctrl Pts',(-1.,0.,0.));
#281=CARTESIAN_POINT('Ctrl Pts',(-1.,0.,0.));
#282=CARTESIAN_POINT('Ctrl Pts',(-1.,0.,0.));
#283=CARTESIAN_POINT('Ctrl Pts',(-1.,0.,0.));
#284=CARTESIAN_POINT('Ctrl Pts',(-1.,0.,0.));
#285=CARTESIAN_POINT('Ctrl Pts',(-1.,0.,0.));
#286=CARTESIAN_POINT('Ctrl Pts',(-1.,0.,0.));
#287=CARTESIAN_POINT('Ctrl Pts',(-1.,0.,0.));
#288=CARTESIAN_POINT('Ctrl Pts',(-1.,0.,0.));
#289=CARTESIAN_POINT('Ctrl Pts',(-1.05386933782015,0.,0.33242716085122));
#290=CARTESIAN_POINT('Ctrl Pts',(-1.05386933782015,-0.33242716085122,0.33242716085122));
#291=CARTESIAN_POINT('Ctrl Pts',(-1.05386933782015,-0.33242716085122,0.));
#292=CARTESIAN_POINT('Ctrl Pts',(-1.05386933782015,-0.33242716085122,-0.33242716085122));
#293=CARTESIAN_POINT('Ctrl Pts',(-1.05386933782015,0.,-0.33242716085122));
#294=CARTESIAN_POINT('Ctrl Pts',(-1.05386933782015,0.33242716085122,-0.33242716085122));
#295=CARTESIAN_POINT('Ctrl Pts',(-1.05386933782015,0.33242716085122,0.));
#296=CARTESIAN_POINT('Ctrl Pts',(-1.05386933782015,0.33242716085122,0.33242716085122));
#297=CARTESIAN_POINT('Ctrl Pts',(-1.05386933782015,0.,0.33242716085122));
#298=CARTESIAN_POINT('Ctrl Pts',(-1.,0.,0.664854321702443));
#299=CARTESIAN_POINT('Ctrl Pts',(-1.,-0.664854321702443,0.664854321702443));
#300=CARTESIAN_POINT('Ctrl Pts',(-1.,-0.664854321702443,0.));
#301=CARTESIAN_POINT('Ctrl Pts',(-1.,-0.664854321702443,-0.664854321702443));
#302=CARTESIAN_POINT('Ctrl Pts',(-1.,0.,-0.664854321702443));
#303=CARTESIAN_POINT('Ctrl Pts',(-1.,0.664854321702443,-0.664854321702443));
#304=CARTESIAN_POINT('Ctrl Pts',(-1.,0.664854321702443,0.));
#305=CARTESIAN_POINT('Ctrl Pts',(-1.,0.664854321702443,0.664854321702443));
#306=CARTESIAN_POINT('Ctrl Pts',(-1.,0.,0.664854321702443));
#307=CARTESIAN_POINT('',(-1.,2.8421709430404E-16,0.));
#308=CARTESIAN_POINT('Origin',(1.05140478319116,-4.0710585848609E-17,0.332427160851221));
#309=CARTESIAN_POINT('Ctrl Pts',(-0.908168963216166,0.,1.));
#310=CARTESIAN_POINT('Ctrl Pts',(-0.908168963216166,-1.,1.));
#311=CARTESIAN_POINT('Ctrl Pts',(-0.908168963216166,-1.,0.));
#312=CARTESIAN_POINT('Ctrl Pts',(-0.908168963216166,-1.,-1.));
#313=CARTESIAN_POINT('Ctrl Pts',(-0.908168963216166,0.,-1.));
#314=CARTESIAN_POINT('Ctrl Pts',(-0.908168963216166,1.,-1.));
#315=CARTESIAN_POINT('Ctrl Pts',(-0.908168963216166,1.,0.));
#316=CARTESIAN_POINT('Ctrl Pts',(-0.908168963216166,1.,1.));
#317=CARTESIAN_POINT('Ctrl Pts',(-0.908168963216166,0.,1.));
#318=CARTESIAN_POINT('Ctrl Pts',(-0.660799587059557,0.,1.72612081671828));
#319=CARTESIAN_POINT('Ctrl Pts',(-0.660799587059557,-1.72612081671828,1.72612081671828));
#320=CARTESIAN_POINT('Ctrl Pts',(-0.660799587059557,-1.72612081671828,0.));
#321=CARTESIAN_POINT('Ctrl Pts',(-0.660799587059557,-1.72612081671828,-1.72612081671828));
#322=CARTESIAN_POINT('Ctrl Pts',(-0.660799587059557,0.,-1.72612081671828));
#323=CARTESIAN_POINT('Ctrl Pts',(-0.660799587059557,1.72612081671828,-1.72612081671828));
#324=CARTESIAN_POINT('Ctrl Pts',(-0.660799587059557,1.72612081671828,0.));
#325=CARTESIAN_POINT('Ctrl Pts',(-0.660799587059557,1.72612081671828,1.72612081671828));
#326=CARTESIAN_POINT('Ctrl Pts',(-0.660799587059557,0.,1.72612081671828));
#327=CARTESIAN_POINT('Ctrl Pts',(1.4210854715202E-16,0.,2.1157192695818));
#328=CARTESIAN_POINT('Ctrl Pts',(1.4210854715202E-16,-2.1157192695818,2.1157192695818));
#329=CARTESIAN_POINT('Ctrl Pts',(1.4210854715202E-16,-2.1157192695818,0.));
#330=CARTESIAN_POINT('Ctrl Pts',(1.4210854715202E-16,-2.1157192695818,-2.1157192695818));
#331=CARTESIAN_POINT('Ctrl Pts',(1.4210854715202E-16,0.,-2.1157192695818));
#332=CARTESIAN_POINT('Ctrl Pts',(1.4210854715202E-16,2.1157192695818,-2.1157192695818));
#333=CARTESIAN_POINT('Ctrl Pts',(1.4210854715202E-16,2.1157192695818,0.));
#334=CARTESIAN_POINT('Ctrl Pts',(1.4210854715202E-16,2.1157192695818,2.1157192695818));
#335=CARTESIAN_POINT('Ctrl Pts',(1.4210854715202E-16,0.,2.1157192695818));
#336=CARTESIAN_POINT('',(0.,2.59100883138772E-16,2.1157192695818));
#337=CARTESIAN_POINT('Origin',(1.05140478319116,-4.0710585848609E-17,0.332427160851221));
#338=CARTESIAN_POINT('Origin',(0.,0.,0.));
#339=CARTESIAN_POINT('Ctrl Pts',(-0.916618566823268,0.,1.));
#340=CARTESIAN_POINT('Ctrl Pts',(-0.916618566823268,-0.999999999999999,
0.999999999999999));
#341=CARTESIAN_POINT('Ctrl Pts',(-0.916618566823268,-1.,0.));
#342=CARTESIAN_POINT('Ctrl Pts',(-0.916618566823268,-0.999999999999999,
-0.999999999999999));
#343=CARTESIAN_POINT('Ctrl Pts',(-0.916618566823268,0.,-1.));
#344=CARTESIAN_POINT('Ctrl Pts',(-0.916618566823268,0.999999999999999,-0.999999999999999));
#345=CARTESIAN_POINT('Ctrl Pts',(-0.916618566823268,1.,0.));
#346=CARTESIAN_POINT('Ctrl Pts',(-0.916618566823268,0.999999999999999,0.999999999999999));
#347=CARTESIAN_POINT('Ctrl Pts',(-0.916618566823268,0.,1.));
#348=CARTESIAN_POINT('Ctrl Pts',(-0.667889532413347,0.,1.73326013108837));
#349=CARTESIAN_POINT('Ctrl Pts',(-0.667889532413347,-1.73326013108837,1.73326013108837));
#350=CARTESIAN_POINT('Ctrl Pts',(-0.667889532413346,-1.73326013108837,0.));
#351=CARTESIAN_POINT('Ctrl Pts',(-0.667889532413346,-1.73326013108837,-1.73326013108837));
#352=CARTESIAN_POINT('Ctrl Pts',(-0.667889532413346,0.,-1.73326013108837));
#353=CARTESIAN_POINT('Ctrl Pts',(-0.667889532413346,1.73326013108837,-1.73326013108837));
#354=CARTESIAN_POINT('Ctrl Pts',(-0.667889532413346,1.73326013108837,0.));
#355=CARTESIAN_POINT('Ctrl Pts',(-0.667889532413347,1.73326013108837,1.73326013108837));
#356=CARTESIAN_POINT('Ctrl Pts',(-0.667889532413347,0.,1.73326013108837));
#357=CARTESIAN_POINT('Ctrl Pts',(-2.8421709430404E-16,0.,2.125));
#358=CARTESIAN_POINT('Ctrl Pts',(-2.8421709430404E-16,-2.125,2.125));
#359=CARTESIAN_POINT('Ctrl Pts',(-2.8421709430404E-16,-2.125,0.));
#360=CARTESIAN_POINT('Ctrl Pts',(-2.8421709430404E-16,-2.125,-2.125));
#361=CARTESIAN_POINT('Ctrl Pts',(-2.8421709430404E-16,0.,-2.125));
#362=CARTESIAN_POINT('Ctrl Pts',(-2.8421709430404E-16,2.125,-2.125));
#363=CARTESIAN_POINT('Ctrl Pts',(-2.8421709430404E-16,2.125,0.));
#364=CARTESIAN_POINT('Ctrl Pts',(-2.8421709430404E-16,2.125,2.125));
#365=CARTESIAN_POINT('Ctrl Pts',(-2.8421709430404E-16,0.,2.125));
#366=CARTESIAN_POINT('',(-1.4210854715202E-16,-2.60237444818813E-16,2.125));
#367=CARTESIAN_POINT('Origin',(-1.4210854715202E-16,0.,0.));
#368=CARTESIAN_POINT('Origin',(1.05140478319116,-4.0710585848609E-17,0.332427160851221));
#369=CARTESIAN_POINT('Origin',(0.,0.,0.));
#370=UNCERTAINTY_MEASURE_WITH_UNIT(LENGTH_MEASURE(1.E-5),#374,
'DISTANCE_ACCURACY_VALUE',
'Maximum model space distance between geometric entities at asserted c
onnectivities');
#371=UNCERTAINTY_MEASURE_WITH_UNIT(LENGTH_MEASURE(1.E-5),#374,
'DISTANCE_ACCURACY_VALUE',
'Maximum model space distance between geometric entities at asserted c
onnectivities');
#372=(
GEOMETRIC_REPRESENTATION_CONTEXT(3)
GLOBAL_UNCERTAINTY_ASSIGNED_CONTEXT((#370))
GLOBAL_UNIT_ASSIGNED_CONTEXT((#374,#375,#376))
REPRESENTATION_CONTEXT('','3D')
);
#373=(
GEOMETRIC_REPRESENTATION_CONTEXT(3)
GLOBAL_UNCERTAINTY_ASSIGNED_CONTEXT((#371))
GLOBAL_UNIT_ASSIGNED_CONTEXT((#374,#375,#376))
REPRESENTATION_CONTEXT('','3D')
);
#374=(
LENGTH_UNIT()
NAMED_UNIT(*)
SI_UNIT($,.METRE.)
);
#375=(
NAMED_UNIT(*)
PLANE_ANGLE_UNIT()
SI_UNIT($,.RADIAN.)
);
#376=(
NAMED_UNIT(*)
SI_UNIT($,.STERADIAN.)
SOLID_ANGLE_UNIT()
);
#377=SHAPE_DEFINITION_REPRESENTATION(#378,#379);
#378=PRODUCT_DEFINITION_SHAPE('',$,#381);
#379=SHAPE_REPRESENTATION('',(#158),#372);
#380=PRODUCT_DEFINITION_CONTEXT('part definition',#385,'design');
#381=PRODUCT_DEFINITION('2025-11-04-08-29-01-320',
'Pressure Vessel End Cap With Door',#382,#380);
#382=PRODUCT_DEFINITION_FORMATION('',$,#387);
#383=PRODUCT_RELATED_PRODUCT_CATEGORY(
'Pressure Vessel End Cap With Door','Pressure Vessel End Cap With Door',
(#387));
#384=APPLICATION_PROTOCOL_DEFINITION('international standard',
'automotive_design',2009,#385);
#385=APPLICATION_CONTEXT(
'Core Data for Automotive Mechanical Design Process');
#386=PRODUCT_CONTEXT('part definition',#385,'mechanical');
#387=PRODUCT('2025-11-04-08-29-01-320',
'Pressure Vessel End Cap With Door',$,(#386));
#388=PRESENTATION_STYLE_ASSIGNMENT((#389));
#389=SURFACE_STYLE_USAGE(.BOTH.,#390);
#390=SURFACE_SIDE_STYLE('',(#391));
#391=SURFACE_STYLE_FILL_AREA(#392);
#392=FILL_AREA_STYLE('Steel - Satin',(#393));
#393=FILL_AREA_STYLE_COLOUR('Steel - Satin',#394);
#394=COLOUR_RGB('Steel - Satin',0.627450980392157,0.627450980392157,0.627450980392157);
ENDSEC;
END-ISO-10303-21;
