ISO-10303-21;
HEADER;
/* Generated by software containing ST-Developer
 * from STEP Tools, Inc. (www.steptools.com) 
 */

FILE_DESCRIPTION(
/* description */ (''),
/* implementation_level */ '2;1');

FILE_NAME(
/* name */ 'Pressure Vessel, Global Assembly.stp',
/* time_stamp */ '2025-11-02T13:03:53-06:00',
/* author */ ('anarc'),
/* organization */ (''),
/* preprocessor_version */ 'ST-DEVELOPER v20.1',
/* originating_system */ 'Autodesk Inventor 2026',
/* authorisation */ '');

FILE_SCHEMA (('AUTOMOTIVE_DESIGN { 1 0 10303 214 3 1 1 }'));
ENDSEC;

DATA;
#10=MECHANICAL_DESIGN_GEOMETRIC_PRESENTATION_REPRESENTATION('',(#35,#36),
#388);
#11=ITEM_DEFINED_TRANSFORMATION($,$,#238,#262);
#12=ITEM_DEFINED_TRANSFORMATION($,$,#247,#263);
#13=ITEM_DEFINED_TRANSFORMATION($,$,#247,#264);
#14=ITEM_DEFINED_TRANSFORMATION($,$,#247,#265);
#15=ITEM_DEFINED_TRANSFORMATION($,$,#247,#266);
#16=(
REPRESENTATION_RELATIONSHIP($,$,#405,#404)
REPRESENTATION_RELATIONSHIP_WITH_TRANSFORMATION(#11)
SHAPE_REPRESENTATION_RELATIONSHIP()
);
#17=(
REPRESENTATION_RELATIONSHIP($,$,#406,#404)
REPRESENTATION_RELATIONSHIP_WITH_TRANSFORMATION(#12)
SHAPE_REPRESENTATION_RELATIONSHIP()
);
#18=(
REPRESENTATION_RELATIONSHIP($,$,#406,#404)
REPRESENTATION_RELATIONSHIP_WITH_TRANSFORMATION(#13)
SHAPE_REPRESENTATION_RELATIONSHIP()
);
#19=(
REPRESENTATION_RELATIONSHIP($,$,#406,#404)
REPRESENTATION_RELATIONSHIP_WITH_TRANSFORMATION(#14)
SHAPE_REPRESENTATION_RELATIONSHIP()
);
#20=(
REPRESENTATION_RELATIONSHIP($,$,#406,#404)
REPRESENTATION_RELATIONSHIP_WITH_TRANSFORMATION(#15)
SHAPE_REPRESENTATION_RELATIONSHIP()
);
#21=CONTEXT_DEPENDENT_SHAPE_REPRESENTATION(#16,#399);
#22=CONTEXT_DEPENDENT_SHAPE_REPRESENTATION(#17,#400);
#23=CONTEXT_DEPENDENT_SHAPE_REPRESENTATION(#18,#401);
#24=CONTEXT_DEPENDENT_SHAPE_REPRESENTATION(#19,#402);
#25=CONTEXT_DEPENDENT_SHAPE_REPRESENTATION(#20,#403);
#26=NEXT_ASSEMBLY_USAGE_OCCURRENCE('Pressure Vessel, Single Part:1',
'Pressure Vessel, Single Part:1','Pressure Vessel, Single Part:1',#408,
#409,'Pressure Vessel, Single Part:1');
#27=NEXT_ASSEMBLY_USAGE_OCCURRENCE('Saddle:1','Saddle:1','Saddle:1',#408,
#410,'Saddle:1');
#28=NEXT_ASSEMBLY_USAGE_OCCURRENCE('Saddle:2','Saddle:2','Saddle:2',#408,
#410,'Saddle:2');
#29=NEXT_ASSEMBLY_USAGE_OCCURRENCE('Saddle:3','Saddle:3','Saddle:3',#408,
#410,'Saddle:3');
#30=NEXT_ASSEMBLY_USAGE_OCCURRENCE('Saddle:4','Saddle:4','Saddle:4',#408,
#410,'Saddle:4');
#31=SHAPE_REPRESENTATION_RELATIONSHIP('SRR','None',#405,#33);
#32=SHAPE_REPRESENTATION_RELATIONSHIP('SRR','None',#406,#34);
#33=ADVANCED_BREP_SHAPE_REPRESENTATION('',(#37),#386);
#34=ADVANCED_BREP_SHAPE_REPRESENTATION('',(#38),#387);
#35=STYLED_ITEM('',(#201),#37);
#36=STYLED_ITEM('',(#202),#38);
#37=MANIFOLD_SOLID_BREP('Solid1',#173);
#38=MANIFOLD_SOLID_BREP('Solid1',#174);
#39=FACE_BOUND('',#58,.T.);
#40=FACE_BOUND('',#60,.T.);
#41=PLANE('',#245);
#42=PLANE('',#246);
#43=PLANE('',#260);
#44=PLANE('',#261);
#45=FACE_OUTER_BOUND('',#55,.T.);
#46=FACE_OUTER_BOUND('',#56,.T.);
#47=FACE_OUTER_BOUND('',#57,.T.);
#48=FACE_OUTER_BOUND('',#59,.T.);
#49=FACE_OUTER_BOUND('',#61,.T.);
#50=FACE_OUTER_BOUND('',#62,.T.);
#51=FACE_OUTER_BOUND('',#63,.T.);
#52=FACE_OUTER_BOUND('',#64,.T.);
#53=FACE_OUTER_BOUND('',#65,.T.);
#54=FACE_OUTER_BOUND('',#66,.T.);
#55=EDGE_LOOP('',(#121,#122,#123,#124));
#56=EDGE_LOOP('',(#125,#126,#127,#128));
#57=EDGE_LOOP('',(#129));
#58=EDGE_LOOP('',(#130));
#59=EDGE_LOOP('',(#131));
#60=EDGE_LOOP('',(#132));
#61=EDGE_LOOP('',(#133,#134,#135,#136));
#62=EDGE_LOOP('',(#137,#138,#139,#140));
#63=EDGE_LOOP('',(#141,#142,#143,#144));
#64=EDGE_LOOP('',(#145,#146,#147,#148));
#65=EDGE_LOOP('',(#149,#150,#151,#152));
#66=EDGE_LOOP('',(#153,#154,#155,#156));
#67=LINE('',#339,#73);
#68=LINE('',#345,#74);
#69=LINE('',#355,#75);
#70=LINE('',#358,#76);
#71=LINE('',#364,#77);
#72=LINE('',#370,#78);
#73=VECTOR('',#275,2.125);
#74=VECTOR('',#282,2.125);
#75=VECTOR('',#295,0.01);
#76=VECTOR('',#298,0.01);
#77=VECTOR('',#305,0.01);
#78=VECTOR('',#312,0.01);
#79=CIRCLE('',#240,2.117);
#80=CIRCLE('',#241,2.117);
#81=CIRCLE('',#243,2.125);
#82=CIRCLE('',#244,2.125);
#83=CIRCLE('',#249,2.225);
#84=CIRCLE('',#250,2.225);
#85=CIRCLE('',#252,0.0500000000000003);
#86=CIRCLE('',#253,0.0500000000000003);
#87=CIRCLE('',#255,2.125);
#88=CIRCLE('',#256,2.125);
#89=CIRCLE('',#258,0.0500000000000003);
#90=CIRCLE('',#259,0.0500000000000003);
#91=VERTEX_POINT('',#336);
#92=VERTEX_POINT('',#338);
#93=VERTEX_POINT('',#342);
#94=VERTEX_POINT('',#344);
#95=VERTEX_POINT('',#351);
#96=VERTEX_POINT('',#352);
#97=VERTEX_POINT('',#354);
#98=VERTEX_POINT('',#356);
#99=VERTEX_POINT('',#360);
#100=VERTEX_POINT('',#362);
#101=VERTEX_POINT('',#366);
#102=VERTEX_POINT('',#368);
#103=EDGE_CURVE('',#91,#91,#79,.T.);
#104=EDGE_CURVE('',#91,#92,#67,.T.);
#105=EDGE_CURVE('',#92,#92,#80,.T.);
#106=EDGE_CURVE('',#93,#93,#81,.T.);
#107=EDGE_CURVE('',#93,#94,#68,.T.);
#108=EDGE_CURVE('',#94,#94,#82,.T.);
#109=EDGE_CURVE('',#95,#96,#83,.T.);
#110=EDGE_CURVE('',#96,#97,#69,.T.);
#111=EDGE_CURVE('',#98,#97,#84,.T.);
#112=EDGE_CURVE('',#95,#98,#70,.T.);
#113=EDGE_CURVE('',#99,#95,#85,.T.);
#114=EDGE_CURVE('',#100,#98,#86,.T.);
#115=EDGE_CURVE('',#99,#100,#71,.T.);
#116=EDGE_CURVE('',#101,#99,#87,.T.);
#117=EDGE_CURVE('',#102,#100,#88,.T.);
#118=EDGE_CURVE('',#101,#102,#72,.T.);
#119=EDGE_CURVE('',#96,#101,#89,.T.);
#120=EDGE_CURVE('',#97,#102,#90,.T.);
#121=ORIENTED_EDGE('',*,*,#103,.F.);
#122=ORIENTED_EDGE('',*,*,#104,.T.);
#123=ORIENTED_EDGE('',*,*,#105,.F.);
#124=ORIENTED_EDGE('',*,*,#104,.F.);
#125=ORIENTED_EDGE('',*,*,#106,.F.);
#126=ORIENTED_EDGE('',*,*,#107,.T.);
#127=ORIENTED_EDGE('',*,*,#108,.F.);
#128=ORIENTED_EDGE('',*,*,#107,.F.);
#129=ORIENTED_EDGE('',*,*,#108,.T.);
#130=ORIENTED_EDGE('',*,*,#103,.T.);
#131=ORIENTED_EDGE('',*,*,#106,.T.);
#132=ORIENTED_EDGE('',*,*,#105,.T.);
#133=ORIENTED_EDGE('',*,*,#109,.T.);
#134=ORIENTED_EDGE('',*,*,#110,.T.);
#135=ORIENTED_EDGE('',*,*,#111,.F.);
#136=ORIENTED_EDGE('',*,*,#112,.F.);
#137=ORIENTED_EDGE('',*,*,#113,.T.);
#138=ORIENTED_EDGE('',*,*,#112,.T.);
#139=ORIENTED_EDGE('',*,*,#114,.F.);
#140=ORIENTED_EDGE('',*,*,#115,.F.);
#141=ORIENTED_EDGE('',*,*,#116,.T.);
#142=ORIENTED_EDGE('',*,*,#115,.T.);
#143=ORIENTED_EDGE('',*,*,#117,.F.);
#144=ORIENTED_EDGE('',*,*,#118,.F.);
#145=ORIENTED_EDGE('',*,*,#119,.T.);
#146=ORIENTED_EDGE('',*,*,#118,.T.);
#147=ORIENTED_EDGE('',*,*,#120,.F.);
#148=ORIENTED_EDGE('',*,*,#110,.F.);
#149=ORIENTED_EDGE('',*,*,#120,.T.);
#150=ORIENTED_EDGE('',*,*,#117,.T.);
#151=ORIENTED_EDGE('',*,*,#114,.T.);
#152=ORIENTED_EDGE('',*,*,#111,.T.);
#153=ORIENTED_EDGE('',*,*,#119,.F.);
#154=ORIENTED_EDGE('',*,*,#109,.F.);
#155=ORIENTED_EDGE('',*,*,#113,.F.);
#156=ORIENTED_EDGE('',*,*,#116,.F.);
#157=CYLINDRICAL_SURFACE('',#239,2.117);
#158=CYLINDRICAL_SURFACE('',#242,2.125);
#159=CYLINDRICAL_SURFACE('',#248,2.225);
#160=CYLINDRICAL_SURFACE('',#251,0.0500000000000003);
#161=CYLINDRICAL_SURFACE('',#254,2.125);
#162=CYLINDRICAL_SURFACE('',#257,0.0500000000000003);
#163=ADVANCED_FACE('',(#45),#157,.F.);
#164=ADVANCED_FACE('',(#46),#158,.T.);
#165=ADVANCED_FACE('',(#47,#39),#41,.T.);
#166=ADVANCED_FACE('',(#48,#40),#42,.F.);
#167=ADVANCED_FACE('',(#49),#159,.T.);
#168=ADVANCED_FACE('',(#50),#160,.T.);
#169=ADVANCED_FACE('',(#51),#161,.F.);
#170=ADVANCED_FACE('',(#52),#162,.T.);
#171=ADVANCED_FACE('',(#53),#43,.T.);
#172=ADVANCED_FACE('',(#54),#44,.F.);
#173=CLOSED_SHELL('',(#163,#164,#165,#166));
#174=CLOSED_SHELL('',(#167,#168,#169,#170,#171,#172));
#175=DERIVED_UNIT_ELEMENT(#180,1.);
#176=DERIVED_UNIT_ELEMENT(#390,-3.);
#177=DERIVED_UNIT_ELEMENT(#180,1.);
#178=DERIVED_UNIT_ELEMENT(#390,-3.);
#179=DIMENSIONAL_EXPONENTS(0.,1.,0.,0.,0.,0.,0.);
#180=(
CONVERSION_BASED_UNIT('gram',#182)
MASS_UNIT()
NAMED_UNIT(#179)
);
#181=(
MASS_UNIT()
NAMED_UNIT(*)
SI_UNIT(.KILO.,.GRAM.)
);
#182=MASS_MEASURE_WITH_UNIT(MASS_MEASURE(0.001),#181);
#183=DERIVED_UNIT((#175,#176));
#184=DERIVED_UNIT((#177,#178));
#185=MEASURE_REPRESENTATION_ITEM('density measure',
POSITIVE_RATIO_MEASURE(2.7),#183);
#186=MEASURE_REPRESENTATION_ITEM('density measure',
POSITIVE_RATIO_MEASURE(1.),#184);
#187=PROPERTY_DEFINITION_REPRESENTATION(#197,#191);
#188=PROPERTY_DEFINITION_REPRESENTATION(#198,#192);
#189=PROPERTY_DEFINITION_REPRESENTATION(#199,#193);
#190=PROPERTY_DEFINITION_REPRESENTATION(#200,#194);
#191=REPRESENTATION('material name',(#195),#386);
#192=REPRESENTATION('density',(#185),#386);
#193=REPRESENTATION('material name',(#196),#387);
#194=REPRESENTATION('density',(#186),#387);
#195=DESCRIPTIVE_REPRESENTATION_ITEM('Aluminum 6061','Aluminum 6061');
#196=DESCRIPTIVE_REPRESENTATION_ITEM('Generic','Generic');
#197=PROPERTY_DEFINITION('material property','material name',#409);
#198=PROPERTY_DEFINITION('material property','density of part',#409);
#199=PROPERTY_DEFINITION('material property','material name',#410);
#200=PROPERTY_DEFINITION('material property','density of part',#410);
#201=PRESENTATION_STYLE_ASSIGNMENT((#203));
#202=PRESENTATION_STYLE_ASSIGNMENT((#204));
#203=SURFACE_STYLE_USAGE(.BOTH.,#209);
#204=SURFACE_STYLE_USAGE(.BOTH.,#210);
#205=SURFACE_STYLE_RENDERING_WITH_PROPERTIES($,#217,(#207));
#206=SURFACE_STYLE_RENDERING_WITH_PROPERTIES($,#218,(#208));
#207=SURFACE_STYLE_TRANSPARENT(0.);
#208=SURFACE_STYLE_TRANSPARENT(0.);
#209=SURFACE_SIDE_STYLE('',(#211,#205));
#210=SURFACE_SIDE_STYLE('',(#212,#206));
#211=SURFACE_STYLE_FILL_AREA(#213);
#212=SURFACE_STYLE_FILL_AREA(#214);
#213=FILL_AREA_STYLE('',(#215));
#214=FILL_AREA_STYLE('',(#216));
#215=FILL_AREA_STYLE_COLOUR('',#217);
#216=FILL_AREA_STYLE_COLOUR('',#218);
#217=COLOUR_RGB('',0.996078431372549,0.996078431372549,1.);
#218=COLOUR_RGB('',0.749019607843137,0.749019607843137,0.749019607843137);
#219=DATE_TIME_ROLE('creation_date');
#220=DATE_TIME_ROLE('creation_date');
#221=DATE_TIME_ROLE('creation_date');
#222=APPLIED_DATE_AND_TIME_ASSIGNMENT(#225,#219,(#408));
#223=APPLIED_DATE_AND_TIME_ASSIGNMENT(#226,#220,(#409));
#224=APPLIED_DATE_AND_TIME_ASSIGNMENT(#227,#221,(#410));
#225=DATE_AND_TIME(#228,#231);
#226=DATE_AND_TIME(#229,#232);
#227=DATE_AND_TIME(#230,#233);
#228=CALENDAR_DATE(2025,25,10);
#229=CALENDAR_DATE(2025,25,10);
#230=CALENDAR_DATE(2025,31,10);
#231=LOCAL_TIME(0,0,0.,#234);
#232=LOCAL_TIME(0,0,0.,#235);
#233=LOCAL_TIME(0,0,0.,#236);
#234=COORDINATED_UNIVERSAL_TIME_OFFSET(0,0,.BEHIND.);
#235=COORDINATED_UNIVERSAL_TIME_OFFSET(0,0,.BEHIND.);
#236=COORDINATED_UNIVERSAL_TIME_OFFSET(0,0,.BEHIND.);
#237=AXIS2_PLACEMENT_3D('',#333,#267,#268);
#238=AXIS2_PLACEMENT_3D('',#334,#269,#270);
#239=AXIS2_PLACEMENT_3D('',#335,#271,#272);
#240=AXIS2_PLACEMENT_3D('',#337,#273,#274);
#241=AXIS2_PLACEMENT_3D('',#340,#276,#277);
#242=AXIS2_PLACEMENT_3D('',#341,#278,#279);
#243=AXIS2_PLACEMENT_3D('',#343,#280,#281);
#244=AXIS2_PLACEMENT_3D('',#346,#283,#284);
#245=AXIS2_PLACEMENT_3D('',#347,#285,#286);
#246=AXIS2_PLACEMENT_3D('',#348,#287,#288);
#247=AXIS2_PLACEMENT_3D('',#349,#289,#290);
#248=AXIS2_PLACEMENT_3D('',#350,#291,#292);
#249=AXIS2_PLACEMENT_3D('',#353,#293,#294);
#250=AXIS2_PLACEMENT_3D('',#357,#296,#297);
#251=AXIS2_PLACEMENT_3D('',#359,#299,#300);
#252=AXIS2_PLACEMENT_3D('',#361,#301,#302);
#253=AXIS2_PLACEMENT_3D('',#363,#303,#304);
#254=AXIS2_PLACEMENT_3D('',#365,#306,#307);
#255=AXIS2_PLACEMENT_3D('',#367,#308,#309);
#256=AXIS2_PLACEMENT_3D('',#369,#310,#311);
#257=AXIS2_PLACEMENT_3D('',#371,#313,#314);
#258=AXIS2_PLACEMENT_3D('',#372,#315,#316);
#259=AXIS2_PLACEMENT_3D('',#373,#317,#318);
#260=AXIS2_PLACEMENT_3D('',#374,#319,#320);
#261=AXIS2_PLACEMENT_3D('',#375,#321,#322);
#262=AXIS2_PLACEMENT_3D('',#376,#323,#324);
#263=AXIS2_PLACEMENT_3D('',#377,#325,#326);
#264=AXIS2_PLACEMENT_3D('',#378,#327,#328);
#265=AXIS2_PLACEMENT_3D('',#379,#329,#330);
#266=AXIS2_PLACEMENT_3D('',#380,#331,#332);
#267=DIRECTION('axis',(0.,0.,1.));
#268=DIRECTION('refdir',(1.,0.,0.));
#269=DIRECTION('axis',(0.,0.,1.));
#270=DIRECTION('refdir',(1.,0.,0.));
#271=DIRECTION('center_axis',(-1.,0.,0.));
#272=DIRECTION('ref_axis',(0.,1.,0.));
#273=DIRECTION('center_axis',(-1.,0.,0.));
#274=DIRECTION('ref_axis',(0.,1.,0.));
#275=DIRECTION('',(-1.,0.,0.));
#276=DIRECTION('center_axis',(1.,0.,0.));
#277=DIRECTION('ref_axis',(0.,1.,0.));
#278=DIRECTION('center_axis',(-1.,0.,0.));
#279=DIRECTION('ref_axis',(0.,1.,0.));
#280=DIRECTION('center_axis',(-1.,0.,0.));
#281=DIRECTION('ref_axis',(0.,1.,0.));
#282=DIRECTION('',(1.,0.,0.));
#283=DIRECTION('center_axis',(1.,0.,0.));
#284=DIRECTION('ref_axis',(0.,1.,0.));
#285=DIRECTION('center_axis',(1.,0.,0.));
#286=DIRECTION('ref_axis',(0.,0.,-1.));
#287=DIRECTION('center_axis',(1.,0.,0.));
#288=DIRECTION('ref_axis',(0.,0.,-1.));
#289=DIRECTION('axis',(0.,0.,1.));
#290=DIRECTION('refdir',(1.,0.,0.));
#291=DIRECTION('center_axis',(0.,0.,1.));
#292=DIRECTION('ref_axis',(-0.570766883209714,-0.821112151311299,0.));
#293=DIRECTION('center_axis',(0.,0.,1.));
#294=DIRECTION('ref_axis',(-0.570766883209714,-0.821112151311299,0.));
#295=DIRECTION('',(0.,0.,1.));
#296=DIRECTION('center_axis',(0.,0.,1.));
#297=DIRECTION('ref_axis',(-0.570766883209714,-0.821112151311299,0.));
#298=DIRECTION('',(0.,0.,1.));
#299=DIRECTION('center_axis',(0.,0.,1.));
#300=DIRECTION('ref_axis',(0.570766883209714,0.821112151311298,0.));
#301=DIRECTION('center_axis',(0.,0.,1.));
#302=DIRECTION('ref_axis',(0.570766883209714,0.821112151311298,0.));
#303=DIRECTION('center_axis',(0.,0.,1.));
#304=DIRECTION('ref_axis',(0.570766883209714,0.821112151311298,0.));
#305=DIRECTION('',(0.,0.,1.));
#306=DIRECTION('center_axis',(0.,0.,1.));
#307=DIRECTION('ref_axis',(-3.06161699786838E-16,-1.,0.));
#308=DIRECTION('center_axis',(0.,0.,-1.));
#309=DIRECTION('ref_axis',(1.83697019872103E-16,1.,0.));
#310=DIRECTION('center_axis',(0.,0.,-1.));
#311=DIRECTION('ref_axis',(1.83697019872103E-16,1.,0.));
#312=DIRECTION('',(0.,0.,1.));
#313=DIRECTION('center_axis',(0.,0.,1.));
#314=DIRECTION('ref_axis',(0.570766883209702,-0.821112151311307,0.));
#315=DIRECTION('center_axis',(0.,0.,1.));
#316=DIRECTION('ref_axis',(0.570766883209702,-0.821112151311307,0.));
#317=DIRECTION('center_axis',(0.,0.,1.));
#318=DIRECTION('ref_axis',(0.570766883209702,-0.821112151311307,0.));
#319=DIRECTION('center_axis',(0.,0.,1.));
#320=DIRECTION('ref_axis',(1.,0.,0.));
#321=DIRECTION('center_axis',(0.,0.,1.));
#322=DIRECTION('ref_axis',(1.,0.,0.));
#323=DIRECTION('',(0.,0.,1.));
#324=DIRECTION('',(1.,0.,0.));
#325=DIRECTION('',(-1.,0.,0.));
#326=DIRECTION('',(0.,0.,1.));
#327=DIRECTION('',(-1.,0.,0.));
#328=DIRECTION('',(0.,0.,1.));
#329=DIRECTION('',(-1.,0.,0.));
#330=DIRECTION('',(0.,0.,1.));
#331=DIRECTION('',(-1.,0.,0.));
#332=DIRECTION('',(0.,0.,1.));
#333=CARTESIAN_POINT('',(0.,0.,0.));
#334=CARTESIAN_POINT('',(0.,0.,0.));
#335=CARTESIAN_POINT('Origin',(0.,0.,0.));
#336=CARTESIAN_POINT('',(0.,-2.117,2.59257727379495E-16));
#337=CARTESIAN_POINT('Origin',(0.,0.,0.));
#338=CARTESIAN_POINT('',(-10.,-2.117,2.59257727379495E-16));
#339=CARTESIAN_POINT('',(0.,-2.117,2.59257727379495E-16));
#340=CARTESIAN_POINT('Origin',(-10.,0.,0.));
#341=CARTESIAN_POINT('Origin',(0.,0.,0.));
#342=CARTESIAN_POINT('',(-10.,-2.125,2.60237444818813E-16));
#343=CARTESIAN_POINT('Origin',(-10.,0.,0.));
#344=CARTESIAN_POINT('',(0.,-2.125,2.60237444818813E-16));
#345=CARTESIAN_POINT('',(0.,-2.125,2.60237444818813E-16));
#346=CARTESIAN_POINT('Origin',(0.,0.,0.));
#347=CARTESIAN_POINT('Origin',(0.,0.,0.));
#348=CARTESIAN_POINT('Origin',(-10.,0.,0.));
#349=CARTESIAN_POINT('',(0.,0.,0.));
#350=CARTESIAN_POINT('Origin',(0.,0.,0.));
#351=CARTESIAN_POINT('',(-1.26995631514161,-1.82697453666764,0.));
#352=CARTESIAN_POINT('',(1.26995631514161,-1.82697453666764,0.));
#353=CARTESIAN_POINT('Origin',(0.,0.,0.));
#354=CARTESIAN_POINT('',(1.26995631514161,-1.82697453666764,0.1));
#355=CARTESIAN_POINT('',(1.26995631514161,-1.82697453666764,0.));
#356=CARTESIAN_POINT('',(-1.26995631514161,-1.82697453666764,0.1));
#357=CARTESIAN_POINT('Origin',(0.,0.,0.1));
#358=CARTESIAN_POINT('',(-1.26995631514161,-1.82697453666764,0.));
#359=CARTESIAN_POINT('Origin',(-1.24141797098113,-1.78591892910207,0.));
#360=CARTESIAN_POINT('',(-1.21287962682064,-1.74486332153651,0.));
#361=CARTESIAN_POINT('Origin',(-1.24141797098113,-1.78591892910207,0.));
#362=CARTESIAN_POINT('',(-1.21287962682064,-1.74486332153651,0.1));
#363=CARTESIAN_POINT('Origin',(-1.24141797098113,-1.78591892910207,0.1));
#364=CARTESIAN_POINT('',(-1.21287962682064,-1.74486332153651,0.));
#365=CARTESIAN_POINT('Origin',(0.,0.,0.));
#366=CARTESIAN_POINT('',(1.21287962682064,-1.74486332153651,0.));
#367=CARTESIAN_POINT('Origin',(0.,0.,0.));
#368=CARTESIAN_POINT('',(1.21287962682064,-1.74486332153651,0.1));
#369=CARTESIAN_POINT('Origin',(0.,0.,0.1));
#370=CARTESIAN_POINT('',(1.21287962682064,-1.74486332153651,0.));
#371=CARTESIAN_POINT('Origin',(1.24141797098113,-1.78591892910207,0.));
#372=CARTESIAN_POINT('Origin',(1.24141797098113,-1.78591892910207,0.));
#373=CARTESIAN_POINT('Origin',(1.24141797098113,-1.78591892910207,0.1));
#374=CARTESIAN_POINT('Origin',(-1.4210854715202E-16,-1.98045946455104,0.1));
#375=CARTESIAN_POINT('Origin',(-1.4210854715202E-16,-1.98045946455104,0.));
#376=CARTESIAN_POINT('',(1.47014279447283,1.36781037068256,2.16204683484461));
#377=CARTESIAN_POINT('',(1.37014279447283,1.36781037068256,2.16204683484461));
#378=CARTESIAN_POINT('',(-1.85485720552717,1.36781037068256,2.16204683484461));
#379=CARTESIAN_POINT('',(-5.07985720552717,1.36781037068256,2.16204683484461));
#380=CARTESIAN_POINT('',(-8.30485720552717,1.36781037068256,2.16204683484461));
#381=UNCERTAINTY_MEASURE_WITH_UNIT(LENGTH_MEASURE(1.E-5),#389,
'DISTANCE_ACCURACY_VALUE',
'Maximum model space distance between geometric entities at asserted c
onnectivities');
#382=UNCERTAINTY_MEASURE_WITH_UNIT(LENGTH_MEASURE(1.E-5),#389,
'DISTANCE_ACCURACY_VALUE',
'Maximum model space distance between geometric entities at asserted c
onnectivities');
#383=UNCERTAINTY_MEASURE_WITH_UNIT(LENGTH_MEASURE(1.E-5),#389,
'DISTANCE_ACCURACY_VALUE',
'Maximum model space distance between geometric entities at asserted c
onnectivities');
#384=UNCERTAINTY_MEASURE_WITH_UNIT(LENGTH_MEASURE(1.E-5),#389,
'DISTANCE_ACCURACY_VALUE',
'Maximum model space distance between geometric entities at asserted c
onnectivities');
#385=(
GEOMETRIC_REPRESENTATION_CONTEXT(3)
GLOBAL_UNCERTAINTY_ASSIGNED_CONTEXT((#381))
GLOBAL_UNIT_ASSIGNED_CONTEXT((#389,#391,#392))
REPRESENTATION_CONTEXT('','3D')
);
#386=(
GEOMETRIC_REPRESENTATION_CONTEXT(3)
GLOBAL_UNCERTAINTY_ASSIGNED_CONTEXT((#382))
GLOBAL_UNIT_ASSIGNED_CONTEXT((#389,#391,#392))
REPRESENTATION_CONTEXT('','3D')
);
#387=(
GEOMETRIC_REPRESENTATION_CONTEXT(3)
GLOBAL_UNCERTAINTY_ASSIGNED_CONTEXT((#383))
GLOBAL_UNIT_ASSIGNED_CONTEXT((#389,#391,#392))
REPRESENTATION_CONTEXT('','3D')
);
#388=(
GEOMETRIC_REPRESENTATION_CONTEXT(3)
GLOBAL_UNCERTAINTY_ASSIGNED_CONTEXT((#384))
GLOBAL_UNIT_ASSIGNED_CONTEXT((#389,#391,#392))
REPRESENTATION_CONTEXT('','3D')
);
#389=(
LENGTH_UNIT()
NAMED_UNIT(*)
SI_UNIT($,.METRE.)
);
#390=(
LENGTH_UNIT()
NAMED_UNIT(*)
SI_UNIT(.CENTI.,.METRE.)
);
#391=(
NAMED_UNIT(*)
PLANE_ANGLE_UNIT()
SI_UNIT($,.RADIAN.)
);
#392=(
NAMED_UNIT(*)
SI_UNIT($,.STERADIAN.)
SOLID_ANGLE_UNIT()
);
#393=SHAPE_DEFINITION_REPRESENTATION(#396,#404);
#394=SHAPE_DEFINITION_REPRESENTATION(#397,#405);
#395=SHAPE_DEFINITION_REPRESENTATION(#398,#406);
#396=PRODUCT_DEFINITION_SHAPE('',$,#408);
#397=PRODUCT_DEFINITION_SHAPE('',$,#409);
#398=PRODUCT_DEFINITION_SHAPE('',$,#410);
#399=PRODUCT_DEFINITION_SHAPE($,$,#26);
#400=PRODUCT_DEFINITION_SHAPE($,$,#27);
#401=PRODUCT_DEFINITION_SHAPE($,$,#28);
#402=PRODUCT_DEFINITION_SHAPE($,$,#29);
#403=PRODUCT_DEFINITION_SHAPE($,$,#30);
#404=SHAPE_REPRESENTATION('',(#237,#262,#263,#264,#265,#266),#385);
#405=SHAPE_REPRESENTATION('',(#238),#386);
#406=SHAPE_REPRESENTATION('',(#247),#387);
#407=PRODUCT_DEFINITION_CONTEXT('part definition',#418,'design');
#408=PRODUCT_DEFINITION('Pressure Vessel, Global Assembly',
'Pressure Vessel, Global Assembly',#411,#407);
#409=PRODUCT_DEFINITION('Pressure Vessel, Single Part',
'Pressure Vessel, Single Part',#412,#407);
#410=PRODUCT_DEFINITION('Saddle','Saddle',#413,#407);
#411=PRODUCT_DEFINITION_FORMATION('',$,#420);
#412=PRODUCT_DEFINITION_FORMATION('',$,#421);
#413=PRODUCT_DEFINITION_FORMATION('',$,#422);
#414=PRODUCT_RELATED_PRODUCT_CATEGORY(
'Pressure Vessel, Global Assembly','Pressure Vessel, Global Assembly',(#420));
#415=PRODUCT_RELATED_PRODUCT_CATEGORY('Pressure Vessel, Single Part',
'Pressure Vessel, Single Part',(#421));
#416=PRODUCT_RELATED_PRODUCT_CATEGORY('Saddle','Saddle',(#422));
#417=APPLICATION_PROTOCOL_DEFINITION('international standard',
'automotive_design',2009,#418);
#418=APPLICATION_CONTEXT(
'Core Data for Automotive Mechanical Design Process');
#419=PRODUCT_CONTEXT('part definition',#418,'mechanical');
#420=PRODUCT('Pressure Vessel, Global Assembly',
'Pressure Vessel, Global Assembly',$,(#419));
#421=PRODUCT('Pressure Vessel, Single Part',
'Pressure Vessel, Single Part',$,(#419));
#422=PRODUCT('Saddle','Saddle',$,(#419));
ENDSEC;
END-ISO-10303-21;
